<svg width="1439" height="408" viewBox="0 0 1439 408" fill="none" xmlns="http://www.w3.org/2000/svg">
<g clip-path="url(#clip0_1527_30653)">
<g opacity="0.25">
<path d="M146.937 135.928L146.925 136.829L147.717 137.25L192.464 161.08L193.194 161.469L193.906 161.044L239.303 133.925L240.014 133.5L240.025 132.669L240.674 81.7205L240.685 80.8194L239.894 80.3979L195.146 56.5679L194.416 56.1792L193.704 56.6043L148.308 83.723L147.596 84.1481L147.586 84.9791L146.937 135.928Z" stroke="#55B09F" stroke-width="2.95134"/>
<path d="M189.706 209.466L189.695 210.367L190.486 210.789L235.234 234.619L235.964 235.008L236.676 234.582L282.072 207.464L282.784 207.039L282.794 206.208L283.443 155.259L283.455 154.358L282.663 153.936L237.916 130.106L237.186 129.718L236.474 130.143L191.077 157.262L190.366 157.687L190.355 158.518L189.706 209.466Z" stroke="#55B09F" stroke-width="2.95134"/>
<path d="M102.058 212.664L102.046 213.565L102.838 213.986L147.586 237.816L148.315 238.205L149.027 237.78L194.424 210.661L195.135 210.236L195.146 209.405L195.795 158.456L195.806 157.555L195.015 157.134L150.267 133.304L149.537 132.915L148.826 133.34L103.429 160.459L102.717 160.884L102.707 161.715L102.058 212.664Z" stroke="#55B09F" stroke-width="2.95134"/>
<path d="M145.273 286.948L145.261 287.849L146.053 288.27L190.8 312.1L191.53 312.489L192.242 312.064L237.639 284.945L238.35 284.52L238.361 283.689L239.01 232.74L239.021 231.839L238.23 231.418L193.482 207.588L192.752 207.199L192.04 207.624L146.644 234.743L145.932 235.168L145.922 235.999L145.273 286.948Z" stroke="#55B09F" stroke-width="2.95134"/>
<path d="M56.3938 289.873L56.3823 290.774L57.1738 291.196L101.921 315.026L102.651 315.414L103.363 314.989L148.76 287.871L149.471 287.446L149.482 286.615L150.131 235.666L150.142 234.765L149.351 234.343L104.603 210.513L103.873 210.125L103.162 210.55L57.7649 237.668L57.0533 238.094L57.0427 238.925L56.3938 289.873Z" fill="#55B09F" stroke="#55B09F" stroke-width="2.95134"/>
<path d="M10.2288 139.977L11.2233 61.8886L80.8024 20.324L149.387 56.8481L148.393 134.937L78.8134 176.502L10.2288 139.977Z" fill="#55B09F"/>
<path d="M236.819 132.897L236.807 133.798L237.599 134.219L282.346 158.049L283.076 158.438L283.788 158.013L329.184 130.894L329.896 130.469L329.907 129.638L330.556 78.6896L330.567 77.7885L329.776 77.367L285.028 53.537L284.298 53.1483L283.586 53.5735L238.19 80.6921L237.478 81.1172L237.467 81.9482L236.819 132.897Z" fill="#55B09F" stroke="#55B09F" stroke-width="2.95134"/>
<path d="M325.033 128.859L325.022 129.76L325.813 130.182L370.561 154.012L371.291 154.401L372.003 153.975L417.399 126.857L418.111 126.432L418.122 125.601L418.77 74.652L418.782 73.7509L417.99 73.3295L373.243 49.4995L372.513 49.1108L371.801 49.5359L326.405 76.6546L325.693 77.0797L325.682 77.9107L325.033 128.859Z" stroke="#55B09F" stroke-width="2.95134"/>
<path d="M279.815 206.814L279.803 207.715L280.595 208.136L325.342 231.966L326.072 232.355L326.784 231.93L372.181 204.811L372.892 204.386L372.903 203.555L373.552 152.606L373.563 151.705L372.772 151.284L328.024 127.454L327.294 127.065L326.582 127.49L281.186 154.609L280.474 155.034L280.464 155.865L279.815 206.814Z" stroke="#55B09F" stroke-width="2.95134"/>
</g>
<g opacity="0.25">
<path d="M1140.27 144.056L1140.47 144.933L1141.34 145.15L1190.53 157.434L1191.33 157.635L1191.92 157.05L1229.4 119.745L1229.98 119.16L1229.79 118.351L1218.08 68.7617L1217.88 67.8846L1217.01 67.6674L1167.82 55.3835L1167.02 55.1831L1166.43 55.7679L1128.95 93.0732L1128.37 93.658L1128.56 94.4669L1140.27 144.056Z" stroke="#55B09F" stroke-width="2.95134"/>
<path d="M1199.57 205.048L1199.78 205.925L1200.65 206.142L1249.84 218.426L1250.64 218.626L1251.22 218.042L1288.7 180.736L1289.29 180.152L1289.1 179.343L1277.39 129.754L1277.18 128.876L1276.31 128.659L1227.13 116.375L1226.32 116.175L1225.74 116.76L1188.26 154.065L1187.67 154.65L1187.86 155.459L1199.57 205.048Z" stroke="#55B09F" stroke-width="2.95134"/>
<path d="M1115.31 229.376L1115.51 230.253L1116.38 230.471L1165.57 242.755L1166.37 242.955L1166.96 242.37L1204.44 205.065L1205.02 204.48L1204.83 203.671L1193.12 154.082L1192.92 153.205L1192.05 152.988L1142.86 140.704L1142.06 140.503L1141.47 141.088L1103.99 178.393L1103.41 178.978L1103.6 179.787L1115.31 229.376Z" stroke="#55B09F" stroke-width="2.95134"/>
<path d="M1175.22 290.984L1175.43 291.861L1176.3 292.078L1225.49 304.362L1226.29 304.562L1226.88 303.977L1264.36 266.672L1264.94 266.087L1264.75 265.279L1253.04 215.689L1252.84 214.812L1251.97 214.595L1202.78 202.311L1201.98 202.111L1201.39 202.696L1163.91 240.001L1163.32 240.586L1163.51 241.395L1175.22 290.984Z" stroke="#55B09F" stroke-width="2.95134"/>
<path d="M1089.7 315.346L1089.91 316.223L1090.78 316.44L1139.96 328.724L1140.77 328.925L1141.35 328.34L1178.83 291.035L1179.42 290.45L1179.23 289.641L1167.52 240.052L1167.31 239.175L1166.44 238.957L1117.25 226.674L1116.45 226.473L1115.86 227.058L1078.39 264.363L1077.8 264.948L1077.99 265.757L1089.7 315.346Z" fill="#55B09F" stroke="#55B09F" stroke-width="2.95134"/>
<path d="M1008.61 181.092L990.662 105.087L1048.1 47.9094L1123.49 66.7369L1141.44 142.742L1084 199.92L1008.61 181.092Z" fill="#55B09F"/>
<path d="M1226.74 119.348L1226.95 120.225L1227.82 120.443L1277 132.727L1277.8 132.927L1278.39 132.342L1315.87 95.0368L1316.46 94.452L1316.27 93.6432L1304.56 44.054L1304.35 43.1769L1303.48 42.9597L1254.29 30.6758L1253.49 30.4754L1252.9 31.0602L1215.43 68.3655L1214.84 68.9503L1215.03 69.7592L1226.74 119.348Z" fill="#55B09F" stroke="#55B09F" stroke-width="2.95134"/>
<path d="M1311.35 94.0678L1311.56 94.9449L1312.43 95.1621L1361.61 107.446L1362.41 107.646L1363 107.062L1400.48 69.7563L1401.07 69.1715L1400.88 68.3627L1389.17 18.7735L1388.96 17.8964L1388.09 17.6792L1338.9 5.39526L1338.1 5.1949L1337.51 5.77972L1300.04 43.085L1299.45 43.6698L1299.64 44.4786L1311.35 94.0678Z" stroke="#55B09F" stroke-width="2.95134"/>
<path d="M1286.35 180.652L1286.56 181.529L1287.43 181.747L1336.62 194.031L1337.42 194.231L1338.01 193.646L1375.49 156.341L1376.07 155.756L1375.88 154.947L1364.17 105.358L1363.97 104.481L1363.1 104.264L1313.91 91.9797L1313.11 91.7794L1312.52 92.3642L1275.04 129.669L1274.45 130.254L1274.65 131.063L1286.35 180.652Z" stroke="#55B09F" stroke-width="2.95134"/>
</g>
<g opacity="0.25">
<path d="M687.02 317.427L687.017 316.762L686.427 316.46L646.583 296.127L646.038 295.849L645.518 296.172L605.887 320.796L605.366 321.119L605.369 321.734L605.582 366.691L605.585 367.357L606.175 367.658L646.019 387.992L646.563 388.269L647.084 387.946L686.715 363.322L687.236 362.999L687.233 362.385L687.02 317.427Z" stroke="#55B09F" stroke-width="2.18077"/>
<path d="M648.153 253.21L648.15 252.544L647.56 252.243L607.715 231.909L607.171 231.632L606.651 231.955L567.019 256.579L566.499 256.902L566.502 257.516L566.715 302.474L566.718 303.139L567.308 303.441L607.152 323.774L607.696 324.052L608.217 323.729L647.848 299.105L648.368 298.782L648.365 298.168L648.153 253.21Z" stroke="#55B09F" stroke-width="2.18077"/>
<path d="M725.431 249.039L725.428 248.373L724.838 248.072L684.994 227.738L684.45 227.461L683.929 227.784L644.298 252.408L643.777 252.731L643.78 253.345L643.993 298.302L643.996 298.968L644.586 299.27L684.43 319.603L684.975 319.881L685.495 319.558L725.126 294.934L725.647 294.61L725.644 293.996L725.431 249.039Z" stroke="#55B09F" stroke-width="2.18077"/>
<path d="M686.161 184.17L686.157 183.505L685.567 183.203L645.723 162.87L645.179 162.592L644.659 162.915L605.027 187.539L604.507 187.862L604.51 188.477L604.722 233.434L604.726 234.1L605.316 234.401L645.16 254.735L645.704 255.012L646.224 254.689L685.856 230.065L686.376 229.742L686.373 229.128L686.161 184.17Z" stroke="#55B09F" stroke-width="2.18077"/>
<path d="M764.526 180.22L764.523 179.554L763.933 179.253L724.088 158.92L723.544 158.642L723.024 158.965L683.392 183.589L682.872 183.912L682.875 184.526L683.088 229.484L683.091 230.15L683.681 230.451L723.525 250.784L724.069 251.062L724.59 250.739L764.221 226.115L764.741 225.792L764.738 225.178L764.526 180.22Z" fill="#55B09F" stroke="#55B09F" stroke-width="2.18077"/>
<path d="M607.772 321.486L607.769 320.821L607.179 320.519L567.335 300.186L566.79 299.908L566.27 300.231L526.639 324.855L526.118 325.178L526.121 325.793L526.334 370.75L526.337 371.416L526.927 371.717L566.771 392.051L567.315 392.328L567.836 392.005L607.467 367.381L607.987 367.058L607.985 366.444L607.772 321.486Z" fill="#55B09F" stroke="#55B09F" stroke-width="2.18077"/>
<path d="M530.009 326.408L530.006 325.742L529.416 325.441L489.572 305.107L489.028 304.829L488.507 305.153L448.876 329.776L448.356 330.1L448.358 330.714L448.571 375.671L448.574 376.337L449.164 376.638L489.008 396.972L489.553 397.25L490.073 396.926L529.704 372.302L530.225 371.979L530.222 371.365L530.009 326.408Z" stroke="#55B09F" stroke-width="2.18077"/>
<path d="M568.702 256.939L568.699 256.273L568.108 255.972L528.264 235.638L527.72 235.36L527.2 235.684L487.568 260.308L487.048 260.631L487.051 261.245L487.263 306.202L487.267 306.868L487.857 307.169L527.701 327.503L528.245 327.781L528.765 327.457L568.397 302.834L568.917 302.51L568.914 301.896L568.702 256.939Z" stroke="#55B09F" stroke-width="2.18077"/>
</g>
</g>
<defs>
<clipPath id="clip0_1527_30653">
<rect width="1439" height="408" fill="white"/>
</clipPath>
</defs>
</svg>
