<svg width="285" height="269" viewBox="0 0 285 269" fill="none" xmlns="http://www.w3.org/2000/svg">
<g opacity="0.4">
<path d="M112.099 140.953L112.094 141.44L112.523 141.667L136.785 154.502L137.181 154.711L137.566 154.48L162.103 139.73L162.487 139.499L162.492 139.049L162.767 111.464L162.772 110.977L162.343 110.75L138.081 97.9151L137.685 97.7058L137.3 97.937L112.763 112.687L112.379 112.918L112.374 113.368L112.099 140.953Z" stroke="#FBB400" stroke-width="1.59785"/>
<path d="M135.365 180.702L135.361 181.19L135.79 181.417L160.052 194.251L160.447 194.461L160.832 194.229L185.369 179.479L185.754 179.248L185.758 178.798L186.033 151.214L186.038 150.726L185.609 150.499L161.347 137.664L160.951 137.455L160.566 137.686L136.03 152.436L135.645 152.668L135.64 153.118L135.365 180.702Z" stroke="#FBB400" stroke-width="1.59785"/>
<path d="M87.9164 182.564L87.9116 183.052L88.3407 183.279L112.603 196.114L112.998 196.323L113.383 196.092L137.92 181.342L138.305 181.11L138.309 180.661L138.584 153.076L138.589 152.588L138.16 152.361L113.898 139.527L113.502 139.317L113.118 139.549L88.5806 154.299L88.1959 154.53L88.1914 154.98L87.9164 182.564Z" stroke="#FBB400" stroke-width="1.59785"/>
<path d="M111.425 222.717L111.42 223.205L111.849 223.432L136.111 236.266L136.506 236.475L136.891 236.244L161.428 221.494L161.813 221.263L161.817 220.813L162.092 193.229L162.097 192.741L161.668 192.514L137.406 179.679L137.01 179.47L136.626 179.701L112.089 194.451L111.704 194.682L111.699 195.132L111.425 222.717Z" stroke="#FBB400" stroke-width="1.59785"/>
<path d="M63.31 224.434L63.3051 224.922L63.7342 225.149L87.9962 237.983L88.392 238.193L88.7766 237.961L113.314 223.211L113.698 222.98L113.703 222.53L113.978 194.946L113.983 194.458L113.553 194.231L89.2915 181.396L88.8957 181.187L88.5111 181.418L63.9741 196.168L63.5894 196.4L63.585 196.849L63.31 224.434Z" fill="#FBB400" stroke="#FBB400" stroke-width="1.59785"/>
<path d="M38.0919 143.35L38.5134 101.071L76.1211 78.464L113.307 98.1354L112.886 140.414L75.2782 163.021L38.0919 143.35Z" fill="#FBB400"/>
<path d="M160.756 139.177L160.751 139.665L161.181 139.892L185.443 152.726L185.838 152.936L186.223 152.704L210.76 137.954L211.145 137.723L211.149 137.273L211.424 109.689L211.429 109.201L211 108.974L186.738 96.1395L186.342 95.9301L185.957 96.1614L161.42 110.911L161.036 111.143L161.031 111.592L160.756 139.177Z" fill="#FBB400" stroke="#FBB400" stroke-width="1.59785"/>
<path d="M208.51 136.859L208.505 137.347L208.934 137.574L233.196 150.408L233.592 150.618L233.977 150.386L258.514 135.636L258.898 135.405L258.903 134.955L259.178 107.371L259.183 106.883L258.753 106.656L234.491 93.8215L234.096 93.6121L233.711 93.8434L209.174 108.593L208.789 108.825L208.785 109.274L208.51 136.859Z" stroke="#FBB400" stroke-width="1.59785"/>
<path d="M184.145 179.131L184.14 179.619L184.569 179.846L208.831 192.68L209.227 192.89L209.612 192.658L234.149 177.908L234.533 177.677L234.538 177.227L234.813 149.643L234.818 149.155L234.389 148.928L210.127 136.093L209.731 135.884L209.346 136.115L184.809 150.865L184.425 151.097L184.42 151.546L184.145 179.131Z" stroke="#FBB400" stroke-width="1.59785"/>
</g>
</svg>
