<svg width="31" height="32" viewBox="0 0 31 32" fill="none" xmlns="http://www.w3.org/2000/svg">
<g clip-path="url(#clip0_357_13452)">
<path d="M24.632 13.0872C24.8989 13.0872 25.1086 12.8717 25.1086 12.5974V11.755C25.1086 11.0594 25.4898 10.4325 26.0998 10.119L26.7384 9.7468C26.8521 9.68964 26.9391 9.58838 26.9802 9.4653C27.0213 9.34221 27.0132 9.20738 26.9576 9.09047C26.902 8.97356 26.8035 8.88414 26.6837 8.84189C26.5639 8.79964 26.4328 8.80801 26.319 8.86517L25.6709 9.23741C24.7368 9.71741 24.1554 10.6774 24.1554 11.755V12.5974C24.1554 12.8717 24.3651 13.0872 24.632 13.0872ZM6.64676 26.4497H8.04784C9.02001 26.4497 9.80157 25.6367 9.80157 24.6473V21.3559C9.80157 20.9543 9.47751 20.6212 9.08673 20.6212C8.69596 20.6212 8.3719 20.9543 8.3719 21.3559V24.6375C8.3719 24.8236 8.22893 24.9706 8.04784 24.9706H6.64676C6.25599 24.9706 5.93193 25.3036 5.93193 25.7053C5.93193 26.1069 6.25599 26.4497 6.64676 26.4497ZM20.4669 28.3893C20.648 28.3893 20.8291 28.3208 20.972 28.1738C21.105 28.0356 21.1795 27.849 21.1795 27.6546C21.1795 27.4603 21.105 27.2737 20.972 27.1355L20.3525 26.4987C20.0094 26.1461 19.8188 25.6661 19.8188 25.1665V23.3151C19.8188 22.9134 19.4947 22.5804 19.1039 22.5804C18.7132 22.5804 18.3891 22.9134 18.3891 23.3151V25.1665C18.3891 26.0579 18.7322 26.9004 19.3422 27.5371L19.9617 28.1738C20.1047 28.3208 20.2858 28.3893 20.4669 28.3893ZM12.0414 28.1738C11.8984 28.3208 11.7173 28.3893 11.5362 28.3893C11.3551 28.3893 11.174 28.3208 11.0311 28.1738C10.7547 27.8897 10.7547 27.4195 11.0311 27.1355L11.6506 26.4987C11.9937 26.1461 12.1843 25.6661 12.1843 25.1665V23.3151C12.1843 22.9134 12.5084 22.5804 12.8992 22.5804C13.29 22.5804 13.614 22.9134 13.614 23.3151V25.1665C13.614 26.0579 13.2804 26.9004 12.6609 27.5371L12.0414 28.1738ZM3.12025 16.026L1.42371 16.3982C1.1473 16.457 1.1473 16.8586 1.42371 16.9272L3.12025 17.2994L4.07336 16.6529L3.12025 16.026Z" fill="#212121"/>
<path d="M24.1103 20.1785C24.3771 20.1785 24.5868 20.394 24.5868 20.6683V21.5107C24.5868 22.2062 24.9681 22.8332 25.5781 23.1466L26.2166 23.5189C26.3304 23.576 26.4174 23.6773 26.4585 23.8004C26.4996 23.9235 26.4915 24.0583 26.4359 24.1752C26.3803 24.2921 26.2817 24.3815 26.162 24.4238C26.0422 24.466 25.911 24.4577 25.7973 24.4005L25.1492 24.0283C24.2151 23.5483 23.6337 22.5883 23.6337 21.5107V20.6683C23.6337 20.394 23.8434 20.1785 24.1103 20.1785ZM6.12504 6.81594H7.52611C8.49829 6.81594 9.27984 7.629 9.27984 8.61838V11.9098C9.27984 12.3114 8.95578 12.6445 8.565 12.6445C8.17423 12.6445 7.85017 12.3114 7.85017 11.9098V8.62818C7.85017 8.44205 7.7072 8.29512 7.52611 8.29512H6.12504C5.73426 8.29512 5.4102 7.96206 5.4102 7.56043C5.4102 7.15879 5.73426 6.81594 6.12504 6.81594ZM19.9452 4.87635C20.1263 4.87635 20.3073 4.94493 20.4503 5.09187C20.5833 5.23012 20.6578 5.41667 20.6578 5.61105C20.6578 5.80543 20.5833 5.99197 20.4503 6.13023L19.8308 6.76696C19.4877 7.11961 19.297 7.59961 19.297 8.0992V9.95062C19.297 10.3523 18.973 10.6853 18.5822 10.6853C18.1914 10.6853 17.8674 10.3523 17.8674 9.95062V8.0992C17.8674 7.20777 18.2105 6.36533 18.8205 5.7286L19.44 5.09187C19.583 4.94493 19.7641 4.87635 19.9452 4.87635ZM11.5197 5.09187C11.3767 4.94493 11.1956 4.87635 11.0145 4.87635C10.8334 4.87635 10.6523 4.94493 10.5094 5.09187C10.233 5.37595 10.233 5.84615 10.5094 6.13023L11.1289 6.76696C11.472 7.11961 11.6626 7.59961 11.6626 8.0992V9.95062C11.6626 10.3523 11.9867 10.6853 12.3775 10.6853C12.7682 10.6853 13.0923 10.3523 13.0923 9.95062V8.0992C13.0923 7.20777 12.7587 6.36533 12.1392 5.7286L11.5197 5.09187ZM2.59852 17.2397L0.901979 16.8675C0.625576 16.8087 0.625576 16.4071 0.901979 16.3385L2.59852 15.9663L3.55163 16.6128L2.59852 17.2397Z" fill="#212121"/>
<path d="M13.6055 24.4911H11.5944C10.9778 24.4911 10.3725 24.4029 9.79305 24.2364L7.41027 16.6534L9.79305 9.09099C10.3794 8.92226 10.9855 8.8369 11.5944 8.83728H13.6055L15.5117 16.6534L13.6055 24.4911ZM18.3711 8.96071C20.1841 9.3005 21.8159 10.3042 22.9641 11.7858L22.6601 13.2249V20.082L22.9517 21.5582C21.8041 23.0314 20.1774 24.0291 18.3711 24.3677L15.9883 16.6534L18.3711 8.96071ZM6.45716 16.6534L5.02749 13.3453L3.12127 16.0441V17.2852L5.02749 19.983L6.45716 16.6534Z" fill="#FFE04D"/>
<path d="M13.6228 8.83728H17.216C17.6163 8.84708 18.0071 8.89606 18.3883 8.96463V24.3637C18.0071 24.4323 17.6163 24.4813 17.216 24.4911H13.6228V8.83728ZM21.8291 13.1083C21.8291 12.3736 22.4009 11.7858 23.1062 11.776H23.1825C25.794 11.776 27.9004 13.9703 27.9004 16.674C27.9004 19.3776 25.7845 21.5719 23.1825 21.5719H23.1062C22.3914 21.5523 21.8291 20.9646 21.8291 20.2299V13.1083ZM5.94068 12.0503L5.04475 13.3238V19.985L5.94068 21.2585C6.8366 22.7278 8.22815 23.776 9.81032 24.2266V9.08218C8.21862 9.54258 6.8366 10.5809 5.94068 12.0503Z" fill="#231F20"/>
<path d="M15.2899 3.79525C14.8833 3.25262 14.3584 2.8157 13.7575 2.51965C13.1566 2.2236 12.4964 2.0767 11.8301 2.09077C9.55219 2.12995 7.6841 4.04015 7.62691 6.38136C7.61292 6.96796 7.71328 7.55151 7.92207 8.09765C8.13086 8.64378 8.44387 9.14145 8.84266 9.56136C9.24144 9.98126 9.71795 10.3149 10.2441 10.5427C10.7703 10.7704 11.3355 10.8876 11.9064 10.8875H19.1405C19.6647 10.8875 19.9602 10.2703 19.6552 9.83931L15.3662 3.903C15.3471 3.87362 15.3281 3.85403 15.309 3.82464L15.2899 3.79525Z" fill="#C5C5C5"/>
<path d="M15.2899 29.3833C14.8833 29.926 14.3584 30.3629 13.7575 30.6589C13.1566 30.955 12.4964 31.1019 11.8301 31.0878C9.55219 31.0486 7.68409 29.1384 7.62691 26.7972C7.61292 26.2106 7.71328 25.6271 7.92207 25.0809C8.13086 24.5348 8.44387 24.0371 8.84266 23.6172C9.24144 23.1973 9.71795 22.8637 10.2441 22.6359C10.7703 22.4082 11.3355 22.2909 11.9064 22.2911H19.1405C19.6647 22.2911 19.9602 22.9083 19.6552 23.3393L15.3662 29.2756C15.3471 29.305 15.3281 29.3246 15.309 29.354L15.2899 29.3833Z" fill="#C5C5C5"/>
<path d="M24.6228 17.6334C24.37 17.6334 24.1276 17.5302 23.9489 17.3465C23.7701 17.1628 23.6697 16.9136 23.6697 16.6538C23.6697 16.394 23.7701 16.1449 23.9489 15.9612C24.1276 15.7775 24.37 15.6743 24.6228 15.6743C24.8756 15.6743 25.118 15.7775 25.2968 15.9612C25.4755 16.1449 25.5759 16.394 25.5759 16.6538C25.5759 16.9136 25.4755 17.1628 25.2968 17.3465C25.118 17.5302 24.8756 17.6334 24.6228 17.6334Z" fill="#212121"/>
</g>
<defs>
<clipPath id="clip0_357_13452">
<rect width="30.4996" height="31.3468" fill="white" transform="matrix(-1 0 0 1 30.5 0)"/>
</clipPath>
</defs>
</svg>
