<svg width="1440" height="548" viewBox="0 0 1440 548" fill="none" xmlns="http://www.w3.org/2000/svg">
<g opacity="0.6">
<path d="M59.3884 287.198L58.9519 288.263L59.6938 289.135L101.644 338.427L102.328 339.231L103.373 339.06L170 328.163L171.045 327.992L171.447 327.01L196.125 266.82L196.561 265.755L195.819 264.883L153.87 215.591L153.185 214.787L152.141 214.958L85.5131 225.855L84.4686 226.026L84.0661 227.008L59.3884 287.198Z" stroke="#E4F3F0" stroke-width="3.76805"/>
<path d="M75.6652 394.585L75.2288 395.649L75.9707 396.521L117.921 445.814L118.605 446.618L119.649 446.447L186.277 435.549L187.322 435.378L187.724 434.396L212.402 374.206L212.838 373.142L212.096 372.27L170.146 322.977L169.462 322.173L168.418 322.344L101.79 333.242L100.745 333.413L100.343 334.394L75.6652 394.585Z" stroke="#E4F3F0" stroke-width="3.76805"/>
<path d="M-29.908 357.252L-30.3445 358.317L-29.6025 359.189L12.3474 408.481L13.0316 409.285L14.0761 409.114L80.7038 398.217L81.7483 398.046L82.1508 397.064L106.829 336.874L107.265 335.809L106.523 334.937L64.5731 285.645L63.8889 284.841L62.8444 285.012L-3.78327 295.909L-4.82777 296.08L-5.23028 297.062L-29.908 357.252Z" stroke="#E4F3F0" stroke-width="3.76805"/>
<path d="M-13.4529 465.734L-13.8894 466.798L-13.1475 467.67L28.8025 516.963L29.4867 517.767L30.5312 517.596L97.1589 506.698L98.2034 506.527L98.6059 505.545L123.284 445.355L123.72 444.291L122.978 443.419L81.0282 394.126L80.344 393.322L79.2995 393.493L12.6718 404.391L11.6273 404.562L11.2248 405.543L-13.4529 465.734Z" stroke="#E4F3F0" stroke-width="3.76805"/>
<path d="M-120.356 427.503L-120.792 428.568L-120.05 429.44L-78.1004 478.732L-77.4161 479.536L-76.3716 479.365L-9.74397 468.468L-8.69947 468.297L-8.29695 467.315L16.3808 407.125L16.8172 406.06L16.0753 405.188L-25.8746 355.896L-26.5589 355.092L-27.6034 355.263L-94.231 366.16L-95.2755 366.331L-95.678 367.313L-120.356 427.503Z" fill="#E4F3F0" stroke="#E4F3F0" stroke-width="3.76805"/>
<path d="M-104.834 227.857L-67.011 135.604L35.109 118.901L99.4054 194.452L61.5819 286.705L-40.538 303.408L-104.834 227.857Z" fill="#E4F3F0"/>
<path d="M167.534 325.777L167.097 326.841L167.839 327.713L209.789 377.005L210.474 377.809L211.518 377.639L278.146 366.741L279.19 366.57L279.593 365.588L304.27 305.398L304.707 304.333L303.965 303.462L262.015 254.169L261.331 253.365L260.286 253.536L193.659 264.434L192.614 264.605L192.212 265.586L167.534 325.777Z" fill="#E4F3F0" stroke="#E4F3F0" stroke-width="3.76805"/>
<path d="M274.173 362.377L273.736 363.441L274.478 364.313L316.428 413.606L317.112 414.41L318.157 414.239L384.784 403.341L385.829 403.17L386.231 402.189L410.909 341.998L411.346 340.934L410.604 340.062L368.654 290.769L367.969 289.965L366.925 290.136L300.297 301.034L299.253 301.205L298.85 302.187L274.173 362.377Z" stroke="#E4F3F0" stroke-width="3.76805"/>
<path d="M183.902 433.719L183.466 434.784L184.208 435.656L226.157 484.948L226.842 485.752L227.886 485.581L294.514 474.684L295.558 474.513L295.961 473.531L320.639 413.341L321.075 412.276L320.333 411.404L278.383 362.112L277.699 361.308L276.654 361.479L210.027 372.376L208.982 372.547L208.58 373.529L183.902 433.719Z" stroke="#E4F3F0" stroke-width="3.76805"/>
<path d="M1290.75 234.987L1291.29 234.051L1290.76 233.11L1258.58 176.496L1258.04 175.547L1256.95 175.543L1192.08 175.251L1190.99 175.246L1190.44 176.189L1157.76 232.511L1157.22 233.447L1157.75 234.388L1189.93 291.002L1190.47 291.951L1191.56 291.955L1256.43 292.247L1257.52 292.252L1258.07 291.309L1290.75 234.987Z" stroke="#E4F3F0" stroke-width="3.76805"/>
<path d="M1291.87 124.323L1292.42 123.387L1291.88 122.446L1259.7 65.832L1259.16 64.8839L1258.07 64.879L1193.2 64.5872L1192.11 64.5823L1191.57 65.5255L1158.88 121.848L1158.34 122.784L1158.87 123.725L1191.05 180.339L1191.59 181.287L1192.68 181.292L1257.55 181.584L1258.64 181.589L1259.19 180.645L1291.87 124.323Z" stroke="#E4F3F0" stroke-width="3.76805"/>
<path d="M1387.36 67.863L1387.9 66.9271L1387.37 65.9863L1355.19 9.37199L1354.65 8.42388L1353.56 8.41897L1288.69 8.12715L1287.6 8.12224L1287.05 9.06546L1254.37 65.3879L1253.82 66.3239L1254.36 67.2646L1286.54 123.879L1287.08 124.827L1288.17 124.832L1353.04 125.124L1354.13 125.129L1354.67 124.185L1387.36 67.863Z" stroke="#E4F3F0" stroke-width="3.76805"/>
<path d="M1482.84 124.323L1483.39 123.387L1482.85 122.446L1450.67 65.832L1450.13 64.8839L1449.04 64.879L1384.17 64.5872L1383.08 64.5823L1382.54 65.5255L1349.85 121.848L1349.31 122.784L1349.84 123.725L1382.03 180.339L1382.56 181.287L1383.66 181.292L1448.52 181.584L1449.61 181.589L1450.16 180.645L1482.84 124.323Z" fill="#E4F3F0" stroke="#E4F3F0" stroke-width="3.76805"/>
<path d="M1437.25 322.391L1387.15 408.717L1287.73 408.269L1238.41 321.497L1288.5 235.171L1387.92 235.619L1437.25 322.391Z" fill="#E4F3F0"/>
<path d="M1194.14 177.971L1194.68 177.035L1194.15 176.094L1161.97 119.48L1161.43 118.532L1160.34 118.527L1095.47 118.235L1094.38 118.23L1093.83 119.173L1061.15 175.496L1060.6 176.432L1061.14 177.372L1093.32 233.987L1093.86 234.935L1094.95 234.94L1159.82 235.232L1160.91 235.237L1161.45 234.293L1194.14 177.971Z" fill="#E4F3F0" stroke="#E4F3F0" stroke-width="3.76805"/>
<path d="M1098.65 123.193L1099.2 122.257L1098.66 121.317L1066.48 64.7024L1065.94 63.7543L1064.85 63.7494L999.984 63.4575L998.894 63.4526L998.346 64.3958L965.662 120.718L965.119 121.654L965.653 122.595L997.835 179.209L998.374 180.157L999.465 180.162L1064.33 180.454L1065.42 180.459L1065.97 179.516L1098.65 123.193Z" stroke="#E4F3F0" stroke-width="3.76805"/>
<path d="M1195.26 66.7333L1195.8 65.7974L1195.27 64.8566L1163.09 8.24229L1162.55 7.29418L1161.46 7.28927L1096.59 6.99745L1095.5 6.99254L1094.95 7.93576L1062.27 64.2582L1061.73 65.1942L1062.26 66.1349L1094.44 122.749L1094.98 123.697L1096.07 123.702L1160.94 123.994L1162.03 123.999L1162.58 123.056L1195.26 66.7333Z" stroke="#E4F3F0" stroke-width="3.76805"/>
</g>
</svg>
