<svg width="28" height="30" viewBox="0 0 28 30" fill="none" xmlns="http://www.w3.org/2000/svg">
<path d="M4.00033 26.3519H9.00033V16.3519H19.0003V26.3519H24.0003V11.3519L14.0003 3.85193L4.00033 11.3519V26.3519ZM4.00033 29.6853C3.08366 29.6853 2.29921 29.3592 1.64699 28.7069C0.993659 28.0536 0.666992 27.2686 0.666992 26.3519V11.3519C0.666992 10.8242 0.785325 10.3242 1.02199 9.85193C1.25755 9.37971 1.58366 8.99082 2.00033 8.68527L12.0003 1.18527C12.3059 0.963045 12.6253 0.796378 12.9587 0.685267C13.292 0.574156 13.6392 0.5186 14.0003 0.5186C14.3614 0.5186 14.7087 0.574156 15.042 0.685267C15.3753 0.796378 15.6948 0.963045 16.0003 1.18527L26.0003 8.68527C26.417 8.99082 26.7437 9.37971 26.9803 9.85193C27.2159 10.3242 27.3337 10.8242 27.3337 11.3519V26.3519C27.3337 27.2686 27.0075 28.0536 26.3553 28.7069C25.702 29.3592 24.917 29.6853 24.0003 29.6853H15.667V19.6853H12.3337V29.6853H4.00033Z" fill="#05B09F"/>
</svg>
