<svg width="24" height="25" viewBox="0 0 24 25" fill="none" xmlns="http://www.w3.org/2000/svg">
<circle cx="12" cy="12.5" r="12" fill="#6F7D1B"/>
<path d="M15.5592 8.72027C14.757 7.36112 13.6182 6.23159 12.2525 5.44058L12.0096 5.30005L11.7666 5.44058C10.3777 6.24214 9.22436 7.39537 8.4227 8.78424C7.62105 10.1731 7.19932 11.7486 7.19995 13.3522C7.19995 13.4567 7.20177 13.5628 7.20532 13.6676C7.2536 15.0885 7.797 16.2842 8.77678 17.1252C9.52654 17.7689 10.4883 18.1618 11.5245 18.2556V19.9316H12.4949V12.1683H11.5243V17.2789C9.88484 17.089 8.25306 15.9308 8.17509 13.6346C8.17188 13.5408 8.17024 13.4457 8.17024 13.3522C8.17313 11.9676 8.52676 10.6062 9.19813 9.39516C9.86951 8.18413 10.8367 7.16293 12.0096 6.42685C13.1824 7.16294 14.1496 8.18415 14.8209 9.39518C15.4923 10.6062 15.8459 11.9676 15.8487 13.3522C15.8487 13.4457 15.8471 13.5408 15.8439 13.6346C15.7815 15.4715 14.7247 16.5801 13.4651 17.0473V18.0744C14.1187 17.8891 14.7248 17.5654 15.2423 17.1252C16.2221 16.2841 16.7655 15.0885 16.8138 13.6676C16.8173 13.5628 16.8192 13.4567 16.8192 13.3522C16.82 11.7235 16.385 10.1242 15.5592 8.72027Z" fill="white"/>
</svg>
