<svg width="189" height="47" viewBox="0 0 189 47" fill="none" xmlns="http://www.w3.org/2000/svg">
<path d="M1 30.7398C1.82032 30.1388 2.73603 29.5919 3.72169 29.1055" stroke="#E8F0EF" stroke-width="1.4308" stroke-linecap="round" stroke-linejoin="round"/>
<path d="M7.31458 27.6842C14.2555 25.5285 22.9453 25.8497 27.8926 29.6905C32.1246 32.9782 39.4598 40.3166 43.8985 43.1877C50.1654 47.2417 58.5276 45.9762 63.8979 40.1576C67.3191 36.4534 69.23 29.1882 65.7166 25.7384C63.3669 23.43 59.4656 24.3966 57.6532 27.4013C55.8377 30.4027 56.0635 34.7937 57.8249 37.7825C59.5864 40.7681 62.6292 42.3992 65.6657 42.5709C72.4954 42.9588 78.5461 36.676 82.1517 29.5443C83.8846 26.1167 85.2676 22.2853 85.3153 18.2886C85.363 14.2919 83.8464 10.1204 80.9562 8.26991C78.066 6.41942 73.8626 7.67212 72.5017 11.3318C71.2585 14.6703 72.6893 18.7402 75.0549 20.9341C77.4205 23.1279 80.4888 23.8529 83.4553 24.3107C90.9018 25.4586 98.4978 25.3186 105.944 23.8974C118.157 21.5668 130.185 15.8023 142.334 14.699" stroke="#CEE0DE" stroke-width="1.4308" stroke-linecap="round" stroke-linejoin="round"/>
<path d="M144.264 14.5655C145.323 14.5146 146.382 14.5019 147.441 14.5337" stroke="#CEE0DE" stroke-width="1.4308" stroke-linecap="round" stroke-linejoin="round"/>
<path d="M172.512 24.8688C171.327 24.8688 170.095 24.6573 168.53 24.1876C166.994 23.7263 165.618 23.117 164.332 22.3214C162.766 21.3566 161.535 20.1676 160.562 18.6781C160.528 18.6231 160.494 18.568 160.456 18.513C160.354 18.348 160.287 18.2422 160.211 18.1957C159.72 17.8868 159.195 17.7387 158.607 17.7387C158.412 17.7387 158.205 17.7556 157.993 17.7895C157.718 17.836 157.452 17.8402 157.219 17.8487C157.062 17.8529 156.906 17.8571 156.749 17.8741C156.698 17.8825 156.635 17.891 156.576 17.891C156.207 17.891 155.89 17.654 155.784 17.2986C155.742 17.1547 155.653 16.6723 156.182 16.3295C156.648 16.0249 157.164 15.6864 157.765 15.4663C158.412 15.2251 158.941 14.7385 159.373 14.2942C159.512 14.1503 159.601 13.9937 159.635 13.8203C159.923 12.3942 160.558 11.0782 161.556 9.80875C161.45 9.70719 161.349 9.60559 161.256 9.49557C160.6 8.72965 160.401 7.83684 160.718 7.10478C161.01 6.43196 161.717 5.96224 162.563 5.87338C162.665 5.86492 162.766 5.85644 162.868 5.85644C163.096 5.85644 163.321 5.88184 163.528 5.91992C163.621 5.36559 163.782 4.78161 164.129 4.2569C164.628 3.49522 165.5 3.00437 166.346 3.00437C166.596 3.00437 166.841 3.04671 167.07 3.13134C167.73 3.37254 168.234 3.93111 168.517 4.72241C168.928 4.55315 169.321 4.42194 169.706 4.32038C170.311 3.09746 171.213 2.16655 172.393 1.55298C173.464 0.994414 174.581 0.715088 175.711 0.715088C176.388 0.715088 177.077 0.81668 177.763 1.01556C179.43 1.50219 180.704 2.44584 181.546 3.82532C182.401 5.22597 182.642 6.68163 182.261 8.1669C182.557 8.11189 182.866 8.08224 183.179 8.08224C184.855 8.08224 186.378 8.88622 187.161 10.1811C187.91 11.4209 188.003 12.6608 187.441 13.8668C186.704 15.4409 185.388 16.2999 183.526 16.4226C183.501 16.5453 183.476 16.6639 183.446 16.7823C183.378 17.0532 183.319 17.3113 183.357 17.489C183.497 18.1279 183.344 18.7881 182.934 19.2959C182.515 19.8163 181.876 20.1252 181.224 20.1252C181.153 20.1252 181.081 20.1253 181.004 20.1126C179.798 21.4582 178.575 22.5203 177.268 23.3624C175.948 24.2129 174.691 24.6911 173.426 24.8181C173.125 24.8477 172.812 24.8646 172.499 24.8646L172.512 24.8688Z" fill="#CADEDC"/>
<path d="M175.723 1.4641C176.329 1.4641 176.946 1.55297 177.568 1.73493C178.999 2.14962 180.145 2.94092 180.924 4.21885C181.842 5.72105 181.952 7.29094 181.229 8.91163C181.157 9.07243 181.03 9.20362 181 9.40674C181.021 9.41097 181.043 9.41521 181.064 9.41521C181.153 9.41521 181.212 9.37287 181.271 9.33478C181.8 9.00049 182.477 8.83125 183.184 8.83125C184.457 8.83125 185.816 9.38982 186.531 10.5747C187.106 11.531 187.254 12.5296 186.772 13.5663C186.095 15.0178 184.872 15.6398 183.328 15.7033C183.036 15.716 182.875 15.7541 182.837 16.0757C182.773 16.6046 182.519 17.1378 182.638 17.6583C182.845 18.5977 182.079 19.3974 181.229 19.3974C181.148 19.3974 181.064 19.389 180.979 19.3763C180.941 19.3678 180.903 19.3636 180.869 19.3636C180.742 19.3636 180.649 19.4144 180.547 19.5286C179.456 20.7558 178.254 21.8645 176.87 22.7531C175.8 23.4428 174.644 23.9633 173.354 24.0945C173.07 24.1241 172.787 24.1368 172.503 24.1368C171.217 24.1368 169.964 23.8575 168.733 23.4851C167.32 23.062 165.978 22.4823 164.709 21.6994C163.266 20.8108 162.089 19.6936 161.171 18.2845C161.006 18.0306 160.875 17.7556 160.596 17.5779C159.965 17.1844 159.297 17.0108 158.598 17.0108C158.357 17.0108 158.112 17.032 157.866 17.0743C157.46 17.142 157.058 17.1082 156.66 17.1547C156.635 17.1547 156.601 17.1674 156.571 17.1674C156.538 17.1674 156.504 17.1547 156.491 17.1082C156.47 17.032 156.538 16.9939 156.597 16.9601C157.05 16.6638 157.507 16.3676 158.019 16.1772C158.768 15.8979 159.356 15.3902 159.902 14.8274C160.13 14.5947 160.291 14.3111 160.359 13.9853C160.693 12.3392 161.522 10.9428 162.618 9.71563C162.322 9.52945 162.051 9.30518 161.814 9.03436C161.429 8.58582 161.158 7.9638 161.395 7.42216C161.594 6.96516 162.119 6.68588 162.635 6.6351C162.711 6.62664 162.788 6.62239 162.864 6.62239C163.304 6.62239 163.744 6.74512 164.154 6.89746C164.231 6.13578 164.315 5.34444 164.743 4.69278C165.085 4.1723 165.716 3.77457 166.342 3.77457C166.503 3.77457 166.66 3.79993 166.812 3.85494C167.451 4.09191 167.785 4.75203 167.929 5.38676C167.959 5.51794 167.984 5.65333 168.001 5.79297C168.614 5.4883 169.245 5.23018 169.914 5.05669C170.125 5.00168 170.256 4.90861 170.349 4.71396C170.874 3.63068 171.67 2.79284 172.736 2.23851C173.701 1.73495 174.691 1.48104 175.711 1.48104M175.711 0C174.458 0 173.227 0.308926 172.05 0.922502C170.823 1.56147 169.863 2.50087 169.194 3.71955C169.093 3.74917 168.995 3.78302 168.894 3.81687C168.517 3.16944 167.98 2.70394 167.32 2.46274C167.007 2.34849 166.676 2.28929 166.338 2.28929C165.25 2.28929 164.133 2.91132 163.503 3.87612C163.232 4.28658 163.058 4.71819 162.94 5.14135C162.915 5.14135 162.885 5.14135 162.86 5.14135C162.733 5.14135 162.606 5.14978 162.479 5.16248C161.37 5.27673 160.431 5.91572 160.033 6.82974C159.614 7.7903 159.821 8.92011 160.587 9.88067C159.732 11.0867 159.174 12.3434 158.899 13.6933C158.89 13.7314 158.857 13.7695 158.831 13.7991C158.459 14.1842 158.006 14.6031 157.494 14.7935C156.817 15.0432 156.263 15.4071 155.776 15.7245C155.006 16.2196 154.908 17.0024 155.061 17.5229C155.255 18.1999 155.861 18.6527 156.563 18.6527C156.681 18.6527 156.775 18.64 156.851 18.6273C156.961 18.6146 157.088 18.6146 157.227 18.6104C157.486 18.6019 157.777 18.5934 158.103 18.5427C158.273 18.513 158.438 18.5003 158.594 18.5003C159.013 18.5003 159.385 18.5977 159.737 18.805C159.758 18.8389 159.787 18.8854 159.813 18.9235C159.851 18.987 159.889 19.0462 159.927 19.1055C160.964 20.6881 162.271 21.9491 163.93 22.9731C165.276 23.8025 166.706 24.4372 168.306 24.9154C169.947 25.4063 171.242 25.6263 172.503 25.6263C172.838 25.6263 173.176 25.6093 173.502 25.5755C174.886 25.4359 176.248 24.9239 177.67 24.0056C178.948 23.1805 180.145 22.1564 181.322 20.8827C182.164 20.8531 182.976 20.4426 183.51 19.7783C184.055 19.097 184.263 18.2211 184.081 17.3706C184.081 17.3198 184.102 17.2224 184.127 17.1251C186.425 16.7908 187.559 15.3859 188.109 14.2053C188.774 12.7835 188.664 11.2686 187.792 9.82566C186.878 8.31076 185.109 7.36715 183.18 7.36715C183.171 7.36715 183.158 7.36715 183.15 7.36715C183.264 6.03421 182.938 4.71393 182.181 3.46562C181.241 1.92533 179.824 0.871717 177.975 0.334309C177.221 0.114269 176.46 0.00423569 175.715 0.00423569L175.711 0Z" fill="#CADEDC"/>
<path d="M162.262 19.3549C163.481 20.7598 165.047 21.7373 166.752 22.482C167.907 22.9856 169.071 23.4934 170.298 23.7727C171.525 24.052 172.761 23.9165 173.988 23.6457C176.057 23.1887 177.974 22.0631 179.379 20.4763C179.603 20.2224 179.84 19.9727 180.06 19.7146C180.229 19.5157 180.585 19.2957 180.78 19.118C181.122 19.3592 181.622 19.2449 181.922 18.9529C182.223 18.6609 182.362 18.2462 182.447 17.8358C182.531 17.4253 182.252 17.5904 182.405 17.2011C183.027 15.5761 183.33 15.2307 183.5 13.5C183.321 14.343 183.05 12.2459 183 12.157C182.949 12.0682 183.084 11.945 183 12C181.569 10.5867 180.458 9.03414 178.85 7.82391C178.076 7.23996 178.388 9.3893 177.5 9C176.611 8.6107 175.435 9.22916 174.5 9.49998C172.756 10.0035 169.934 6.00434 168.174 6.44442C166.849 6.77448 165.411 7.29073 164.78 8.50095C164.15 9.71118 162.499 10.1513 161.678 11.2769C160.769 12.5252 160.371 14.0824 160.261 15.6269C160.21 16.3421 160.561 17.0106 160.934 17.6242C161.306 18.2378 161.793 18.8133 162.262 19.3549Z" fill="#FDFDFD"/>
<path d="M161.822 9.0173C161.437 8.56876 161.167 7.94674 161.403 7.4051C161.602 6.9481 162.127 6.66882 162.643 6.61804C163.16 6.56726 163.68 6.70267 164.167 6.8804C164.243 6.11872 164.327 5.32743 164.755 4.67577C165.182 4.02411 166.071 3.56283 166.824 3.83788C167.463 4.07485 167.797 4.73497 167.941 5.3697C168.331 7.06656 167.874 9.27121 167.065 10.8284C166.181 10.7226 165.318 10.4349 164.429 10.3164C163.413 10.181 162.474 9.77898 161.822 9.0173Z" fill="#FDFDFD"/>
<path d="M181.004 9.40669C181.034 9.20357 181.161 9.07238 181.233 8.91158C181.956 7.29089 181.846 5.721 180.928 4.2188C180.15 2.94087 178.999 2.14957 177.573 1.73488C175.897 1.24825 174.285 1.42175 172.749 2.22152C171.682 2.77585 170.887 3.61369 170.362 4.69697C170.269 4.89162 170.138 4.98474 169.926 5.03975C169.012 5.27671 168.166 5.67446 167.341 6.12723C165.627 7.06664 164.023 8.16684 162.699 9.61827C161.56 10.8666 160.706 12.2884 160.363 13.9768C160.295 14.3026 160.13 14.5861 159.906 14.8189C159.36 15.3817 158.772 15.8894 158.023 16.1687C157.507 16.3591 157.054 16.6553 156.601 16.9515C156.546 16.9896 156.474 17.0235 156.495 17.0997C156.521 17.1843 156.605 17.1547 156.664 17.1462C157.066 17.0997 157.468 17.1335 157.87 17.0658C158.827 16.9092 159.754 17.0447 160.6 17.5736C160.883 17.7513 161.01 18.0264 161.175 18.2802C162.098 19.6894 163.27 20.8065 164.713 21.6951C165.982 22.478 167.324 23.0577 168.737 23.4808C170.239 23.9336 171.771 24.251 173.358 24.0902C174.649 23.959 175.8 23.4385 176.874 22.7488C178.258 21.8559 179.464 20.7515 180.552 19.5244C180.679 19.3805 180.797 19.3382 180.979 19.372C181.923 19.5497 182.866 18.6865 182.638 17.6582C182.524 17.1377 182.777 16.6046 182.837 16.0756C182.875 15.754 183.036 15.7159 183.327 15.7032C184.872 15.6398 186.091 15.0177 186.772 13.5663C187.254 12.5338 187.106 11.5352 186.531 10.5746C185.418 8.73388 182.748 8.40802 181.271 9.33473C181.199 9.38128 181.127 9.43631 181 9.41093L181.004 9.40669ZM182.579 14.5565C182.579 14.6242 182.574 14.6877 182.57 14.7554C182.54 15.352 182.473 15.9444 182.359 16.5284C182.308 16.7992 182.24 17.07 182.172 17.3366C182.151 17.4213 182.062 17.6582 182.126 17.7302C182.248 17.8656 182.354 18.0095 182.278 18.1999C182.109 18.6103 181.804 18.8811 181.373 18.9785C180.911 19.0843 180.759 18.7119 180.564 18.4157C180.547 18.3988 180.526 18.3776 180.509 18.3607C180.484 18.3353 180.459 18.3099 180.433 18.2845C180.145 18.0644 179.858 17.8487 179.532 17.6879C178.097 16.9685 176.591 16.9727 175.063 17.2605C174.446 17.3747 173.832 17.4636 173.218 17.2689C172.973 17.1885 172.694 17.1462 172.609 16.8289C172.588 16.7569 172.499 16.7781 172.435 16.7865C172.008 17.8614 172.042 18.843 173.134 19.4989C173.206 19.5201 173.278 19.5455 173.354 19.5624C174.132 19.7317 174.776 19.5413 175.093 18.7288C175.199 18.458 175.249 18.1787 175.233 17.891C175.224 17.709 175.288 17.5863 175.474 17.5651C176.65 17.434 177.826 17.3832 178.948 17.8613C179.422 18.0644 179.896 18.2803 180.209 18.7246C180.209 18.733 180.222 18.7457 180.217 18.7542C180.213 18.7711 180.2 18.788 180.192 18.805V18.7838C180.509 18.9362 180.53 19.0123 180.306 19.2408C180.078 19.4778 179.841 19.7063 179.608 19.939C178.398 21.1493 177.086 22.2241 175.554 23.0154C175.288 23.1508 175.042 23.2058 174.801 22.9773C174.458 22.8546 174.221 22.588 173.963 22.351C173.003 21.4454 172.351 20.3241 171.771 19.1604C170.578 16.7654 169.753 14.2349 169.122 11.641C168.864 10.5746 168.589 9.504 168.644 8.38687C168.682 7.67174 168.889 7.02858 169.495 6.57157C169.596 6.4954 169.681 6.35996 169.829 6.43189C169.905 6.46998 169.85 6.57154 169.837 6.64347C169.842 6.67732 169.854 6.70699 169.854 6.74084C169.863 8.47155 170.574 9.88912 171.932 10.9174C173.798 12.3307 175.876 12.5931 178.08 11.8145C179.045 11.4759 179.832 10.8666 180.526 10.1261C180.619 9.89335 180.729 9.89334 180.907 10.0668C181.068 10.2234 181.169 10.4138 181.305 10.5831C181.736 11.1289 182.105 11.7341 182.333 12.3942C182.574 13.0882 182.6 13.8287 182.574 14.5607L182.579 14.5565ZM162.445 11.0993C162.424 12.1953 162.483 13.2913 162.61 14.3788C162.779 15.8725 163.16 17.3155 163.655 18.7288C163.884 19.3805 164.133 20.0279 164.374 20.6753C164.417 20.798 164.628 20.9038 164.476 21.035C164.366 21.1281 164.29 20.9292 164.188 20.8784C164.112 20.8403 164.053 20.7726 163.981 20.7176C163.05 20.0871 162.331 19.2451 161.675 18.348C161.247 17.7598 160.93 17.1039 160.765 16.3888C160.498 15.242 160.629 14.1122 161.027 13.0205C161.285 12.3096 161.628 11.6282 162.102 11.0316C162.195 10.8793 162.284 10.727 162.479 10.5915C162.466 10.7904 162.453 10.9427 162.445 11.0993ZM166.334 7.2359C166.439 7.17666 166.541 7.12166 166.685 7.04126C166.651 7.24015 166.626 7.38404 166.604 7.53214C166.604 7.621 166.621 7.70986 166.613 7.79449C166.473 9.31785 166.672 10.8243 166.901 12.3265C167.057 13.3463 167.188 14.3745 167.447 15.3732C167.908 17.1631 168.695 18.8177 169.706 20.3707C170.409 21.4497 171.17 22.478 172.042 23.4258C172.076 23.5274 172.266 23.5401 172.215 23.6628C172.165 23.7855 172.012 23.7474 171.898 23.7432C171.758 23.7771 171.648 23.6798 171.517 23.6671C170.756 23.6036 170.024 23.4132 169.283 23.2397C169.046 23.1847 168.885 23.0662 168.741 22.8588C168.399 22.368 168.179 21.8136 167.903 21.2889C166.858 19.2874 166.177 17.1504 165.673 14.9585C165.161 12.72 165.178 10.4646 165.487 8.19647C165.563 7.62944 165.906 7.43056 166.338 7.24437L166.334 7.2359ZM181.275 6.60117C181.292 7.07933 181.275 7.54905 181.136 7.98913C180.459 10.1007 178.965 11.294 176.824 11.7002C175.414 11.9668 174.073 11.7171 172.833 11.002C172.012 10.5281 171.373 9.88486 170.895 9.03855C170.332 8.04413 170.15 7.01587 170.383 5.92836C170.768 4.11303 171.966 2.95359 173.633 2.28924C175.448 1.56564 177.234 1.75183 178.893 2.76317C180.323 3.63064 181.127 4.92971 181.275 6.6054V6.60117ZM183.074 9.17817C183.971 9.16971 184.682 9.38553 185.342 9.82985C186.446 10.5704 186.975 12.0302 186.556 13.1516C186.048 14.5057 185.016 15.1574 183.636 15.3266C182.947 15.4113 182.942 15.3817 182.972 14.675C182.972 14.6073 182.981 14.5438 182.985 14.4761C183.04 13.7102 182.993 12.9358 182.718 12.2334C182.397 11.4167 182.003 10.6127 181.368 9.96947C181.246 9.84252 181.279 9.72828 181.423 9.66057C181.973 9.39822 182.532 9.14008 183.074 9.17817Z" fill="#CADEDC"/>
<path fill-rule="evenodd" clip-rule="evenodd" d="M178.889 2.75894C180.315 3.62641 181.123 4.92548 181.271 6.60118V6.59694C181.288 7.07511 181.271 7.54482 181.131 7.9849C180.454 10.0964 178.961 11.2898 176.819 11.696C175.415 11.9626 174.069 11.7129 172.829 10.9978C172.008 10.5238 171.369 9.88063 170.891 9.03432C170.332 8.03991 170.146 7.01165 170.379 5.92414C170.764 4.1088 171.962 2.94936 173.629 2.28501C175.44 1.56141 177.23 1.7476 178.889 2.75894ZM176.263 4.81713C176.424 4.82755 176.591 4.8383 176.769 4.78164C176.262 4.28001 175.585 4.01499 174.906 3.9787C173.744 3.91485 172.575 4.51996 172.24 5.75461C172.004 6.63478 172.317 7.36685 172.985 7.93387C173.457 8.33413 174.04 8.54122 174.632 8.56567C175.444 8.60089 176.271 8.29247 176.845 7.66754C177.082 7.40941 177.331 6.83392 177.331 6.50809C177.33 6.50923 177.328 6.51036 177.327 6.51149C177.327 6.51027 177.327 6.50906 177.327 6.50784C176.989 6.75334 176.635 6.86327 176.266 6.84662C176.115 6.83932 175.96 6.8109 175.804 6.76198C175.321 6.60964 174.987 6.23304 174.932 5.86489C174.856 5.39096 175.52 4.86625 175.956 4.81547C176.057 4.80388 176.159 4.81044 176.263 4.81713Z" fill="#FDFDFD"/>
<path fill-rule="evenodd" clip-rule="evenodd" d="M181.419 9.66032C181.969 9.39373 182.527 9.1356 183.069 9.17792C183.962 9.16945 184.673 9.38528 185.337 9.82959C186.442 10.5743 186.971 12.03 186.552 13.1514C186.044 14.5055 185.007 15.1571 183.632 15.3264C182.942 15.411 182.938 15.3814 182.967 14.6748L182.98 14.4758C183.035 13.7099 182.989 12.9356 182.714 12.2331C182.396 11.4164 181.998 10.6124 181.364 9.96922C181.237 9.84227 181.271 9.73226 181.419 9.66032ZM186.204 12.2434C186.201 12.2454 186.197 12.2474 186.194 12.2494C186.195 12.2475 186.195 12.2455 186.195 12.2435C186.198 12.2415 186.201 12.2395 186.205 12.2374H186.196C186.196 12.2395 186.195 12.2415 186.195 12.2435C185.979 12.3836 185.782 12.4664 185.588 12.4695C185.456 12.4706 185.326 12.435 185.193 12.3558C184.956 12.2162 184.791 12.0258 184.855 11.7423C184.918 11.4503 185.138 11.2895 185.426 11.2176C185.431 11.216 185.437 11.2147 185.442 11.2138C185.464 11.212 185.488 11.2131 185.512 11.2143C185.555 11.2164 185.598 11.2186 185.628 11.203C185.653 11.1931 185.67 11.1739 185.676 11.1371C185.688 11.0396 185.609 11.0185 185.53 10.9973C185.495 10.9882 185.461 10.979 185.434 10.9637C185.054 10.7448 184.638 10.7558 184.288 10.8893C183.963 11.0104 183.694 11.2354 183.56 11.48C183.28 11.992 183.386 12.6394 183.678 12.9822C183.996 13.353 184.398 13.5375 184.807 13.533C184.988 13.5322 185.172 13.4939 185.35 13.4179C185.843 13.2071 186.118 12.8449 186.204 12.2434Z" fill="#FDFDFD"/>
</svg>
