<svg width="296" height="36" viewBox="0 0 296 36" fill="none" xmlns="http://www.w3.org/2000/svg">
<path d="M17.338 17.812C17.338 16.996 17.526 16.264 17.902 15.616C18.286 14.968 18.802 14.464 19.45 14.104C20.106 13.736 20.822 13.552 21.598 13.552C22.486 13.552 23.274 13.772 23.962 14.212C24.658 14.644 25.162 15.26 25.474 16.06H23.83C23.614 15.62 23.314 15.292 22.93 15.076C22.546 14.86 22.102 14.752 21.598 14.752C21.046 14.752 20.554 14.876 20.122 15.124C19.69 15.372 19.35 15.728 19.102 16.192C18.862 16.656 18.742 17.196 18.742 17.812C18.742 18.428 18.862 18.968 19.102 19.432C19.35 19.896 19.69 20.256 20.122 20.512C20.554 20.76 21.046 20.884 21.598 20.884C22.102 20.884 22.546 20.776 22.93 20.56C23.314 20.344 23.614 20.016 23.83 19.576H25.474C25.162 20.376 24.658 20.992 23.962 21.424C23.274 21.856 22.486 22.072 21.598 22.072C20.814 22.072 20.098 21.892 19.45 21.532C18.802 21.164 18.286 20.656 17.902 20.008C17.526 19.36 17.338 18.628 17.338 17.812ZM28.4433 16.348C28.6433 16.012 28.9073 15.752 29.2353 15.568C29.5713 15.376 29.9673 15.28 30.4233 15.28V16.696H30.0753C29.5393 16.696 29.1313 16.832 28.8513 17.104C28.5793 17.376 28.4433 17.848 28.4433 18.52V22H27.0753V15.388H28.4433V16.348ZM37.7408 18.532C37.7408 18.78 37.7248 19.004 37.6928 19.204H32.6408C32.6808 19.732 32.8768 20.156 33.2288 20.476C33.5808 20.796 34.0128 20.956 34.5248 20.956C35.2608 20.956 35.7808 20.648 36.0848 20.032H37.5608C37.3608 20.64 36.9968 21.14 36.4688 21.532C35.9488 21.916 35.3008 22.108 34.5248 22.108C33.8928 22.108 33.3248 21.968 32.8208 21.688C32.3248 21.4 31.9328 21 31.6448 20.488C31.3648 19.968 31.2248 19.368 31.2248 18.688C31.2248 18.008 31.3608 17.412 31.6328 16.9C31.9128 16.38 32.3008 15.98 32.7968 15.7C33.3008 15.42 33.8768 15.28 34.5248 15.28C35.1488 15.28 35.7048 15.416 36.1928 15.688C36.6808 15.96 37.0608 16.344 37.3328 16.84C37.6048 17.328 37.7408 17.892 37.7408 18.532ZM36.3128 18.1C36.3048 17.596 36.1248 17.192 35.7728 16.888C35.4208 16.584 34.9848 16.432 34.4648 16.432C33.9928 16.432 33.5888 16.584 33.2528 16.888C32.9168 17.184 32.7168 17.588 32.6528 18.1H36.3128ZM38.631 18.664C38.631 18 38.767 17.412 39.039 16.9C39.319 16.388 39.695 15.992 40.167 15.712C40.647 15.424 41.179 15.28 41.763 15.28C42.195 15.28 42.619 15.376 43.035 15.568C43.459 15.752 43.795 16 44.043 16.312V13.12H45.423V22H44.043V21.004C43.819 21.324 43.507 21.588 43.107 21.796C42.715 22.004 42.263 22.108 41.751 22.108C41.175 22.108 40.647 21.964 40.167 21.676C39.695 21.38 39.319 20.972 39.039 20.452C38.767 19.924 38.631 19.328 38.631 18.664ZM44.043 18.688C44.043 18.232 43.947 17.836 43.755 17.5C43.571 17.164 43.327 16.908 43.023 16.732C42.719 16.556 42.391 16.468 42.039 16.468C41.687 16.468 41.359 16.556 41.055 16.732C40.751 16.9 40.503 17.152 40.311 17.488C40.127 17.816 40.035 18.208 40.035 18.664C40.035 19.12 40.127 19.52 40.311 19.864C40.503 20.208 40.751 20.472 41.055 20.656C41.367 20.832 41.695 20.92 42.039 20.92C42.391 20.92 42.719 20.832 43.023 20.656C43.327 20.48 43.571 20.224 43.755 19.888C43.947 19.544 44.043 19.144 44.043 18.688ZM47.9158 14.512C47.6678 14.512 47.4598 14.428 47.2918 14.26C47.1238 14.092 47.0398 13.884 47.0398 13.636C47.0398 13.388 47.1238 13.18 47.2918 13.012C47.4598 12.844 47.6678 12.76 47.9158 12.76C48.1558 12.76 48.3598 12.844 48.5278 13.012C48.6958 13.18 48.7798 13.388 48.7798 13.636C48.7798 13.884 48.6958 14.092 48.5278 14.26C48.3598 14.428 48.1558 14.512 47.9158 14.512ZM48.5878 15.388V22H47.2198V15.388H48.5878ZM51.9799 16.504V20.164C51.9799 20.412 52.0359 20.592 52.1479 20.704C52.2679 20.808 52.4679 20.86 52.7479 20.86H53.5879V22H52.5079C51.8919 22 51.4199 21.856 51.0919 21.568C50.7639 21.28 50.5999 20.812 50.5999 20.164V16.504H49.8199V15.388H50.5999V13.744H51.9799V15.388H53.5879V16.504H51.9799ZM57.5099 17.812C57.5099 16.996 57.6979 16.264 58.0739 15.616C58.4579 14.968 58.9739 14.464 59.6219 14.104C60.2779 13.736 60.9939 13.552 61.7699 13.552C62.6579 13.552 63.4459 13.772 64.1339 14.212C64.8299 14.644 65.3339 15.26 65.6459 16.06H64.0019C63.7859 15.62 63.4859 15.292 63.1019 15.076C62.7179 14.86 62.2739 14.752 61.7699 14.752C61.2179 14.752 60.7259 14.876 60.2939 15.124C59.8619 15.372 59.5219 15.728 59.2739 16.192C59.0339 16.656 58.9139 17.196 58.9139 17.812C58.9139 18.428 59.0339 18.968 59.2739 19.432C59.5219 19.896 59.8619 20.256 60.2939 20.512C60.7259 20.76 61.2179 20.884 61.7699 20.884C62.2739 20.884 62.7179 20.776 63.1019 20.56C63.4859 20.344 63.7859 20.016 64.0019 19.576H65.6459C65.3339 20.376 64.8299 20.992 64.1339 21.424C63.4459 21.856 62.6579 22.072 61.7699 22.072C60.9859 22.072 60.2699 21.892 59.6219 21.532C58.9739 21.164 58.4579 20.656 58.0739 20.008C57.6979 19.36 57.5099 18.628 57.5099 17.812ZM66.7912 18.664C66.7912 18 66.9272 17.412 67.1992 16.9C67.4792 16.388 67.8552 15.992 68.3272 15.712C68.8072 15.424 69.3352 15.28 69.9112 15.28C70.4312 15.28 70.8832 15.384 71.2672 15.592C71.6592 15.792 71.9712 16.044 72.2032 16.348V15.388H73.5832V22H72.2032V21.016C71.9712 21.328 71.6552 21.588 71.2552 21.796C70.8552 22.004 70.3992 22.108 69.8872 22.108C69.3192 22.108 68.7992 21.964 68.3272 21.676C67.8552 21.38 67.4792 20.972 67.1992 20.452C66.9272 19.924 66.7912 19.328 66.7912 18.664ZM72.2032 18.688C72.2032 18.232 72.1072 17.836 71.9152 17.5C71.7312 17.164 71.4872 16.908 71.1832 16.732C70.8792 16.556 70.5512 16.468 70.1992 16.468C69.8472 16.468 69.5192 16.556 69.2152 16.732C68.9112 16.9 68.6632 17.152 68.4712 17.488C68.2872 17.816 68.1952 18.208 68.1952 18.664C68.1952 19.12 68.2872 19.52 68.4712 19.864C68.6632 20.208 68.9112 20.472 69.2152 20.656C69.5272 20.832 69.8552 20.92 70.1992 20.92C70.5512 20.92 70.8792 20.832 71.1832 20.656C71.4872 20.48 71.7312 20.224 71.9152 19.888C72.1072 19.544 72.2032 19.144 72.2032 18.688ZM76.748 16.348C76.948 16.012 77.212 15.752 77.54 15.568C77.876 15.376 78.272 15.28 78.728 15.28V16.696H78.38C77.844 16.696 77.436 16.832 77.156 17.104C76.884 17.376 76.748 17.848 76.748 18.52V22H75.38V15.388H76.748V16.348ZM79.5294 18.664C79.5294 18 79.6654 17.412 79.9374 16.9C80.2174 16.388 80.5934 15.992 81.0654 15.712C81.5454 15.424 82.0774 15.28 82.6614 15.28C83.0934 15.28 83.5174 15.376 83.9334 15.568C84.3574 15.752 84.6934 16 84.9414 16.312V13.12H86.3214V22H84.9414V21.004C84.7174 21.324 84.4054 21.588 84.0054 21.796C83.6134 22.004 83.1614 22.108 82.6494 22.108C82.0734 22.108 81.5454 21.964 81.0654 21.676C80.5934 21.38 80.2174 20.972 79.9374 20.452C79.6654 19.924 79.5294 19.328 79.5294 18.664ZM84.9414 18.688C84.9414 18.232 84.8454 17.836 84.6534 17.5C84.4694 17.164 84.2254 16.908 83.9214 16.732C83.6174 16.556 83.2894 16.468 82.9374 16.468C82.5854 16.468 82.2574 16.556 81.9534 16.732C81.6494 16.9 81.4014 17.152 81.2094 17.488C81.0254 17.816 80.9334 18.208 80.9334 18.664C80.9334 19.12 81.0254 19.52 81.2094 19.864C81.4014 20.208 81.6494 20.472 81.9534 20.656C82.2654 20.832 82.5934 20.92 82.9374 20.92C83.2894 20.92 83.6174 20.832 83.9214 20.656C84.2254 20.48 84.4694 20.224 84.6534 19.888C84.8454 19.544 84.9414 19.144 84.9414 18.688Z" fill="#606060"/>
<path d="M269.556 9.25C267.826 9.25 266.134 9.76318 264.695 10.7246C263.256 11.6861 262.134 13.0527 261.472 14.6515C260.81 16.2504 260.637 18.0097 260.974 19.707C261.312 21.4044 262.145 22.9635 263.369 24.1872C264.593 25.4109 266.152 26.2442 267.849 26.5819C269.546 26.9195 271.306 26.7462 272.905 26.0839C274.503 25.4217 275.87 24.3002 276.832 22.8612C277.793 21.4223 278.306 19.7306 278.306 18C278.306 15.6794 277.384 13.4538 275.743 11.8128C274.102 10.1719 271.877 9.25 269.556 9.25ZM269.556 25.5C268.073 25.5 266.623 25.0601 265.389 24.236C264.156 23.4119 263.195 22.2406 262.627 20.8701C262.059 19.4997 261.911 17.9917 262.2 16.5368C262.49 15.082 263.204 13.7456 264.253 12.6967C265.302 11.6478 266.638 10.9335 268.093 10.6441C269.548 10.3547 271.056 10.5032 272.426 11.0709C273.797 11.6386 274.968 12.5999 275.792 13.8332C276.616 15.0666 277.056 16.5166 277.056 18C277.056 19.9891 276.266 21.8968 274.859 23.3033C273.453 24.7098 271.545 25.5 269.556 25.5Z" fill="#027FEE"/>
<rect x="1.05615" y="0.5" width="294" height="35" rx="7.5" stroke="#F5F5F5"/>
</svg>
