<svg width="1439" height="408" viewBox="0 0 1439 408" fill="none" xmlns="http://www.w3.org/2000/svg">
<g clip-path="url(#clip0_1549_30690)">
<path d="M181.607 132.947L181.826 133.875L182.747 134.105L234.808 147.107L235.657 147.319L236.279 146.7L275.947 107.215L276.569 106.596L276.367 105.74L263.973 53.2526L263.754 52.3243L262.833 52.0943L210.773 39.0926L209.923 38.8805L209.302 39.4995L169.634 78.9847L169.012 79.6037L169.214 80.4598L181.607 132.947Z" stroke="#C1B8FA" stroke-width="3.1238"/>
<path d="M244.378 197.503L244.597 198.431L245.518 198.661L297.578 211.663L298.428 211.875L299.049 211.256L338.717 171.77L339.339 171.151L339.137 170.295L326.744 117.808L326.525 116.88L325.604 116.65L273.543 103.648L272.694 103.436L272.072 104.055L232.404 143.541L231.782 144.16L231.984 145.016L244.378 197.503Z" stroke="#C1B8FA" stroke-width="3.1238"/>
<path d="M155.188 223.253L155.407 224.181L156.328 224.411L208.389 237.413L209.238 237.625L209.86 237.006L249.528 197.521L250.15 196.902L249.948 196.045L237.555 143.559L237.335 142.63L236.415 142.4L184.354 129.399L183.504 129.186L182.883 129.805L143.215 169.291L142.593 169.91L142.795 170.766L155.188 223.253Z" stroke="#C1B8FA" stroke-width="3.1238"/>
<path d="M218.607 288.46L218.826 289.388L219.747 289.618L271.808 302.62L272.657 302.832L273.279 302.213L312.947 262.728L313.569 262.109L313.367 261.253L300.973 208.766L300.754 207.838L299.833 207.608L247.773 194.606L246.923 194.394L246.302 195.013L206.634 234.498L206.012 235.117L206.214 235.973L218.607 288.46Z" stroke="#C1B8FA" stroke-width="3.1238"/>
<path d="M128.086 314.246L128.305 315.175L129.226 315.404L181.286 328.406L182.136 328.618L182.757 327.999L222.425 288.514L223.047 287.895L222.845 287.039L210.452 234.552L210.233 233.624L209.312 233.394L157.251 220.392L156.402 220.18L155.78 220.799L116.112 260.284L115.49 260.903L115.692 261.759L128.086 314.246Z" fill="#C1B8FA" stroke="#C1B8FA" stroke-width="3.1238"/>
<path d="M42.2565 172.147L23.2616 91.7006L84.0604 31.1818L163.854 51.1095L182.849 131.556L122.05 192.075L42.2565 172.147Z" fill="#C1B8FA"/>
<path d="M273.132 106.795L273.352 107.724L274.272 107.954L326.333 120.955L327.183 121.167L327.804 120.548L367.472 81.0632L368.094 80.4442L367.892 79.5881L355.499 27.1011L355.28 26.1728L354.359 25.9429L302.298 12.9412L301.449 12.7291L300.827 13.3481L261.159 52.8333L260.537 53.4523L260.739 54.3084L273.132 106.795Z" fill="#C1B8FA" stroke="#C1B8FA" stroke-width="3.1238"/>
<path d="M362.687 80.0375L362.906 80.9658L363.827 81.1958L415.888 94.1975L416.737 94.4095L417.359 93.7906L457.027 54.3053L457.649 53.6864L457.447 52.8302L445.054 0.343322L444.834 -0.584982L443.914 -0.814932L391.853 -13.8167L391.003 -14.0287L390.382 -13.4097L350.714 26.0755L350.092 26.6945L350.294 27.5506L362.687 80.0375Z" stroke="#C1B8FA" stroke-width="3.1238"/>
<path d="M336.232 171.681L336.451 172.61L337.372 172.84L389.433 185.841L390.282 186.053L390.904 185.434L430.572 145.949L431.194 145.33L430.992 144.474L418.598 91.9873L418.379 91.059L417.458 90.829L365.398 77.8273L364.548 77.6152L363.927 78.2342L324.259 117.719L323.637 118.338L323.839 119.195L336.232 171.681Z" stroke="#C1B8FA" stroke-width="3.1238"/>
<path d="M1268.11 142.947L1268.33 143.875L1269.25 144.105L1321.31 157.107L1322.16 157.319L1322.78 156.7L1362.45 117.215L1363.07 116.596L1362.87 115.74L1350.48 63.2526L1350.26 62.3243L1349.34 62.0944L1297.27 49.0927L1296.43 48.8806L1295.8 49.4996L1256.14 88.9848L1255.51 89.6038L1255.72 90.4599L1268.11 142.947Z" stroke="#C1B8FA" stroke-width="3.1238"/>
<path d="M1330.88 207.503L1331.1 208.431L1332.02 208.661L1384.08 221.663L1384.93 221.875L1385.55 221.256L1425.22 181.771L1425.84 181.152L1425.64 180.296L1413.25 127.809L1413.03 126.88L1412.11 126.65L1360.05 113.649L1359.2 113.437L1358.57 114.056L1318.91 153.541L1318.28 154.16L1318.49 155.016L1330.88 207.503Z" stroke="#C1B8FA" stroke-width="3.1238"/>
<path d="M1241.69 233.253L1241.91 234.181L1242.83 234.411L1294.89 247.413L1295.74 247.625L1296.36 247.006L1336.03 207.521L1336.65 206.902L1336.45 206.045L1324.06 153.559L1323.84 152.63L1322.92 152.4L1270.86 139.399L1270.01 139.187L1269.38 139.806L1229.72 179.291L1229.09 179.91L1229.3 180.766L1241.69 233.253Z" stroke="#C1B8FA" stroke-width="3.1238"/>
<path d="M1305.11 298.46L1305.33 299.389L1306.25 299.619L1358.31 312.62L1359.16 312.832L1359.78 312.213L1399.45 272.728L1400.07 272.109L1399.87 271.253L1387.48 218.766L1387.26 217.838L1386.34 217.608L1334.28 204.606L1333.43 204.394L1332.8 205.013L1293.14 244.498L1292.51 245.117L1292.72 245.973L1305.11 298.46Z" stroke="#C1B8FA" stroke-width="3.1238"/>
<path d="M1214.59 324.246L1214.81 325.175L1215.73 325.405L1267.79 338.406L1268.64 338.618L1269.26 337.999L1308.93 298.514L1309.55 297.895L1309.35 297.039L1296.95 244.552L1296.73 243.624L1295.81 243.394L1243.75 230.392L1242.9 230.18L1242.28 230.799L1202.61 270.284L1201.99 270.903L1202.19 271.759L1214.59 324.246Z" fill="#C1B8FA" stroke="#C1B8FA" stroke-width="3.1238"/>
<path d="M1128.76 182.147L1109.76 101.701L1170.56 41.1818L1250.36 61.1095L1269.35 141.556L1208.55 202.075L1128.76 182.147Z" fill="#C1B8FA"/>
<path d="M1359.63 116.795L1359.85 117.724L1360.77 117.954L1412.84 130.955L1413.68 131.167L1414.31 130.548L1453.97 91.0632L1454.6 90.4442L1454.39 89.5881L1442 37.1012L1441.78 36.1729L1440.86 35.943L1388.8 22.9412L1387.95 22.7292L1387.33 23.3482L1347.66 62.8334L1347.04 63.4524L1347.24 64.3085L1359.63 116.795Z" fill="#C1B8FA" stroke="#C1B8FA" stroke-width="3.1238"/>
<path d="M1449.19 90.0375L1449.41 90.9658L1450.33 91.1958L1502.39 104.198L1503.24 104.41L1503.86 103.791L1543.53 64.3054L1544.15 63.6864L1543.95 62.8303L1531.56 10.3434L1531.34 9.41505L1530.42 9.1851L1478.35 -3.81663L1477.51 -4.02869L1476.88 -3.4097L1437.22 36.0755L1436.59 36.6945L1436.8 37.5506L1449.19 90.0375Z" stroke="#C1B8FA" stroke-width="3.1238"/>
<path d="M1422.73 181.682L1422.95 182.61L1423.87 182.84L1475.93 195.842L1476.78 196.054L1477.41 195.435L1517.07 155.949L1517.7 155.33L1517.49 154.474L1505.1 101.987L1504.88 101.059L1503.96 100.829L1451.9 87.8274L1451.05 87.6154L1450.43 88.2344L1410.76 127.72L1410.14 128.339L1410.34 129.195L1422.73 181.682Z" stroke="#C1B8FA" stroke-width="3.1238"/>
<path d="M788.401 326.45L788.397 325.745L787.773 325.426L745.6 303.904L745.024 303.61L744.474 303.953L702.526 330.015L701.976 330.357L701.979 331.007L702.204 378.592L702.207 379.297L702.832 379.615L745.004 401.137L745.58 401.431L746.131 401.089L788.078 375.026L788.629 374.684L788.626 374.034L788.401 326.45Z" stroke="#C1B8FA" stroke-width="2.3082"/>
<path d="M747.263 258.48L747.26 257.775L746.635 257.456L704.463 235.934L703.887 235.64L703.336 235.983L661.389 262.045L660.838 262.387L660.841 263.037L661.066 310.622L661.069 311.327L661.694 311.646L703.866 333.167L704.442 333.461L704.993 333.119L746.941 307.056L747.491 306.714L747.488 306.064L747.263 258.48Z" stroke="#C1B8FA" stroke-width="2.3082"/>
<path d="M829.056 254.065L829.053 253.36L828.428 253.041L786.256 231.519L785.68 231.225L785.129 231.568L743.182 257.63L742.631 257.973L742.634 258.622L742.859 306.207L742.862 306.912L743.487 307.231L785.659 328.752L786.235 329.046L786.786 328.704L828.733 302.641L829.284 302.299L829.281 301.649L829.056 254.065Z" stroke="#C1B8FA" stroke-width="2.3082"/>
<path d="M787.491 185.406L787.487 184.701L786.863 184.382L744.69 162.86L744.114 162.566L743.564 162.909L701.616 188.971L701.066 189.313L701.069 189.963L701.294 237.548L701.297 238.253L701.922 238.572L744.094 260.093L744.67 260.387L745.221 260.045L787.168 233.982L787.719 233.64L787.716 232.99L787.491 185.406Z" stroke="#C1B8FA" stroke-width="2.3082"/>
<path d="M870.435 181.225L870.432 180.52L869.807 180.201L827.635 158.679L827.059 158.385L826.508 158.727L784.561 184.79L784.01 185.132L784.013 185.782L784.238 233.367L784.241 234.072L784.866 234.39L827.038 255.912L827.614 256.206L828.165 255.864L870.112 229.801L870.663 229.459L870.66 228.809L870.435 181.225Z" fill="#C1B8FA" stroke="#C1B8FA" stroke-width="2.3082"/>
<path d="M916.211 320.437L916.556 393.37L852.263 433.316L787.626 400.33L787.281 327.397L851.573 287.451L916.211 320.437Z" fill="#C1B8FA"/>
<path d="M704.522 330.746L704.519 330.041L703.894 329.722L661.722 308.2L661.146 307.906L660.595 308.249L618.647 334.311L618.097 334.654L618.1 335.303L618.325 382.888L618.328 383.593L618.953 383.912L661.125 405.433L661.701 405.727L662.252 405.385L704.199 379.322L704.75 378.98L704.747 378.33L704.522 330.746Z" fill="#C1B8FA" stroke="#C1B8FA" stroke-width="2.3082"/>
<path d="M622.214 335.955L622.211 335.25L621.586 334.931L579.414 313.409L578.838 313.115L578.287 313.457L536.34 339.52L535.789 339.862L535.792 340.512L536.017 388.097L536.021 388.802L536.645 389.12L578.818 410.642L579.394 410.936L579.944 410.594L621.892 384.531L622.442 384.189L622.439 383.539L622.214 335.955Z" stroke="#C1B8FA" stroke-width="2.3082"/>
<path d="M663.169 262.426L663.166 261.722L662.541 261.403L620.369 239.881L619.793 239.587L619.242 239.929L577.295 265.992L576.744 266.334L576.747 266.984L576.972 314.569L576.976 315.273L577.6 315.592L619.773 337.114L620.349 337.408L620.899 337.066L662.847 311.003L663.397 310.661L663.394 310.011L663.169 262.426Z" stroke="#C1B8FA" stroke-width="2.3082"/>
</g>
<defs>
<clipPath id="clip0_1549_30690">
<rect width="1439" height="408" fill="white"/>
</clipPath>
</defs>
</svg>
