<svg width="350" height="195" viewBox="0 0 350 195" fill="none" xmlns="http://www.w3.org/2000/svg">
<mask id="mask0_648_19142" style="mask-type:alpha" maskUnits="userSpaceOnUse" x="0" y="0" width="350" height="195">
<rect width="350" height="195" rx="24" fill="#C4C4C4"/>
</mask>
<g mask="url(#mask0_648_19142)">
<path d="M288.561 158.889L288.559 158.401L288.126 158.18L263.678 145.703L263.28 145.5L262.898 145.737L238.581 160.846L238.2 161.083L238.202 161.533L238.332 189.118L238.335 189.606L238.767 189.827L263.215 202.303L263.614 202.507L263.995 202.27L288.312 187.161L288.694 186.924L288.692 186.474L288.561 158.889Z" stroke="#8CD4CA" stroke-width="1.59785"/>
<path d="M264.713 119.485L264.711 118.997L264.279 118.777L239.831 106.3L239.432 106.097L239.051 106.334L214.733 121.443L214.352 121.679L214.354 122.129L214.484 149.715L214.487 150.203L214.919 150.423L239.367 162.9L239.766 163.103L240.147 162.867L264.465 147.758L264.846 147.521L264.844 147.071L264.713 119.485Z" stroke="#8CD4CA" stroke-width="1.59785"/>
<path d="M312.13 116.926L312.127 116.438L311.695 116.217L287.247 103.741L286.848 103.537L286.467 103.774L262.149 118.883L261.768 119.12L261.77 119.57L261.901 147.155L261.903 147.643L262.335 147.864L286.783 160.34L287.182 160.544L287.563 160.307L311.881 145.198L312.262 144.961L312.26 144.511L312.13 116.926Z" stroke="#8CD4CA" stroke-width="1.59785"/>
<path d="M288.034 77.1231L288.032 76.6352L287.599 76.4146L263.151 63.938L262.753 63.7345L262.371 63.9714L238.054 79.0804L237.673 79.3172L237.675 79.7672L237.805 107.353L237.807 107.841L238.24 108.061L262.688 120.538L263.087 120.741L263.468 120.504L287.785 105.395L288.167 105.159L288.164 104.709L288.034 77.1231Z" stroke="#8CD4CA" stroke-width="1.59785"/>
<path d="M336.118 74.6992L336.116 74.2113L335.683 73.9906L311.235 61.5141L310.837 61.3106L310.455 61.5475L286.138 76.6565L285.757 76.8933L285.759 77.3433L285.889 104.929L285.892 105.417L286.324 105.637L310.772 118.114L311.171 118.317L311.552 118.08L335.869 102.971L336.251 102.735L336.249 102.285L336.118 74.6992Z" fill="#8CD4CA" stroke="#8CD4CA" stroke-width="1.59785"/>
<path d="M362.525 155.404L362.725 197.684L325.454 220.842L287.982 201.719L287.782 159.439L325.054 136.281L362.525 155.404Z" fill="#8CD4CA"/>
<path d="M239.935 161.379L239.933 160.891L239.501 160.67L215.053 148.194L214.654 147.99L214.273 148.227L189.955 163.336L189.574 163.573L189.576 164.023L189.706 191.609L189.709 192.096L190.141 192.317L214.589 204.794L214.988 204.997L215.369 204.76L239.687 189.651L240.068 189.414L240.066 188.964L239.935 161.379Z" fill="#8CD4CA" stroke="#8CD4CA" stroke-width="1.59785"/>
<path d="M192.221 164.399L192.219 163.911L191.786 163.69L167.338 151.214L166.94 151.01L166.558 151.247L142.241 166.356L141.86 166.593L141.862 167.043L141.992 194.628L141.994 195.116L142.427 195.337L166.875 207.813L167.274 208.017L167.655 207.78L191.972 192.671L192.354 192.434L192.351 191.984L192.221 164.399Z" stroke="#8CD4CA" stroke-width="1.59785"/>
<path d="M215.962 121.773L215.959 121.285L215.527 121.065L191.079 108.588L190.68 108.385L190.299 108.621L165.982 123.73L165.6 123.967L165.602 124.417L165.733 152.003L165.735 152.491L166.168 152.711L190.616 165.188L191.014 165.391L191.396 165.154L215.713 150.045L216.094 149.809L216.092 149.359L215.962 121.773Z" stroke="#8CD4CA" stroke-width="1.59785"/>
</g>
</svg>
