<svg width="390" height="637" viewBox="0 0 390 637" fill="none" xmlns="http://www.w3.org/2000/svg">
<g opacity="0.6">
<path d="M-13.7315 242.997L-13.6152 243.597L-13.032 243.768L19.938 253.426L20.4758 253.583L20.8895 253.203L47.2829 228.965L47.6967 228.585L47.5894 228.032L41.0127 194.135L40.8964 193.536L40.3132 193.365L7.34317 183.707L6.8054 183.55L6.39164 183.93L-20.0017 208.168L-20.4155 208.548L-20.3082 209.101L-13.7315 242.997Z" stroke="#D8E9E7" stroke-width="2"/>
<path d="M24.7628 285.911L24.8791 286.511L25.4622 286.682L58.4323 296.34L58.9701 296.497L59.3838 296.117L85.7772 271.879L86.1909 271.499L86.0836 270.946L79.5069 237.049L79.3906 236.45L78.8075 236.279L45.8374 226.621L45.2997 226.464L44.8859 226.844L18.4926 251.082L18.0788 251.462L18.1861 252.015L24.7628 285.911Z" stroke="#D8E9E7" stroke-width="2"/>
<path d="M-32.9579 300.088L-32.8416 300.688L-32.2585 300.858L0.711581 310.516L1.24935 310.674L1.66311 310.294L28.0565 286.056L28.4702 285.676L28.3629 285.123L21.7862 251.226L21.6699 250.627L21.0868 250.456L-11.8833 240.798L-12.421 240.64L-12.8348 241.02L-39.2282 265.259L-39.6419 265.639L-39.5346 266.192L-32.9579 300.088Z" stroke="#D8E9E7" stroke-width="2"/>
<path d="M5.93466 343.436L6.05097 344.036L6.63409 344.206L39.6042 353.865L40.1419 354.022L40.5557 353.642L66.949 329.404L67.3628 329.024L67.2555 328.471L60.6788 294.574L60.5625 293.975L59.9794 293.804L27.0093 284.146L26.4715 283.988L26.0578 284.368L-0.335572 308.607L-0.749331 308.987L-0.642059 309.54L5.93466 343.436Z" stroke="#D8E9E7" stroke-width="2"/>
<path d="M-52.6377 357.602L-52.5214 358.201L-51.9383 358.372L-18.9682 368.03L-18.4305 368.188L-18.0167 367.808L8.37665 343.569L8.79041 343.189L8.68314 342.636L2.10642 308.74L1.9901 308.14L1.40698 307.97L-31.5631 298.312L-32.1009 298.154L-32.5146 298.534L-58.908 322.772L-59.3217 323.152L-59.2144 323.705L-52.6377 357.602Z" fill="#D8E9E7" fill-opacity="0.4" stroke="#D8E9E7" stroke-width="2"/>
<path d="M-103.888 264.487L-113.968 212.534L-73.5152 175.383L-22.9822 190.186L-12.9021 242.139L-53.355 279.289L-103.888 264.487Z" fill="#D8E9E7" fill-opacity="0.4"/>
<path d="M45.4934 228.624L45.6097 229.224L46.1928 229.394L79.1629 239.053L79.7006 239.21L80.1144 238.83L106.508 214.592L106.922 214.212L106.814 213.659L100.238 179.762L100.121 179.163L99.5381 178.992L66.568 169.334L66.0303 169.176L65.6165 169.556L39.2231 193.795L38.8094 194.175L38.9167 194.728L45.4934 228.624Z" fill="#D8E9E7" fill-opacity="0.4" stroke="#D8E9E7" stroke-width="2"/>
<path d="M103.474 213.812L103.59 214.412L104.173 214.582L137.143 224.241L137.681 224.398L138.095 224.018L164.488 199.78L164.902 199.4L164.794 198.847L158.218 164.95L158.101 164.351L157.518 164.18L124.548 154.522L124.01 154.364L123.597 154.744L97.2034 178.983L96.7896 179.363L96.8969 179.916L103.474 213.812Z" stroke="#D8E9E7" stroke-width="2"/>
<path d="M84.1905 271.758L84.3068 272.358L84.89 272.529L117.86 282.187L118.398 282.344L118.812 281.964L145.205 257.726L145.619 257.346L145.511 256.793L138.935 222.897L138.818 222.297L138.235 222.126L105.265 212.468L104.727 212.311L104.314 212.691L77.9203 236.929L77.5065 237.309L77.6138 237.862L84.1905 271.758Z" stroke="#D8E9E7" stroke-width="2"/>
<path d="M346.84 124.726L347.128 124.229L346.844 123.73L329.763 93.6799L329.477 93.1766L328.898 93.174L294.468 93.0191L293.889 93.0165L293.599 93.5172L276.25 123.412L275.962 123.909L276.246 124.408L293.327 154.458L293.614 154.961L294.192 154.964L328.622 155.118L329.201 155.121L329.491 154.62L346.84 124.726Z" stroke="#D8E9E7" stroke-width="2"/>
<path d="M347.435 65.9878L347.724 65.4911L347.44 64.9917L330.358 34.9421L330.072 34.4388L329.494 34.4362L295.064 34.2813L294.485 34.2787L294.194 34.7794L276.846 64.6741L276.558 65.1709L276.842 65.6702L293.923 95.7199L294.209 96.2231L294.788 96.2257L329.218 96.3806L329.797 96.3832L330.087 95.8826L347.435 65.9878Z" stroke="#D8E9E7" stroke-width="2"/>
<path d="M398.117 36.0201L398.405 35.5233L398.122 35.024L381.04 4.9743L380.754 4.47106L380.175 4.46846L345.745 4.31357L345.167 4.31096L344.876 4.81161L327.528 34.7064L327.24 35.2031L327.523 35.7025L344.605 65.7521L344.891 66.2554L345.47 66.258L379.899 66.4128L380.478 66.4155L380.769 65.9148L398.117 36.0201Z" stroke="#D8E9E7" stroke-width="2"/>
<path d="M448.799 65.9878L449.087 65.4911L448.803 64.9917L431.722 34.9421L431.436 34.4388L430.857 34.4362L396.427 34.2813L395.848 34.2787L395.558 34.7794L378.209 64.6741L377.921 65.1709L378.205 65.6702L395.286 95.7199L395.572 96.2231L396.151 96.2257L430.581 96.3806L431.16 96.3832L431.45 95.8826L448.799 65.9878Z" fill="#D8E9E7" fill-opacity="0.4" stroke="#D8E9E7" stroke-width="2"/>
<path d="M424.598 171.118L398.008 216.938L345.238 216.7L319.057 170.643L345.647 124.824L398.417 125.061L424.598 171.118Z" fill="#D8E9E7" fill-opacity="0.4"/>
<path d="M295.56 94.4629L295.849 93.9662L295.565 93.4668L278.483 63.4172L278.197 62.9139L277.619 62.9113L243.189 62.7564L242.61 62.7538L242.319 63.2545L224.971 93.1492L224.683 93.646L224.967 94.1453L242.048 124.195L242.334 124.698L242.913 124.701L277.343 124.856L277.922 124.858L278.212 124.358L295.56 94.4629Z" fill="#D8E9E7" fill-opacity="0.4" stroke="#D8E9E7" stroke-width="2"/>
<path d="M244.879 65.3882L245.167 64.8915L244.883 64.3921L227.802 34.3425L227.516 33.8392L226.937 33.8366L192.507 33.6817L191.928 33.6791L191.638 34.1798L174.29 64.0745L174.001 64.5713L174.285 65.0706L191.367 95.1203L191.653 95.6235L192.231 95.6261L226.661 95.781L227.24 95.7836L227.53 95.283L244.879 65.3882Z" stroke="#D8E9E7" stroke-width="2"/>
<path d="M296.156 35.4204L296.444 34.9237L296.161 34.4243L279.079 4.37469L278.793 3.87145L278.214 3.86885L243.785 3.71396L243.206 3.71135L242.915 4.212L225.567 34.1068L225.279 34.6035L225.562 35.1029L242.644 65.1525L242.93 65.6557L243.509 65.6583L277.938 65.8132L278.517 65.8158L278.808 65.3152L296.156 35.4204Z" stroke="#D8E9E7" stroke-width="2"/>
<path d="M59.1695 480.872L58.878 481.366L59.1586 481.868L80.0045 519.096L80.2873 519.602L80.8661 519.608L123.363 520.075L123.942 520.082L124.236 519.583L145.887 482.821L146.178 482.327L145.898 481.825L125.052 444.597L124.769 444.092L124.19 444.085L81.6932 443.618L81.1144 443.611L80.8207 444.11L59.1695 480.872Z" stroke="#D8E9E7" stroke-width="2"/>
<path d="M57.9665 553.37L57.675 553.864L57.9556 554.366L78.8015 591.594L79.0843 592.099L79.6631 592.106L122.16 592.573L122.739 592.58L123.033 592.081L144.684 555.319L144.975 554.825L144.695 554.323L123.849 517.095L123.566 516.589L122.987 516.583L80.4902 516.116L79.9114 516.109L79.6177 516.608L57.9665 553.37Z" stroke="#D8E9E7" stroke-width="2"/>
<path d="M-3.62351 516.716L-3.91498 517.211L-3.63435 517.712L17.2115 554.941L17.4943 555.446L18.0731 555.453L60.5702 555.92L61.149 555.926L61.4427 555.428L83.094 518.666L83.3854 518.171L83.1048 517.67L62.2589 480.441L61.9761 479.936L61.3973 479.93L18.9002 479.463L18.3214 479.456L18.0277 479.955L-3.62351 516.716Z" stroke="#D8E9E7" stroke-width="2"/>
<path d="M-4.83054 589.955L-5.12201 590.449L-4.84139 590.951L16.0045 628.179L16.2873 628.685L16.8661 628.691L59.3632 629.158L59.942 629.165L60.2357 628.666L81.8869 591.904L82.1784 591.41L81.8978 590.908L61.0519 553.68L60.7691 553.175L60.1903 553.168L17.6932 552.701L17.1144 552.694L16.8207 553.193L-4.83054 589.955Z" stroke="#D8E9E7" stroke-width="2"/>
<path d="M-67.1528 552.557L-67.4443 553.052L-67.1637 553.553L-46.3178 590.781L-46.035 591.287L-45.4562 591.293L-2.95911 591.76L-2.38029 591.767L-2.08655 591.268L19.5647 554.507L19.8561 554.012L19.5755 553.51L-1.27036 516.282L-1.55318 515.777L-2.13199 515.77L-44.6291 515.303L-45.2079 515.296L-45.5016 515.795L-67.1528 552.557Z" fill="#D8E9E7" fill-opacity="0.5" stroke="#D8E9E7" stroke-width="2"/>
<path d="M-36.8273 439.433L-12.04 397.347L36.6126 397.882L60.4778 440.503L35.6906 482.589L-12.962 482.054L-36.8273 439.433Z" fill="#D8E9E7" fill-opacity="0.5"/>
<path d="M122.224 518.638L121.933 519.133L122.213 519.634L143.059 556.863L143.342 557.368L143.921 557.374L186.418 557.842L186.997 557.848L187.29 557.349L208.942 520.588L209.233 520.093L208.952 519.592L188.107 482.363L187.824 481.858L187.245 481.852L144.748 481.384L144.169 481.378L143.875 481.877L122.224 518.638Z" fill="#D8E9E7" fill-opacity="0.5" stroke="#D8E9E7" stroke-width="2"/>
<path d="M184.552 554.932L184.261 555.427L184.542 555.928L205.387 593.157L205.67 593.662L206.249 593.668L248.746 594.136L249.325 594.142L249.619 593.643L271.27 556.882L271.561 556.387L271.281 555.886L250.435 518.657L250.152 518.152L249.573 518.146L207.076 517.678L206.497 517.672L206.204 518.171L184.552 554.932Z" stroke="#D8E9E7" stroke-width="2"/>
<path d="M121.019 591.512L120.728 592.007L121.008 592.508L141.854 629.737L142.137 630.242L142.716 630.248L185.213 630.715L185.792 630.722L186.085 630.223L207.737 593.462L208.028 592.967L207.747 592.466L186.902 555.237L186.619 554.732L186.04 554.725L143.543 554.258L142.964 554.252L142.67 554.75L121.019 591.512Z" stroke="#D8E9E7" stroke-width="2"/>
</g>
</svg>
