<svg width="149" height="41" viewBox="0 0 149 41" fill="none" xmlns="http://www.w3.org/2000/svg">
<path d="M1 24.7397C1.82032 24.1388 2.73603 23.5919 3.72169 23.1054" stroke="#E8F0EF" stroke-width="1.4308" stroke-linecap="round" stroke-linejoin="round"/>
<path d="M7.3147 21.6842C14.2557 19.5285 22.9454 19.8497 27.8928 23.6905C32.1247 26.9782 39.46 34.3166 43.8986 37.1877C50.1655 41.2417 58.5277 39.9762 63.898 34.1576C67.3192 30.4534 69.2301 23.1882 65.7167 19.7384C63.367 17.43 59.4657 18.3966 57.6534 21.4013C55.8378 24.4027 56.0636 28.7937 57.8251 31.7825C59.5865 34.7681 62.6293 36.3992 65.6658 36.5709C72.4955 36.9588 78.5462 30.676 82.1518 23.5443C83.8847 20.1167 85.2678 16.2853 85.3155 12.2886C85.3631 8.29195 83.8465 4.12041 80.9563 2.26991C78.0661 0.419416 73.8627 1.67212 72.5018 5.33179C71.2586 8.67031 72.6895 12.7402 75.055 14.9341C77.4206 17.1279 80.4889 17.8529 83.4554 18.3107C90.9019 19.4586 98.4979 19.3186 105.944 17.8974C118.157 15.5668 130.185 9.80226 142.334 8.69896" stroke="#CEE0DE" stroke-width="1.4308" stroke-linecap="round" stroke-linejoin="round"/>
<path d="M144.264 8.56542C145.323 8.51455 146.382 8.50184 147.441 8.53363" stroke="#CEE0DE" stroke-width="1.4308" stroke-linecap="round" stroke-linejoin="round"/>
</svg>
