<svg width="29" height="29" viewBox="0 0 29 29" fill="none" xmlns="http://www.w3.org/2000/svg">
<path d="M14.6072 18.2079C15.5622 18.2079 16.478 17.8286 17.1533 17.1533C17.8285 16.4781 18.2079 15.5622 18.2079 14.6073C18.2079 13.6523 17.8285 12.7365 17.1533 12.0612C16.478 11.386 15.5622 11.0066 14.6072 11.0066C13.6523 11.0066 12.7364 11.386 12.0612 12.0612C11.3859 12.7365 11.0066 13.6523 11.0066 14.6073C11.0066 15.5622 11.3859 16.4781 12.0612 17.1533C12.7364 17.8286 13.6523 18.2079 14.6072 18.2079ZM15.8075 11.0066C15.8075 11.0066 17.0077 8.6062 17.0077 6.20577C17.0077 3.80534 14.6072 1.40491 14.6072 1.40491C14.6072 1.40491 12.2068 3.80534 12.2068 6.20577C12.2068 8.6062 13.407 11.0066 13.407 11.0066" fill="#FFE04D"/>
<path d="M15.8075 11.0066C15.8075 11.0066 17.0077 8.6062 17.0077 6.20577C17.0077 3.80534 14.6072 1.40491 14.6072 1.40491C14.6072 1.40491 12.2068 3.80534 12.2068 6.20577C12.2068 8.6062 13.407 11.0066 13.407 11.0066M14.6072 18.2079C15.5622 18.2079 16.478 17.8286 17.1533 17.1533C17.8285 16.4781 18.2079 15.5622 18.2079 14.6073C18.2079 13.6523 17.8285 12.7365 17.1533 12.0612C16.478 11.386 15.5622 11.0066 14.6072 11.0066C13.6523 11.0066 12.7364 11.386 12.0612 12.0612C11.3859 12.7365 11.0066 13.6523 11.0066 14.6073C11.0066 15.5622 11.3859 16.4781 12.0612 17.1533C12.7364 17.8286 13.6523 18.2079 14.6072 18.2079V18.2079Z" stroke="black" stroke-width="1.27082" stroke-miterlimit="1.5" stroke-linecap="round" stroke-linejoin="round"/>
<path d="M11.006 13.4071C11.006 13.4071 8.60559 12.2069 6.20516 12.2069C3.80473 12.2069 1.4043 14.6073 1.4043 14.6073C1.4043 14.6073 3.80473 17.0077 6.20516 17.0077C8.60559 17.0077 11.006 15.8075 11.006 15.8075M15.8069 18.208C15.8069 18.208 17.0071 20.6084 17.0071 23.0088C17.0071 25.4093 14.6067 27.8097 14.6067 27.8097C14.6067 27.8097 12.2062 25.4093 12.2062 23.0088C12.2062 20.6084 13.4065 18.208 13.4065 18.208M18.2073 13.4071C18.2073 13.4071 20.6077 12.2069 23.0082 12.2069C25.4086 12.2069 27.809 14.6073 27.809 14.6073C27.809 14.6073 25.4086 17.0077 23.0082 17.0077C20.6077 17.0077 18.2073 15.8075 18.2073 15.8075M12.9096 11.2131C12.9096 11.2131 12.061 8.66624 10.3627 6.96914C8.6656 5.27203 5.27139 5.27203 5.27139 5.27203C5.27139 5.27203 5.27139 8.66624 6.9685 10.3645C8.6656 12.0617 11.2125 12.9102 11.2125 12.9102M11.2125 16.3044C11.2125 16.3044 8.6656 17.153 6.9685 18.8513C5.27139 20.5484 5.27139 23.9426 5.27139 23.9426C5.27139 23.9426 8.6656 23.9426 10.3627 22.2455C12.061 20.5484 12.9096 18.0015 12.9096 18.0015M18.0021 16.3044C18.0021 16.3044 20.5465 17.153 22.2448 18.8513C23.9419 20.5484 23.9419 23.9426 23.9419 23.9426C23.9419 23.9426 20.5477 23.9426 18.8506 22.2455C17.1523 20.5484 16.3038 18.0015 16.3038 18.0015M16.3038 11.2131C16.3038 11.2131 17.1523 8.66624 18.8506 6.96914C20.5477 5.27203 23.9419 5.27203 23.9419 5.27203C23.9419 5.27203 23.9419 8.66624 22.2448 10.3645C20.5477 12.0617 18.0009 12.9102 18.0009 12.9102" fill="#FFE04D"/>
<path d="M11.006 13.4071C11.006 13.4071 8.60559 12.2069 6.20516 12.2069C3.80473 12.2069 1.4043 14.6073 1.4043 14.6073C1.4043 14.6073 3.80473 17.0077 6.20516 17.0077C8.60559 17.0077 11.006 15.8075 11.006 15.8075M15.8069 18.208C15.8069 18.208 17.0071 20.6084 17.0071 23.0088C17.0071 25.4093 14.6067 27.8097 14.6067 27.8097C14.6067 27.8097 12.2062 25.4093 12.2062 23.0088C12.2062 20.6084 13.4065 18.208 13.4065 18.208M18.2073 13.4071C18.2073 13.4071 20.6077 12.2069 23.0082 12.2069C25.4086 12.2069 27.809 14.6073 27.809 14.6073C27.809 14.6073 25.4086 17.0077 23.0082 17.0077C20.6077 17.0077 18.2073 15.8075 18.2073 15.8075M12.9096 11.2131C12.9096 11.2131 12.061 8.66624 10.3627 6.96914C8.6656 5.27203 5.27139 5.27203 5.27139 5.27203C5.27139 5.27203 5.27139 8.66624 6.9685 10.3645C8.6656 12.0617 11.2125 12.9102 11.2125 12.9102M11.2125 16.3044C11.2125 16.3044 8.6656 17.153 6.9685 18.8513C5.27139 20.5484 5.27139 23.9426 5.27139 23.9426C5.27139 23.9426 8.6656 23.9426 10.3627 22.2455C12.061 20.5484 12.9096 18.0015 12.9096 18.0015M18.0021 16.3044C18.0021 16.3044 20.5465 17.153 22.2448 18.8513C23.9419 20.5484 23.9419 23.9426 23.9419 23.9426C23.9419 23.9426 20.5477 23.9426 18.8506 22.2455C17.1523 20.5484 16.3038 18.0015 16.3038 18.0015M16.3038 11.2131C16.3038 11.2131 17.1523 8.66624 18.8506 6.96914C20.5477 5.27203 23.9419 5.27203 23.9419 5.27203C23.9419 5.27203 23.9419 8.66624 22.2448 10.3645C20.5477 12.0617 18.0009 12.9102 18.0009 12.9102" stroke="black" stroke-width="1.27082" stroke-miterlimit="1.5" stroke-linecap="round" stroke-linejoin="round"/>
</svg>
