<svg width="22" height="29" viewBox="0 0 22 29" fill="none" xmlns="http://www.w3.org/2000/svg">
<path d="M20.5003 28.3522C20.0989 28.3522 19.7627 28.2162 19.4917 27.9442C19.2197 27.6731 19.0837 27.3369 19.0837 26.9355V17.0188H17.667C16.8878 17.0188 16.221 16.7412 15.6667 16.1858C15.1113 15.6315 14.8337 14.9647 14.8337 14.1855V7.10218C14.8337 5.14246 15.5245 3.47221 16.9062 2.09143C18.287 0.709706 19.9573 0.0188446 21.917 0.0188446V26.9355C21.917 27.3369 21.781 27.6731 21.509 27.9442C21.2379 28.2162 20.9017 28.3522 20.5003 28.3522ZM6.33366 28.3522C5.93227 28.3522 5.59558 28.2162 5.32358 27.9442C5.05252 27.6731 4.91699 27.3369 4.91699 26.9355V15.3897C3.71283 15.0591 2.70369 14.398 1.88958 13.4063C1.07452 12.4147 0.666992 11.2577 0.666992 9.93551V1.43551C0.666992 1.03412 0.80252 0.697428 1.07358 0.425428C1.34558 0.154372 1.68227 0.0188446 2.08366 0.0188446C2.48505 0.0188446 2.82174 0.154372 3.09374 0.425428C3.3648 0.697428 3.50033 1.03412 3.50033 1.43551V9.93551H4.91699V1.43551C4.91699 1.03412 5.05252 0.697428 5.32358 0.425428C5.59558 0.154372 5.93227 0.0188446 6.33366 0.0188446C6.73505 0.0188446 7.07174 0.154372 7.34374 0.425428C7.6148 0.697428 7.75033 1.03412 7.75033 1.43551V9.93551H9.16699V1.43551C9.16699 1.03412 9.30299 0.697428 9.57499 0.425428C9.84605 0.154372 10.1823 0.0188446 10.5837 0.0188446C10.985 0.0188446 11.3217 0.154372 11.5937 0.425428C11.8648 0.697428 12.0003 1.03412 12.0003 1.43551V9.93551C12.0003 11.2577 11.5928 12.4147 10.7777 13.4063C9.96363 14.398 8.95449 15.0591 7.75033 15.3897V26.9355C7.75033 27.3369 7.6148 27.6731 7.34374 27.9442C7.07174 28.2162 6.73505 28.3522 6.33366 28.3522Z" fill="#979797"/>
</svg>
