<svg width="63" height="65" viewBox="0 0 63 65" fill="none" xmlns="http://www.w3.org/2000/svg">
<circle cx="31.3427" cy="33.3427" r="30.3427" fill="#6AC2B5" stroke="white" stroke-width="2"/>
<path d="M43.0307 39.5377H24.129L25.0781 37.551L40.847 37.5216C41.3802 37.5216 41.8373 37.1302 41.9325 36.5886L44.1163 24.0257C44.1734 23.6962 44.0877 23.3569 43.8782 23.0992C43.7747 22.9724 43.6455 22.8702 43.4997 22.7998C43.354 22.7294 43.195 22.6924 43.0339 22.6914L22.9737 22.6229L22.8023 21.7943C22.6944 21.2658 22.2309 20.8809 21.704 20.8809H16.8001C16.5029 20.8809 16.2179 21.0022 16.0078 21.2181C15.7977 21.4341 15.6796 21.727 15.6796 22.0324C15.6796 22.3379 15.7977 22.6308 16.0078 22.8467C16.2179 23.0627 16.5029 23.184 16.8001 23.184H20.7963L21.5453 26.8443L23.3895 36.021L21.0153 40.0042C20.892 40.1752 20.8177 40.3783 20.8009 40.5905C20.7841 40.8026 20.8253 41.0154 20.92 41.2047C21.1105 41.5929 21.4946 41.8376 21.9199 41.8376H23.9132C23.4883 42.4177 23.2587 43.1243 23.2593 43.8504C23.2593 45.6968 24.7194 47.1975 26.516 47.1975C28.3125 47.1975 29.7726 45.6968 29.7726 43.8504C29.7726 43.1229 29.5377 42.415 29.1187 41.8376H34.2322C33.8072 42.4177 33.5777 43.1243 33.5783 43.8504C33.5783 45.6968 35.0384 47.1975 36.8349 47.1975C38.6315 47.1975 40.0915 45.6968 40.0915 43.8504C40.0915 43.1229 39.8567 42.415 39.4377 41.8376H43.0339C43.6497 41.8376 44.1544 41.3222 44.1544 40.686C44.1525 40.3809 44.0333 40.089 43.8228 39.8738C43.6123 39.6587 43.3276 39.5379 43.0307 39.5377ZM23.4403 24.8934L41.7167 24.9554L39.9265 35.2576L25.5701 35.2837L23.4403 24.8934ZM26.516 44.8813C25.9637 44.8813 25.5129 44.418 25.5129 43.8504C25.5129 43.2828 25.9637 42.8195 26.516 42.8195C27.0683 42.8195 27.519 43.2828 27.519 43.8504C27.519 44.1238 27.4133 44.386 27.2252 44.5793C27.0371 44.7727 26.782 44.8813 26.516 44.8813ZM36.8349 44.8813C36.2826 44.8813 35.8319 44.418 35.8319 43.8504C35.8319 43.2828 36.2826 42.8195 36.8349 42.8195C37.3872 42.8195 37.8379 43.2828 37.8379 43.8504C37.8379 44.1238 37.7323 44.386 37.5442 44.5793C37.3561 44.7727 37.1009 44.8813 36.8349 44.8813Z" fill="white"/>
<circle cx="49.5" cy="9.5" r="9.5" fill="#E07755"/>
<path d="M47.7582 6.8V5.252H50.6502V14H48.9222V6.8H47.7582Z" fill="white"/>
</svg>
