<svg width="131" height="20" viewBox="0 0 131 20" fill="none" xmlns="http://www.w3.org/2000/svg">
<path d="M6.85181 5.242V6.278H2.60981V9.568H6.05381V10.604H2.60981V15H1.33581V5.242H6.85181ZM9.0485 6.082C8.80583 6.082 8.6005 5.998 8.4325 5.83C8.2645 5.662 8.1805 5.45667 8.1805 5.214C8.1805 4.97133 8.2645 4.766 8.4325 4.598C8.6005 4.43 8.80583 4.346 9.0485 4.346C9.28183 4.346 9.47783 4.43 9.6365 4.598C9.8045 4.766 9.8885 4.97133 9.8885 5.214C9.8885 5.45667 9.8045 5.662 9.6365 5.83C9.47783 5.998 9.28183 6.082 9.0485 6.082ZM9.6645 7.328V15H8.3905V7.328H9.6645ZM13.1098 4.64V15H11.8358V4.64H13.1098ZM16.8351 8.378V12.9C16.8351 13.2733 16.9145 13.5393 17.0731 13.698C17.2318 13.8473 17.5071 13.922 17.8991 13.922H18.8371V15H17.6891C16.9798 15 16.4478 14.8367 16.0931 14.51C15.7385 14.1833 15.5611 13.6467 15.5611 12.9V8.378H14.5671V7.328H15.5611V5.396H16.8351V7.328H18.8371V8.378H16.8351ZM27.3807 10.87C27.3807 11.1127 27.3667 11.3693 27.3387 11.64H21.2067C21.2534 12.396 21.5101 12.9887 21.9767 13.418C22.4527 13.838 23.0267 14.048 23.6987 14.048C24.2494 14.048 24.7067 13.922 25.0707 13.67C25.4441 13.4087 25.7054 13.0633 25.8547 12.634H27.2267C27.0214 13.3713 26.6107 13.9733 25.9947 14.44C25.3787 14.8973 24.6134 15.126 23.6987 15.126C22.9707 15.126 22.3174 14.9627 21.7387 14.636C21.1694 14.3093 20.7214 13.8473 20.3947 13.25C20.0681 12.6433 19.9047 11.9433 19.9047 11.15C19.9047 10.3567 20.0634 9.66133 20.3807 9.064C20.6981 8.46667 21.1414 8.00933 21.7107 7.692C22.2894 7.36533 22.9521 7.202 23.6987 7.202C24.4267 7.202 25.0707 7.36067 25.6307 7.678C26.1907 7.99533 26.6201 8.434 26.9187 8.994C27.2267 9.54467 27.3807 10.17 27.3807 10.87ZM26.0647 10.604C26.0647 10.1187 25.9574 9.70333 25.7427 9.358C25.5281 9.00333 25.2341 8.73733 24.8607 8.56C24.4967 8.37333 24.0907 8.28 23.6427 8.28C22.9987 8.28 22.4481 8.48533 21.9907 8.896C21.5427 9.30667 21.2861 9.876 21.2207 10.604H26.0647ZM30.3364 8.574C30.5604 8.13533 30.8777 7.79467 31.2884 7.552C31.7084 7.30933 32.217 7.188 32.8144 7.188V8.504H32.4784C31.0504 8.504 30.3364 9.27867 30.3364 10.828V15H29.0624V7.328H30.3364V8.574ZM41.2935 17.604C40.3975 16.7267 39.6975 15.6113 39.1935 14.258C38.6988 12.9047 38.4515 11.444 38.4515 9.876C38.4515 8.27067 38.7128 6.77267 39.2355 5.382C39.7675 3.982 40.5235 2.82933 41.5035 1.924H42.8335V2.05C41.7881 3.03 40.9995 4.21067 40.4675 5.592C39.9448 6.964 39.6835 8.392 39.6835 9.876C39.6835 11.3227 39.9308 12.704 40.4255 14.02C40.9295 15.336 41.6621 16.4887 42.6235 17.478V17.604H41.2935ZM52.0469 15H50.7729L45.6489 7.23V15H44.3749V5.228H45.6489L50.7729 12.984V5.228H52.0469V15ZM57.5646 15.126C56.846 15.126 56.1926 14.9627 55.6046 14.636C55.026 14.3093 54.5686 13.8473 54.2326 13.25C53.906 12.6433 53.7426 11.9433 53.7426 11.15C53.7426 10.366 53.9106 9.67533 54.2466 9.078C54.592 8.47133 55.0586 8.00933 55.6466 7.692C56.2346 7.36533 56.8926 7.202 57.6206 7.202C58.3486 7.202 59.0066 7.36533 59.5946 7.692C60.1826 8.00933 60.6446 8.46667 60.9806 9.064C61.326 9.66133 61.4986 10.3567 61.4986 11.15C61.4986 11.9433 61.3213 12.6433 60.9666 13.25C60.6213 13.8473 60.15 14.3093 59.5526 14.636C58.9553 14.9627 58.2926 15.126 57.5646 15.126ZM57.5646 14.006C58.022 14.006 58.4513 13.8987 58.8526 13.684C59.254 13.4693 59.576 13.1473 59.8186 12.718C60.0706 12.2887 60.1966 11.766 60.1966 11.15C60.1966 10.534 60.0753 10.0113 59.8326 9.582C59.59 9.15267 59.2726 8.83533 58.8806 8.63C58.4886 8.41533 58.064 8.308 57.6066 8.308C57.14 8.308 56.7106 8.41533 56.3186 8.63C55.936 8.83533 55.628 9.15267 55.3946 9.582C55.1613 10.0113 55.0446 10.534 55.0446 11.15C55.0446 11.7753 55.1566 12.3027 55.3806 12.732C55.614 13.1613 55.922 13.4833 56.3046 13.698C56.6873 13.9033 57.1073 14.006 57.5646 14.006ZM71.7921 9.974C72.1468 10.03 72.4688 10.1747 72.7581 10.408C73.0568 10.6413 73.2901 10.9307 73.4581 11.276C73.6355 11.6213 73.7241 11.99 73.7241 12.382C73.7241 12.8767 73.5981 13.3247 73.3461 13.726C73.0941 14.118 72.7255 14.4307 72.2401 14.664C71.7641 14.888 71.1995 15 70.5461 15H66.9061V5.242H70.4061C71.0688 5.242 71.6335 5.354 72.1001 5.578C72.5668 5.79267 72.9168 6.08667 73.1501 6.46C73.3835 6.83333 73.5001 7.25333 73.5001 7.72C73.5001 8.29867 73.3415 8.77933 73.0241 9.162C72.7161 9.53533 72.3055 9.806 71.7921 9.974ZM68.1801 9.456H70.3221C70.9195 9.456 71.3815 9.316 71.7081 9.036C72.0348 8.756 72.1981 8.36867 72.1981 7.874C72.1981 7.37933 72.0348 6.992 71.7081 6.712C71.3815 6.432 70.9101 6.292 70.2941 6.292H68.1801V9.456ZM70.4341 13.95C71.0688 13.95 71.5635 13.8007 71.9181 13.502C72.2728 13.2033 72.4501 12.788 72.4501 12.256C72.4501 11.7147 72.2635 11.29 71.8901 10.982C71.5168 10.6647 71.0175 10.506 70.3921 10.506H68.1801V13.95H70.4341ZM82.4921 10.87C82.4921 11.1127 82.4781 11.3693 82.4501 11.64H76.3181C76.3647 12.396 76.6214 12.9887 77.0881 13.418C77.5641 13.838 78.1381 14.048 78.8101 14.048C79.3607 14.048 79.8181 13.922 80.1821 13.67C80.5554 13.4087 80.8167 13.0633 80.9661 12.634H82.3381C82.1327 13.3713 81.7221 13.9733 81.1061 14.44C80.4901 14.8973 79.7247 15.126 78.8101 15.126C78.0821 15.126 77.4287 14.9627 76.8501 14.636C76.2807 14.3093 75.8327 13.8473 75.5061 13.25C75.1794 12.6433 75.0161 11.9433 75.0161 11.15C75.0161 10.3567 75.1747 9.66133 75.4921 9.064C75.8094 8.46667 76.2527 8.00933 76.8221 7.692C77.4007 7.36533 78.0634 7.202 78.8101 7.202C79.5381 7.202 80.1821 7.36067 80.7421 7.678C81.3021 7.99533 81.7314 8.434 82.0301 8.994C82.3381 9.54467 82.4921 10.17 82.4921 10.87ZM81.1761 10.604C81.1761 10.1187 81.0687 9.70333 80.8541 9.358C80.6394 9.00333 80.3454 8.73733 79.9721 8.56C79.6081 8.37333 79.2021 8.28 78.7541 8.28C78.1101 8.28 77.5594 8.48533 77.1021 8.896C76.6541 9.30667 76.3974 9.876 76.3321 10.604H81.1761ZM91.1737 10.87C91.1737 11.1127 91.1597 11.3693 91.1317 11.64H84.9997C85.0464 12.396 85.303 12.9887 85.7697 13.418C86.2457 13.838 86.8197 14.048 87.4917 14.048C88.0424 14.048 88.4997 13.922 88.8637 13.67C89.237 13.4087 89.4984 13.0633 89.6477 12.634H91.0197C90.8144 13.3713 90.4037 13.9733 89.7877 14.44C89.1717 14.8973 88.4064 15.126 87.4917 15.126C86.7637 15.126 86.1104 14.9627 85.5317 14.636C84.9624 14.3093 84.5144 13.8473 84.1877 13.25C83.861 12.6433 83.6977 11.9433 83.6977 11.15C83.6977 10.3567 83.8564 9.66133 84.1737 9.064C84.491 8.46667 84.9344 8.00933 85.5037 7.692C86.0824 7.36533 86.745 7.202 87.4917 7.202C88.2197 7.202 88.8637 7.36067 89.4237 7.678C89.9837 7.99533 90.413 8.434 90.7117 8.994C91.0197 9.54467 91.1737 10.17 91.1737 10.87ZM89.8577 10.604C89.8577 10.1187 89.7504 9.70333 89.5357 9.358C89.321 9.00333 89.027 8.73733 88.6537 8.56C88.2897 8.37333 87.8837 8.28 87.4357 8.28C86.7917 8.28 86.241 8.48533 85.7837 8.896C85.3357 9.30667 85.079 9.876 85.0137 10.604H89.8577ZM95.9773 8.378H94.3673V15H93.0933V8.378H92.0993V7.328H93.0933V6.782C93.0933 5.92333 93.3127 5.298 93.7513 4.906C94.1993 4.50467 94.9133 4.304 95.8933 4.304V5.368C95.3333 5.368 94.9367 5.48 94.7033 5.704C94.4793 5.91867 94.3673 6.278 94.3673 6.782V7.328H95.9773V8.378ZM97.0568 17.604V17.478C98.0181 16.4887 98.7461 15.336 99.2408 14.02C99.7448 12.704 99.9968 11.3227 99.9968 9.876C99.9968 8.392 99.7308 6.964 99.1988 5.592C98.6761 4.21067 97.8921 3.03 96.8468 2.05V1.924H98.1768C99.1568 2.82933 99.9081 3.982 100.431 5.382C100.963 6.77267 101.229 8.27067 101.229 9.876C101.229 11.444 100.977 12.9047 100.473 14.258C99.9781 15.6113 99.2828 16.7267 98.3868 17.604H97.0568Z" fill="#828282"/>
<g clip-path="url(#clip0_737_20723)">
<path d="M129.948 13.1887H123.31C122.946 13.1887 122.651 12.8939 122.651 12.5301C122.651 12.1664 122.946 11.8716 123.31 11.8716H129.948C130.312 11.8716 130.607 12.1664 130.607 12.5301C130.607 12.8939 130.312 13.1887 129.948 13.1887Z" fill="#828282"/>
<path d="M121.713 14.7853C120.47 14.7853 119.458 13.7737 119.458 12.5303C119.458 11.2867 120.47 10.2751 121.713 10.2751C122.957 10.2751 123.968 11.2867 123.968 12.5303C123.968 13.7735 122.957 14.7853 121.713 14.7853ZM121.713 11.592C121.196 11.592 120.775 12.0129 120.775 12.5301C120.775 13.0471 121.196 13.4679 121.713 13.4679C122.23 13.4679 122.651 13.0471 122.651 12.5301C122.651 12.0129 122.23 11.592 121.713 11.592Z" fill="#828282"/>
<path d="M120.117 13.1887H112.029C111.666 13.1887 111.371 12.8939 111.371 12.5301C111.371 12.1664 111.666 11.8716 112.029 11.8716H120.117C120.481 11.8716 120.776 12.1664 120.776 12.5301C120.776 12.8939 120.481 13.1887 120.117 13.1887Z" fill="#828282"/>
<path d="M129.949 8.10591H117.262C116.898 8.10591 116.604 7.81108 116.604 7.44732C116.604 7.08356 116.898 6.78873 117.262 6.78873H129.949C130.313 6.78873 130.607 7.08356 130.607 7.44732C130.607 7.81108 130.313 8.10591 129.949 8.10591Z" fill="#828282"/>
<path d="M115.665 9.70254C114.422 9.70254 113.41 8.69094 113.41 7.44729C113.41 6.20365 114.422 5.19205 115.665 5.19205C116.909 5.19205 117.921 6.20365 117.921 7.44729C117.921 8.69094 116.909 9.70254 115.665 9.70254ZM115.665 6.50923C115.148 6.50923 114.727 6.93008 114.727 7.44729C114.727 7.96451 115.148 8.38535 115.665 8.38535C116.183 8.38535 116.603 7.96451 116.603 7.44729C116.603 6.93008 116.182 6.50923 115.665 6.50923Z" fill="#828282"/>
<path d="M114.069 8.10591H112.029C111.666 8.10591 111.371 7.81108 111.371 7.44732C111.371 7.08356 111.666 6.78873 112.029 6.78873H114.069C114.432 6.78873 114.727 7.08356 114.727 7.44732C114.727 7.81108 114.432 8.10591 114.069 8.10591Z" fill="#828282"/>
<path d="M123.763 3.02373H112.029C111.666 3.02373 111.371 2.7289 111.371 2.36514C111.371 2.00137 111.666 1.70654 112.029 1.70654H123.763C124.127 1.70654 124.422 2.00137 124.422 2.36514C124.422 2.7289 124.127 3.02373 123.763 3.02373Z" fill="#828282"/>
<path d="M125.36 4.62035C124.116 4.62035 123.105 3.60875 123.105 2.36511C123.105 1.12146 124.116 0.109863 125.36 0.109863C126.603 0.109863 127.615 1.12146 127.615 2.36511C127.615 3.60875 126.603 4.62035 125.36 4.62035ZM125.36 1.42705C124.843 1.42705 124.422 1.84789 124.422 2.36511C124.422 2.88232 124.843 3.30316 125.36 3.30316C125.877 3.30316 126.298 2.88232 126.298 2.36511C126.298 1.84789 125.877 1.42705 125.36 1.42705Z" fill="#828282"/>
<path d="M129.949 3.02373H126.957C126.593 3.02373 126.298 2.7289 126.298 2.36514C126.298 2.00137 126.593 1.70654 126.957 1.70654H129.949C130.313 1.70654 130.607 2.00137 130.607 2.36514C130.607 2.7289 130.313 3.02373 129.949 3.02373Z" fill="#828282"/>
<path d="M129.949 18.2713H117.262C116.898 18.2713 116.604 17.9765 116.604 17.6127C116.604 17.249 116.898 16.9541 117.262 16.9541H129.949C130.313 16.9541 130.607 17.249 130.607 17.6127C130.607 17.9765 130.313 18.2713 129.949 18.2713Z" fill="#828282"/>
<path d="M115.665 19.8677C114.422 19.8677 113.41 18.8561 113.41 17.6127C113.41 16.3691 114.422 15.3575 115.665 15.3575C116.909 15.3575 117.921 16.3691 117.921 17.6127C117.92 18.8561 116.909 19.8677 115.665 19.8677ZM115.665 16.6744C115.148 16.6744 114.727 17.0953 114.727 17.6125C114.727 18.1295 115.148 18.5503 115.665 18.5503C116.183 18.5503 116.603 18.1295 116.603 17.6125C116.603 17.0953 116.182 16.6744 115.665 16.6744Z" fill="#828282"/>
<path d="M114.069 18.2713H112.029C111.666 18.2713 111.371 17.9765 111.371 17.6127C111.371 17.249 111.666 16.9541 112.029 16.9541H114.069C114.432 16.9541 114.727 17.249 114.727 17.6127C114.727 17.9765 114.432 18.2713 114.069 18.2713Z" fill="#828282"/>
</g>
<defs>
<clipPath id="clip0_737_20723">
<rect width="20" height="20" fill="white" transform="translate(111)"/>
</clipPath>
</defs>
</svg>
