<svg width="211" height="32" viewBox="0 0 211 32" fill="none" xmlns="http://www.w3.org/2000/svg">
<rect x="69.3908" y="11.3908" width="125.218" height="9.21844" fill="white" stroke="white" stroke-width="0.781561"/>
<rect x="19.4236" y="10.4236" width="96.1528" height="10.1528" fill="url(#paint0_linear_915_20565)" stroke="#9BDAD1" stroke-width="0.847211"/>
<g clip-path="url(#clip0_915_20565)">
<path d="M14.6071 18.2079C15.5621 18.2079 16.4779 17.8286 17.1532 17.1533C17.8284 16.4781 18.2078 15.5622 18.2078 14.6073C18.2078 13.6523 17.8284 12.7365 17.1532 12.0612C16.4779 11.386 15.5621 11.0066 14.6071 11.0066C13.6522 11.0066 12.7363 11.386 12.0611 12.0612C11.3858 12.7365 11.0065 13.6523 11.0065 14.6073C11.0065 15.5622 11.3858 16.4781 12.0611 17.1533C12.7363 17.8286 13.6522 18.2079 14.6071 18.2079ZM15.8073 11.0066C15.8073 11.0066 17.0075 8.6062 17.0075 6.20577C17.0075 3.80534 14.6071 1.40491 14.6071 1.40491C14.6071 1.40491 12.2067 3.80534 12.2067 6.20577C12.2067 8.6062 13.4069 11.0066 13.4069 11.0066" fill="#FFE04D"/>
<path d="M15.8073 11.0066C15.8073 11.0066 17.0075 8.6062 17.0075 6.20577C17.0075 3.80534 14.6071 1.40491 14.6071 1.40491C14.6071 1.40491 12.2067 3.80534 12.2067 6.20577C12.2067 8.6062 13.4069 11.0066 13.4069 11.0066M14.6071 18.2079C15.5621 18.2079 16.4779 17.8286 17.1532 17.1533C17.8284 16.4781 18.2078 15.5622 18.2078 14.6073C18.2078 13.6523 17.8284 12.7365 17.1532 12.0612C16.4779 11.386 15.5621 11.0066 14.6071 11.0066C13.6522 11.0066 12.7363 11.386 12.0611 12.0612C11.3858 12.7365 11.0065 13.6523 11.0065 14.6073C11.0065 15.5622 11.3858 16.4781 12.0611 17.1533C12.7363 17.8286 13.6522 18.2079 14.6071 18.2079V18.2079Z" stroke="black" stroke-width="1.27082" stroke-miterlimit="1.5" stroke-linecap="round" stroke-linejoin="round"/>
<path d="M11.006 13.4071C11.006 13.4071 8.60559 12.2068 6.20516 12.2068C3.80473 12.2068 1.4043 14.6073 1.4043 14.6073C1.4043 14.6073 3.80473 17.0077 6.20516 17.0077C8.60559 17.0077 11.006 15.8075 11.006 15.8075M15.8069 18.2079C15.8069 18.2079 17.0071 20.6084 17.0071 23.0088C17.0071 25.4092 14.6067 27.8097 14.6067 27.8097C14.6067 27.8097 12.2062 25.4092 12.2062 23.0088C12.2062 20.6084 13.4065 18.2079 13.4065 18.2079M18.2073 13.4071C18.2073 13.4071 20.6077 12.2068 23.0082 12.2068C25.4086 12.2068 27.809 14.6073 27.809 14.6073C27.809 14.6073 25.4086 17.0077 23.0082 17.0077C20.6077 17.0077 18.2073 15.8075 18.2073 15.8075M12.9096 11.2131C12.9096 11.2131 12.061 8.66621 10.3627 6.96911C8.6656 5.272 5.27139 5.272 5.27139 5.272C5.27139 5.272 5.27139 8.66621 6.9685 10.3645C8.6656 12.0616 11.2125 12.9102 11.2125 12.9102M11.2125 16.3044C11.2125 16.3044 8.6656 17.1529 6.9685 18.8512C5.27139 20.5483 5.27139 23.9426 5.27139 23.9426C5.27139 23.9426 8.6656 23.9426 10.3627 22.2455C12.061 20.5483 12.9096 18.0015 12.9096 18.0015M18.0021 16.3044C18.0021 16.3044 20.5465 17.1529 22.2448 18.8512C23.9419 20.5483 23.9419 23.9426 23.9419 23.9426C23.9419 23.9426 20.5477 23.9426 18.8506 22.2455C17.1523 20.5483 16.3038 18.0015 16.3038 18.0015M16.3038 11.2131C16.3038 11.2131 17.1523 8.66621 18.8506 6.96911C20.5477 5.272 23.9419 5.272 23.9419 5.272C23.9419 5.272 23.9419 8.66621 22.2448 10.3645C20.5477 12.0616 18.0009 12.9102 18.0009 12.9102" fill="#FFE04D"/>
<path d="M11.006 13.4071C11.006 13.4071 8.60559 12.2068 6.20516 12.2068C3.80473 12.2068 1.4043 14.6073 1.4043 14.6073C1.4043 14.6073 3.80473 17.0077 6.20516 17.0077C8.60559 17.0077 11.006 15.8075 11.006 15.8075M15.8069 18.2079C15.8069 18.2079 17.0071 20.6084 17.0071 23.0088C17.0071 25.4092 14.6067 27.8097 14.6067 27.8097C14.6067 27.8097 12.2062 25.4092 12.2062 23.0088C12.2062 20.6084 13.4065 18.2079 13.4065 18.2079M18.2073 13.4071C18.2073 13.4071 20.6077 12.2068 23.0082 12.2068C25.4086 12.2068 27.809 14.6073 27.809 14.6073C27.809 14.6073 25.4086 17.0077 23.0082 17.0077C20.6077 17.0077 18.2073 15.8075 18.2073 15.8075M12.9096 11.2131C12.9096 11.2131 12.061 8.66621 10.3627 6.96911C8.6656 5.272 5.27139 5.272 5.27139 5.272C5.27139 5.272 5.27139 8.66621 6.9685 10.3645C8.6656 12.0616 11.2125 12.9102 11.2125 12.9102M11.2125 16.3044C11.2125 16.3044 8.6656 17.1529 6.9685 18.8512C5.27139 20.5483 5.27139 23.9426 5.27139 23.9426C5.27139 23.9426 8.6656 23.9426 10.3627 22.2455C12.061 20.5483 12.9096 18.0015 12.9096 18.0015M18.0021 16.3044C18.0021 16.3044 20.5465 17.1529 22.2448 18.8512C23.9419 20.5483 23.9419 23.9426 23.9419 23.9426C23.9419 23.9426 20.5477 23.9426 18.8506 22.2455C17.1523 20.5483 16.3038 18.0015 16.3038 18.0015M16.3038 11.2131C16.3038 11.2131 17.1523 8.66621 18.8506 6.96911C20.5477 5.272 23.9419 5.272 23.9419 5.272C23.9419 5.272 23.9419 8.66621 22.2448 10.3645C20.5477 12.0616 18.0009 12.9102 18.0009 12.9102" stroke="black" stroke-width="1.27082" stroke-miterlimit="1.5" stroke-linecap="round" stroke-linejoin="round"/>
</g>
<g clip-path="url(#clip1_915_20565)">
<path d="M125.632 13.0872C125.899 13.0872 126.109 12.8717 126.109 12.5974V11.755C126.109 11.0595 126.49 10.4325 127.1 10.1191L127.739 9.74683C127.852 9.68967 127.939 9.58841 127.98 9.46533C128.022 9.34224 128.013 9.20741 127.958 9.0905C127.902 8.97359 127.804 8.88418 127.684 8.84192C127.564 8.79967 127.433 8.80804 127.319 8.8652L126.671 9.23744C125.737 9.71744 125.156 10.6774 125.156 11.755V12.5974C125.156 12.8717 125.365 13.0872 125.632 13.0872ZM107.647 26.4498H109.048C110.02 26.4498 110.802 25.6367 110.802 24.6473V21.3559C110.802 20.9543 110.478 20.6212 110.087 20.6212C109.696 20.6212 109.372 20.9543 109.372 21.3559V24.6375C109.372 24.8237 109.229 24.9706 109.048 24.9706H107.647C107.256 24.9706 106.932 25.3037 106.932 25.7053C106.932 26.1069 107.256 26.4498 107.647 26.4498ZM121.467 28.3894C121.648 28.3894 121.829 28.3208 121.972 28.1739C122.105 28.0356 122.18 27.8491 122.18 27.6547C122.18 27.4603 122.105 27.2737 121.972 27.1355L121.353 26.4988C121.01 26.1461 120.819 25.6661 120.819 25.1665V23.3151C120.819 22.9135 120.495 22.5804 120.104 22.5804C119.713 22.5804 119.389 22.9135 119.389 23.3151V25.1665C119.389 26.0579 119.732 26.9004 120.342 27.5371L120.962 28.1739C121.105 28.3208 121.286 28.3894 121.467 28.3894ZM113.042 28.1739C112.899 28.3208 112.718 28.3894 112.536 28.3894C112.355 28.3894 112.174 28.3208 112.031 28.1739C111.755 27.8898 111.755 27.4196 112.031 27.1355L112.651 26.4988C112.994 26.1461 113.185 25.6661 113.185 25.1665V23.3151C113.185 22.9135 113.509 22.5804 113.899 22.5804C114.29 22.5804 114.614 22.9135 114.614 23.3151V25.1665C114.614 26.0579 114.281 26.9004 113.661 27.5371L113.042 28.1739ZM104.12 16.026L102.424 16.3982C102.148 16.457 102.148 16.8586 102.424 16.9272L104.12 17.2994L105.074 16.6529L104.12 16.026Z" fill="#212121"/>
<path d="M125.11 20.1785C125.377 20.1785 125.587 20.394 125.587 20.6683V21.5108C125.587 22.2063 125.968 22.8332 126.578 23.1467L127.217 23.5189C127.331 23.5761 127.418 23.6773 127.459 23.8004C127.5 23.9235 127.492 24.0583 127.436 24.1752C127.38 24.2922 127.282 24.3816 127.162 24.4238C127.042 24.4661 126.911 24.4577 126.797 24.4005L126.149 24.0283C125.215 23.5483 124.634 22.5883 124.634 21.5108V20.6683C124.634 20.394 124.844 20.1785 125.11 20.1785ZM107.125 6.81597H108.526C109.498 6.81597 110.28 7.62903 110.28 8.61841V11.9098C110.28 12.3115 109.956 12.6445 109.565 12.6445C109.174 12.6445 108.85 12.3115 108.85 11.9098V8.62821C108.85 8.44209 108.707 8.29515 108.526 8.29515H107.125C106.734 8.29515 106.41 7.96209 106.41 7.56046C106.41 7.15882 106.734 6.81597 107.125 6.81597ZM120.945 4.87638C121.126 4.87638 121.307 4.94496 121.45 5.0919C121.583 5.23015 121.658 5.4167 121.658 5.61108C121.658 5.80546 121.583 5.992 121.45 6.13026L120.831 6.76699C120.488 7.11964 120.297 7.59964 120.297 8.09923V9.95065C120.297 10.3523 119.973 10.6853 119.582 10.6853C119.192 10.6853 118.868 10.3523 118.868 9.95065V8.09923C118.868 7.2078 119.211 6.36536 119.821 5.72863L120.44 5.0919C120.583 4.94496 120.764 4.87638 120.945 4.87638ZM112.52 5.0919C112.377 4.94496 112.196 4.87638 112.015 4.87638C111.834 4.87638 111.652 4.94496 111.509 5.0919C111.233 5.37598 111.233 5.84618 111.509 6.13026L112.129 6.76699C112.472 7.11964 112.663 7.59964 112.663 8.09923V9.95065C112.663 10.3523 112.987 10.6853 113.378 10.6853C113.768 10.6853 114.092 10.3523 114.092 9.95065V8.09923C114.092 7.2078 113.759 6.36536 113.139 5.72863L112.52 5.0919ZM103.599 17.2398L101.902 16.8675C101.626 16.8087 101.626 16.4071 101.902 16.3385L103.599 15.9663L104.552 16.6128L103.599 17.2398Z" fill="#212121"/>
<path d="M114.606 24.4911H112.595C111.978 24.4911 111.373 24.4029 110.793 24.2364L108.41 16.6534L110.793 9.09099C111.38 8.92226 111.986 8.8369 112.595 8.83728H114.606L116.512 16.6534L114.606 24.4911ZM119.371 8.96071C121.184 9.3005 122.816 10.3042 123.964 11.7858L123.66 13.2249V20.082L123.952 21.5582C122.804 23.0314 121.178 24.0291 119.371 24.3677L116.988 16.6534L119.371 8.96071ZM107.457 16.6534L106.028 13.3453L104.121 16.0441V17.2852L106.028 19.983L107.457 16.6534Z" fill="#FFE04D"/>
<path d="M114.623 8.83728H118.216C118.617 8.84708 119.007 8.89606 119.389 8.96463V24.3637C119.007 24.4323 118.617 24.4813 118.216 24.4911H114.623V8.83728ZM122.829 13.1083C122.829 12.3736 123.401 11.7858 124.106 11.776H124.183C126.794 11.776 128.901 13.9703 128.901 16.674C128.901 19.3776 126.785 21.5719 124.183 21.5719H124.106C123.392 21.5523 122.829 20.9646 122.829 20.2299V13.1083ZM106.941 12.0503L106.045 13.3238V19.985L106.941 21.2585C107.837 22.7278 109.228 23.776 110.811 24.2266V9.08218C109.219 9.54258 107.837 10.5809 106.941 12.0503Z" fill="#231F20"/>
<path d="M116.29 3.79525C115.884 3.25262 115.359 2.8157 114.758 2.51965C114.157 2.2236 113.497 2.0767 112.83 2.09077C110.552 2.12995 108.684 4.04015 108.627 6.38136C108.613 6.96796 108.714 7.55151 108.922 8.09765C109.131 8.64378 109.444 9.14145 109.843 9.56136C110.242 9.98126 110.718 10.3149 111.244 10.5427C111.771 10.7704 112.336 10.8876 112.907 10.8875H120.141C120.665 10.8875 120.96 10.2703 120.655 9.83931L116.366 3.903C116.347 3.87362 116.328 3.85403 116.309 3.82464L116.29 3.79525Z" fill="#C5C5C5"/>
<path d="M116.29 29.3833C115.884 29.9259 115.359 30.3629 114.758 30.6589C114.157 30.955 113.497 31.1019 112.83 31.0878C110.552 31.0486 108.684 29.1384 108.627 26.7972C108.613 26.2106 108.714 25.627 108.922 25.0809C109.131 24.5348 109.444 24.0371 109.843 23.6172C110.242 23.1973 110.718 22.8636 111.244 22.6359C111.771 22.4082 112.336 22.2909 112.907 22.2911H120.141C120.665 22.2911 120.96 22.9082 120.655 23.3393L116.366 29.2756C116.347 29.3049 116.328 29.3245 116.309 29.3539L116.29 29.3833Z" fill="#C5C5C5"/>
<path d="M125.623 17.6334C125.37 17.6334 125.128 17.5302 124.949 17.3465C124.77 17.1628 124.67 16.9136 124.67 16.6538C124.67 16.394 124.77 16.1449 124.949 15.9612C125.128 15.7775 125.37 15.6743 125.623 15.6743C125.876 15.6743 126.118 15.7775 126.297 15.9612C126.476 16.1449 126.576 16.394 126.576 16.6538C126.576 16.9136 126.476 17.1628 126.297 17.3465C126.118 17.5302 125.876 17.6334 125.623 17.6334Z" fill="#212121"/>
</g>
<rect width="20.3331" height="8.47211" rx="4.23606" transform="matrix(1 0 0 -1 185.234 28.5689)" fill="#FFD380"/>
<rect width="24.5691" height="8.47211" rx="4.23606" transform="matrix(1 0 0 -1 183.541 20.0967)" fill="#FFC350"/>
<rect width="29.6524" height="7.6249" rx="3.81245" transform="matrix(1 0 0 -1 181 11.625)" fill="#F9A418"/>
<ellipse cx="195.401" cy="14.59" rx="5.93048" ry="6.35408" fill="#231F20"/>
<defs>
<linearGradient id="paint0_linear_915_20565" x1="67.5" y1="10" x2="67.5" y2="21" gradientUnits="userSpaceOnUse">
<stop stop-color="#99D7D1"/>
<stop offset="1" stop-color="#8FCEE0"/>
</linearGradient>
<clipPath id="clip0_915_20565">
<rect width="28.8052" height="28.8052" fill="white"/>
</clipPath>
<clipPath id="clip1_915_20565">
<rect width="30.4996" height="31.3468" fill="white" transform="matrix(-1 0 0 1 131.5 0)"/>
</clipPath>
</defs>
</svg>
