<svg width="350" height="195" viewBox="0 0 350 195" fill="none" xmlns="http://www.w3.org/2000/svg">
<mask id="mask0_1035_31808" style="mask-type:alpha" maskUnits="userSpaceOnUse" x="0" y="0" width="350" height="195">
<path opacity="0.76" d="M0 48C0 25.3726 0 14.0589 7.02944 7.02944C14.0589 0 25.3726 0 48 0H302C324.627 0 335.941 0 342.971 7.02944C350 14.0589 350 25.3726 350 48V147C350 169.627 350 180.941 342.971 187.971C335.941 195 324.627 195 302 195H48C25.3726 195 14.0589 195 7.02944 187.971C0 180.941 0 169.627 0 147V48Z" fill="black"/>
</mask>
<g mask="url(#mask0_1035_31808)">
<g opacity="0.2">
<path d="M303.561 163.889L303.559 163.401L303.127 163.18L278.679 150.703L278.28 150.5L277.899 150.737L253.581 165.846L253.2 166.083L253.202 166.533L253.332 194.118L253.335 194.606L253.767 194.827L278.215 207.303L278.614 207.507L278.995 207.27L303.313 192.161L303.694 191.924L303.692 191.474L303.561 163.889Z" stroke="#816FF0" stroke-width="1.59785"/>
<path d="M279.713 124.485L279.711 123.997L279.278 123.777L254.83 111.3L254.432 111.097L254.05 111.334L229.733 126.443L229.352 126.679L229.354 127.129L229.484 154.715L229.487 155.203L229.919 155.423L254.367 167.9L254.766 168.103L255.147 167.867L279.464 152.758L279.846 152.521L279.844 152.071L279.713 124.485Z" stroke="#816FF0" stroke-width="1.59785"/>
<path d="M327.13 121.926L327.127 121.438L326.695 121.217L302.247 108.741L301.848 108.537L301.467 108.774L277.149 123.883L276.768 124.12L276.77 124.57L276.901 152.155L276.903 152.643L277.335 152.864L301.783 165.34L302.182 165.544L302.563 165.307L326.881 150.198L327.262 149.961L327.26 149.511L327.13 121.926Z" stroke="#816FF0" stroke-width="1.59785"/>
<path d="M303.034 82.1231L303.032 81.6352L302.599 81.4145L278.151 68.938L277.753 68.7345L277.371 68.9714L253.054 84.0804L252.673 84.3172L252.675 84.7672L252.805 112.353L252.808 112.841L253.24 113.061L277.688 125.538L278.087 125.741L278.468 125.504L302.786 110.395L303.167 110.159L303.165 109.709L303.034 82.1231Z" stroke="#816FF0" stroke-width="1.59785"/>
<path d="M351.118 79.6992L351.116 79.2113L350.683 78.9906L326.235 66.5141L325.837 66.3106L325.455 66.5475L301.138 81.6564L300.757 81.8933L300.759 82.3432L300.889 109.929L300.892 110.417L301.324 110.637L325.772 123.114L326.171 123.317L326.552 123.08L350.869 107.971L351.251 107.735L351.249 107.285L351.118 79.6992Z" fill="#816FF0" stroke="#816FF0" stroke-width="1.59785"/>
<path d="M377.525 160.404L377.725 202.684L340.453 225.842L302.982 206.719L302.782 164.439L340.054 141.281L377.525 160.404Z" fill="#816FF0"/>
<path d="M254.935 166.379L254.933 165.891L254.501 165.67L230.053 153.194L229.654 152.99L229.273 153.227L204.955 168.336L204.574 168.573L204.576 169.023L204.706 196.609L204.709 197.096L205.141 197.317L229.589 209.794L229.988 209.997L230.369 209.76L254.687 194.651L255.068 194.414L255.066 193.964L254.935 166.379Z" fill="#816FF0" stroke="#816FF0" stroke-width="1.59785"/>
<path d="M207.221 169.399L207.219 168.911L206.786 168.69L182.338 156.214L181.939 156.01L181.558 156.247L157.241 171.356L156.859 171.593L156.862 172.043L156.992 199.628L156.994 200.116L157.427 200.337L181.875 212.813L182.274 213.017L182.655 212.78L206.972 197.671L207.353 197.434L207.351 196.984L207.221 169.399Z" stroke="#816FF0" stroke-width="1.59785"/>
<path d="M230.962 126.773L230.959 126.285L230.527 126.065L206.079 113.588L205.68 113.385L205.299 113.621L180.981 128.73L180.6 128.967L180.602 129.417L180.733 157.003L180.735 157.491L181.167 157.711L205.615 170.188L206.014 170.391L206.395 170.154L230.713 155.045L231.094 154.809L231.092 154.359L230.962 126.773Z" stroke="#816FF0" stroke-width="1.59785"/>
</g>
</g>
</svg>
