<svg width="63" height="63" viewBox="0 0 63 63" fill="none" xmlns="http://www.w3.org/2000/svg">
<circle cx="31.3427" cy="31.3427" r="30.3427" fill="#6AC2B5" stroke="white" stroke-width="2"/>
<path d="M43.0308 37.5377H24.1291L25.0782 35.551L40.847 35.5216C41.3803 35.5216 41.8373 35.1302 41.9326 34.5886L44.1163 22.0257C44.1735 21.6962 44.0878 21.3569 43.8783 21.0992C43.7747 20.9724 43.6456 20.8702 43.4998 20.7998C43.354 20.7294 43.1951 20.6924 43.034 20.6914L22.9737 20.6229L22.8023 19.7943C22.6944 19.2658 22.231 18.8809 21.7041 18.8809H16.8001C16.503 18.8809 16.218 19.0022 16.0079 19.2181C15.7977 19.4341 15.6797 19.727 15.6797 20.0324C15.6797 20.3379 15.7977 20.6308 16.0079 20.8467C16.218 21.0627 16.503 21.184 16.8001 21.184H20.7963L21.5454 24.8443L23.3895 34.021L21.0153 38.0042C20.892 38.1752 20.8178 38.3783 20.8009 38.5905C20.7841 38.8026 20.8254 39.0154 20.9201 39.2047C21.1106 39.5929 21.4946 39.8376 21.9199 39.8376H23.9133C23.4883 40.4177 23.2588 41.1243 23.2594 41.8504C23.2594 43.6968 24.7195 45.1975 26.516 45.1975C28.3126 45.1975 29.7726 43.6968 29.7726 41.8504C29.7726 41.1229 29.5378 40.415 29.1188 39.8376H34.2322C33.8073 40.4177 33.5777 41.1243 33.5784 41.8504C33.5784 43.6968 35.0384 45.1975 36.835 45.1975C38.6315 45.1975 40.0916 43.6968 40.0916 41.8504C40.0916 41.1229 39.8567 40.415 39.4377 39.8376H43.034C43.6497 39.8376 44.1544 39.3222 44.1544 38.686C44.1526 38.3809 44.0334 38.089 43.8229 37.8738C43.6124 37.6587 43.3277 37.5379 43.0308 37.5377ZM23.4403 22.8934L41.7167 22.9554L39.9265 33.2576L25.5701 33.2837L23.4403 22.8934ZM26.516 42.8813C25.9637 42.8813 25.513 42.418 25.513 41.8504C25.513 41.2828 25.9637 40.8195 26.516 40.8195C27.0683 40.8195 27.519 41.2828 27.519 41.8504C27.519 42.1238 27.4134 42.386 27.2253 42.5793C27.0372 42.7727 26.782 42.8813 26.516 42.8813ZM36.835 42.8813C36.2827 42.8813 35.832 42.418 35.832 41.8504C35.832 41.2828 36.2827 40.8195 36.835 40.8195C37.3873 40.8195 37.838 41.2828 37.838 41.8504C37.838 42.1238 37.7323 42.386 37.5442 42.5793C37.3561 42.7727 37.101 42.8813 36.835 42.8813Z" fill="white"/>
</svg>
