<svg width="20" height="21" viewBox="0 0 20 21" fill="none" xmlns="http://www.w3.org/2000/svg">
<g clip-path="url(#clip0_568_21144)">
<path d="M18.9481 13.5104H12.31C11.9462 13.5104 11.6514 13.2156 11.6514 12.8518C11.6514 12.4881 11.9462 12.1932 12.31 12.1932H18.9479C19.3117 12.1932 19.6065 12.4881 19.6065 12.8518C19.6065 13.2156 19.3119 13.5104 18.9481 13.5104Z" fill="#828282"/>
<path d="M10.713 15.1069C9.46961 15.1069 8.45801 14.0953 8.45801 12.8519C8.45801 11.6083 9.46961 10.5967 10.713 10.5967C11.9567 10.5967 12.9683 11.6083 12.9683 12.8519C12.9683 14.0951 11.9567 15.1069 10.713 15.1069ZM10.713 11.9136C10.1958 11.9136 9.7752 12.3345 9.7752 12.8517C9.7752 13.3687 10.196 13.7895 10.713 13.7895C11.2302 13.7895 11.6511 13.3687 11.6511 12.8517C11.6511 12.3345 11.2302 11.9136 10.713 11.9136Z" fill="#828282"/>
<path d="M9.11744 13.5104H1.02969C0.665924 13.5104 0.371094 13.2156 0.371094 12.8518C0.371094 12.4881 0.665924 12.1932 1.02969 12.1932H9.11766C9.48142 12.1932 9.77625 12.4881 9.77625 12.8518C9.77625 13.2156 9.4812 13.5104 9.11744 13.5104Z" fill="#828282"/>
<path d="M18.9488 8.42754H6.26211C5.89835 8.42754 5.60352 8.13271 5.60352 7.76895C5.60352 7.40518 5.89835 7.11035 6.26211 7.11035H18.9488C19.3126 7.11035 19.6074 7.40518 19.6074 7.76895C19.6074 8.13271 19.3126 8.42754 18.9488 8.42754Z" fill="#828282"/>
<path d="M4.6654 10.0242C3.42176 10.0242 2.41016 9.01256 2.41016 7.76892C2.41016 6.52527 3.42176 5.51367 4.6654 5.51367C5.90905 5.51367 6.92065 6.52527 6.92065 7.76892C6.92065 9.01256 5.90883 10.0242 4.6654 10.0242ZM4.6654 6.83086C4.14819 6.83086 3.72734 7.2517 3.72734 7.76892C3.72734 8.28613 4.14819 8.70697 4.6654 8.70697C5.18262 8.70697 5.60346 8.28613 5.60346 7.76892C5.60346 7.2517 5.1824 6.83086 4.6654 6.83086Z" fill="#828282"/>
<path d="M3.06891 8.42754H1.02969C0.665924 8.42754 0.371094 8.13271 0.371094 7.76895C0.371094 7.40518 0.665924 7.11035 1.02969 7.11035H3.06891C3.43268 7.11035 3.72751 7.40518 3.72751 7.76895C3.72751 8.13271 3.43246 8.42754 3.06891 8.42754Z" fill="#828282"/>
<path d="M12.7634 3.34539H1.02969C0.665924 3.34539 0.371094 3.05056 0.371094 2.68679C0.371094 2.32303 0.665924 2.0282 1.02969 2.0282H12.7634C13.1272 2.0282 13.422 2.32303 13.422 2.68679C13.422 3.05056 13.1272 3.34539 12.7634 3.34539Z" fill="#828282"/>
<path d="M14.3605 4.94201C13.1171 4.94201 12.1055 3.93041 12.1055 2.68676C12.1055 1.44312 13.1171 0.431519 14.3605 0.431519C15.6041 0.431519 16.6157 1.44312 16.6157 2.68676C16.6157 3.93041 15.6041 4.94201 14.3605 4.94201ZM14.3605 1.74871C13.8435 1.74871 13.4227 2.16955 13.4227 2.68676C13.4227 3.20398 13.8435 3.62482 14.3605 3.62482C14.8777 3.62482 15.2986 3.20398 15.2986 2.68676C15.2986 2.16955 14.8779 1.74871 14.3605 1.74871Z" fill="#828282"/>
<path d="M18.9496 3.34539H15.9574C15.5937 3.34539 15.2988 3.05056 15.2988 2.68679C15.2988 2.32303 15.5937 2.0282 15.9574 2.0282H18.9496C19.3134 2.0282 19.6082 2.32303 19.6082 2.68679C19.6082 3.05056 19.3134 3.34539 18.9496 3.34539Z" fill="#828282"/>
<path d="M18.9488 18.5929H6.26211C5.89835 18.5929 5.60352 18.2981 5.60352 17.9344C5.60352 17.5706 5.89835 17.2758 6.26211 17.2758H18.9488C19.3126 17.2758 19.6074 17.5706 19.6074 17.9344C19.6074 18.2981 19.3126 18.5929 18.9488 18.5929Z" fill="#828282"/>
<path d="M4.6654 20.1893C3.42176 20.1893 2.41016 19.1777 2.41016 17.9343C2.41016 16.6907 3.42176 15.6791 4.6654 15.6791C5.90905 15.6791 6.92065 16.6907 6.92065 17.9343C6.92043 19.1777 5.90883 20.1893 4.6654 20.1893ZM4.6654 16.996C4.14819 16.996 3.72734 17.4169 3.72734 17.9341C3.72734 18.4511 4.14819 18.8719 4.6654 18.8719C5.18262 18.8719 5.60346 18.4511 5.60346 17.9341C5.60324 17.4169 5.1824 16.996 4.6654 16.996Z" fill="#828282"/>
<path d="M3.06891 18.5929H1.02969C0.665924 18.5929 0.371094 18.2981 0.371094 17.9344C0.371094 17.5706 0.665924 17.2758 1.02969 17.2758H3.06891C3.43268 17.2758 3.72751 17.5706 3.72751 17.9344C3.72751 18.2981 3.43246 18.5929 3.06891 18.5929Z" fill="#828282"/>
</g>
<defs>
<clipPath id="clip0_568_21144">
<rect width="20" height="20" fill="white" transform="translate(0 0.321655)"/>
</clipPath>
</defs>
</svg>
