<svg width="36" height="36" viewBox="0 0 36 36" fill="none" xmlns="http://www.w3.org/2000/svg">
<path d="M17.5548 26.2772C18.0521 26.2772 18.4694 26.1091 18.8064 25.7727C19.1423 25.4375 19.3102 25.0218 19.3102 24.5254V19.27H24.6206C25.1179 19.27 25.5275 19.1018 25.8494 18.7654C26.1712 18.4303 26.3321 18.0145 26.3321 17.5182C26.3321 17.0218 26.1636 16.6055 25.8266 16.2691C25.4907 15.9339 25.074 15.7663 24.5767 15.7663H19.3102V10.4671C19.3102 9.97075 19.1423 9.56199 18.8064 9.24083C18.4694 8.91966 18.0521 8.75908 17.5548 8.75908C17.0574 8.75908 16.6407 8.92667 16.3049 9.26185C15.9678 9.5982 15.7993 10.0145 15.7993 10.5109V15.7663H10.489C9.99158 15.7663 9.58197 15.9339 9.26014 16.2691C8.9383 16.6055 8.77738 17.0218 8.77738 17.5182C8.77738 18.0145 8.94532 18.4303 9.2812 18.7654C9.61825 19.1018 10.0355 19.27 10.5329 19.27H15.7993V24.5692C15.7993 25.0656 15.9678 25.4743 16.3049 25.7955C16.6407 26.1167 17.0574 26.2772 17.5548 26.2772ZM17.5548 35.0363C15.1264 35.0363 12.8442 34.5762 10.7084 33.6559C8.57257 32.7368 6.7147 31.4889 5.13477 29.9123C3.55484 28.3356 2.30436 26.4816 1.38332 24.3502C0.461105 22.2189 0 19.9415 0 17.5182C0 15.0948 0.461105 12.8175 1.38332 10.6861C2.30436 8.5547 3.55484 6.7007 5.13477 5.12406C6.7147 3.54743 8.57257 2.29897 10.7084 1.37868C12.8442 0.45956 15.1264 0 17.5548 0C19.9832 0 22.2653 0.45956 24.4011 1.37868C26.5369 2.29897 28.3948 3.54743 29.9748 5.12406C31.5547 6.7007 32.8052 8.5547 33.7262 10.6861C34.6484 12.8175 35.1095 15.0948 35.1095 17.5182C35.1095 19.9415 34.6484 22.2189 33.7262 24.3502C32.8052 26.4816 31.5547 28.3356 29.9748 29.9123C28.3948 31.4889 26.5369 32.7368 24.4011 33.6559C22.2653 34.5762 19.9832 35.0363 17.5548 35.0363Z" fill="#E07755"/>
</svg>
