<svg width="36" height="36" viewBox="0 0 36 36" fill="none" xmlns="http://www.w3.org/2000/svg">
<path d="M17.5567 26.2772C18.0541 26.2772 18.4713 26.1091 18.8084 25.7727C19.1443 25.4375 19.3122 25.0218 19.3122 24.5254V19.27H24.6225C25.1199 19.27 25.5295 19.1018 25.8513 18.7654C26.1732 18.4303 26.3341 18.0145 26.3341 17.5182C26.3341 17.0218 26.1656 16.6055 25.8285 16.2691C25.4926 15.9339 25.076 15.7663 24.5786 15.7663H19.3122V10.4671C19.3122 9.97075 19.1443 9.56199 18.8084 9.24083C18.4713 8.91966 18.0541 8.75908 17.5567 8.75908C17.0593 8.75908 16.6427 8.92667 16.3068 9.26185C15.9698 9.5982 15.8012 10.0145 15.8012 10.5109V15.7663H10.4909C9.99354 15.7663 9.58393 15.9339 9.26209 16.2691C8.94025 16.6055 8.77933 17.0218 8.77933 17.5182C8.77933 18.0145 8.94727 18.4303 9.28316 18.7654C9.62021 19.1018 10.0374 19.27 10.5348 19.27H15.8012V24.5692C15.8012 25.0656 15.9698 25.4743 16.3068 25.7955C16.6427 26.1167 17.0593 26.2772 17.5567 26.2772ZM17.5567 35.0363C15.1283 35.0363 12.8462 34.5762 10.7104 33.6559C8.57453 32.7368 6.71665 31.4889 5.13672 29.9123C3.55679 28.3356 2.30631 26.4816 1.38527 24.3502C0.463058 22.2189 0.00195312 19.9415 0.00195312 17.5182C0.00195312 15.0948 0.463058 12.8175 1.38527 10.6861C2.30631 8.5547 3.55679 6.7007 5.13672 5.12406C6.71665 3.54743 8.57453 2.29897 10.7104 1.37868C12.8462 0.45956 15.1283 0 17.5567 0C19.9851 0 22.2672 0.45956 24.4031 1.37868C26.5389 2.29897 28.3968 3.54743 29.9767 5.12406C31.5566 6.7007 32.8071 8.5547 33.7282 10.6861C34.6504 12.8175 35.1115 15.0948 35.1115 17.5182C35.1115 19.9415 34.6504 22.2189 33.7282 24.3502C32.8071 26.4816 31.5566 28.3356 29.9767 29.9123C28.3968 31.4889 26.5389 32.7368 24.4031 33.6559C22.2672 34.5762 19.9851 35.0363 17.5567 35.0363Z" fill="#E06653"/>
</svg>
