<svg width="296" height="40" viewBox="0 0 296 40" fill="none" xmlns="http://www.w3.org/2000/svg">
<path d="M30.5563 11.27C31.0313 12.321 31.2571 13.4674 31.2163 14.62C31.2163 17.34 29.2863 21.34 27.7263 23.89L26.0863 10.44L19.1763 11.09L22.3463 30H30.2263C33.6763 25.46 37.9363 19 37.9363 14C37.9761 12.5923 37.608 11.2032 36.8763 10L30.5563 11.27Z" fill="#939393"/>
<path d="M56.818 15.66L53.686 24H52.102L48.958 15.66H50.422L52.894 22.596L55.378 15.66H56.818ZM64.022 20.532C64.022 20.78 64.006 21.004 63.974 21.204H58.922C58.962 21.732 59.158 22.156 59.51 22.476C59.862 22.796 60.294 22.956 60.806 22.956C61.542 22.956 62.062 22.648 62.366 22.032H63.842C63.642 22.64 63.278 23.14 62.75 23.532C62.23 23.916 61.582 24.108 60.806 24.108C60.174 24.108 59.606 23.968 59.102 23.688C58.606 23.4 58.214 23 57.926 22.488C57.646 21.968 57.506 21.368 57.506 20.688C57.506 20.008 57.642 19.412 57.914 18.9C58.194 18.38 58.582 17.98 59.078 17.7C59.582 17.42 60.158 17.28 60.806 17.28C61.43 17.28 61.986 17.416 62.474 17.688C62.962 17.96 63.342 18.344 63.614 18.84C63.886 19.328 64.022 19.892 64.022 20.532ZM62.594 20.1C62.586 19.596 62.406 19.192 62.054 18.888C61.702 18.584 61.266 18.432 60.746 18.432C60.274 18.432 59.87 18.584 59.534 18.888C59.198 19.184 58.998 19.588 58.934 20.1H62.594ZM68.7043 17.28C69.2243 17.28 69.6883 17.388 70.0963 17.604C70.5123 17.82 70.8363 18.14 71.0683 18.564C71.3003 18.988 71.4163 19.5 71.4163 20.1V24H70.0603V20.304C70.0603 19.712 69.9123 19.26 69.6163 18.948C69.3203 18.628 68.9163 18.468 68.4043 18.468C67.8923 18.468 67.4843 18.628 67.1803 18.948C66.8843 19.26 66.7363 19.712 66.7363 20.304V24H65.3683V17.388H66.7363V18.144C66.9603 17.872 67.2443 17.66 67.5883 17.508C67.9403 17.356 68.3123 17.28 68.7043 17.28ZM81.1652 17.28C81.6852 17.28 82.1492 17.388 82.5572 17.604C82.9732 17.82 83.2972 18.14 83.5292 18.564C83.7692 18.988 83.8892 19.5 83.8892 20.1V24H82.5332V20.304C82.5332 19.712 82.3852 19.26 82.0892 18.948C81.7932 18.628 81.3892 18.468 80.8772 18.468C80.3652 18.468 79.9572 18.628 79.6532 18.948C79.3572 19.26 79.2092 19.712 79.2092 20.304V24H77.8532V20.304C77.8532 19.712 77.7052 19.26 77.4092 18.948C77.1132 18.628 76.7092 18.468 76.1972 18.468C75.6852 18.468 75.2772 18.628 74.9732 18.948C74.6772 19.26 74.5292 19.712 74.5292 20.304V24H73.1612V17.388H74.5292V18.144C74.7532 17.872 75.0372 17.66 75.3812 17.508C75.7252 17.356 76.0932 17.28 76.4852 17.28C77.0132 17.28 77.4852 17.392 77.9012 17.616C78.3172 17.84 78.6372 18.164 78.8612 18.588C79.0612 18.188 79.3732 17.872 79.7972 17.64C80.2212 17.4 80.6772 17.28 81.1652 17.28ZM88.498 24.108C87.874 24.108 87.31 23.968 86.806 23.688C86.302 23.4 85.906 23 85.618 22.488C85.33 21.968 85.186 21.368 85.186 20.688C85.186 20.016 85.334 19.42 85.63 18.9C85.926 18.38 86.33 17.98 86.842 17.7C87.354 17.42 87.926 17.28 88.558 17.28C89.19 17.28 89.762 17.42 90.274 17.7C90.786 17.98 91.19 18.38 91.486 18.9C91.782 19.42 91.93 20.016 91.93 20.688C91.93 21.36 91.778 21.956 91.474 22.476C91.17 22.996 90.754 23.4 90.226 23.688C89.706 23.968 89.13 24.108 88.498 24.108ZM88.498 22.92C88.85 22.92 89.178 22.836 89.482 22.668C89.794 22.5 90.046 22.248 90.238 21.912C90.43 21.576 90.526 21.168 90.526 20.688C90.526 20.208 90.434 19.804 90.25 19.476C90.066 19.14 89.822 18.888 89.518 18.72C89.214 18.552 88.886 18.468 88.534 18.468C88.182 18.468 87.854 18.552 87.55 18.72C87.254 18.888 87.018 19.14 86.842 19.476C86.666 19.804 86.578 20.208 86.578 20.688C86.578 21.4 86.758 21.952 87.118 22.344C87.486 22.728 87.946 22.92 88.498 22.92Z" fill="#606060"/>
<path d="M269.556 11.25C267.826 11.25 266.134 11.7632 264.695 12.7246C263.256 13.6861 262.134 15.0527 261.472 16.6515C260.81 18.2504 260.637 20.0097 260.974 21.707C261.312 23.4044 262.145 24.9635 263.369 26.1872C264.593 27.4109 266.152 28.2442 267.849 28.5819C269.546 28.9195 271.306 28.7462 272.905 28.0839C274.503 27.4217 275.87 26.3002 276.832 24.8612C277.793 23.4223 278.306 21.7306 278.306 20C278.306 17.6794 277.384 15.4538 275.743 13.8128C274.102 12.1719 271.877 11.25 269.556 11.25ZM269.556 27.5C268.073 27.5 266.623 27.0601 265.389 26.236C264.156 25.4119 263.195 24.2406 262.627 22.8701C262.059 21.4997 261.911 19.9917 262.2 18.5368C262.49 17.082 263.204 15.7456 264.253 14.6967C265.302 13.6478 266.638 12.9335 268.093 12.6441C269.548 12.3547 271.056 12.5032 272.426 13.0709C273.797 13.6386 274.968 14.5999 275.792 15.8332C276.616 17.0666 277.056 18.5166 277.056 20C277.056 21.9891 276.266 23.8968 274.859 25.3033C273.453 26.7098 271.545 27.5 269.556 27.5Z" fill="#027FEE"/>
<rect x="1.05615" y="0.5" width="294" height="39" rx="7.5" stroke="#F5F5F5"/>
</svg>
