<svg width="296" height="36" viewBox="0 0 296 36" fill="none" xmlns="http://www.w3.org/2000/svg">
<g clip-path="url(#clip0_357_13846)">
<path d="M33.1058 16.116C33.0875 17.5555 34.3887 18.3588 35.3688 18.8364C36.3758 19.3264 36.714 19.6406 36.71 20.0789C36.7025 20.7495 35.9068 21.0455 35.1622 21.057C33.863 21.0771 33.1077 20.7063 32.5072 20.4258L32.0392 22.6156C32.6417 22.8933 33.7573 23.1354 34.9142 23.146C37.6298 23.146 39.4064 21.8055 39.416 19.7271C39.4267 17.0894 35.7675 16.9434 35.7925 15.7644C35.8012 15.4069 36.1423 15.0254 36.8898 14.9284C37.2598 14.8794 38.2812 14.8419 39.4392 15.3751L39.8937 13.2564C39.2709 13.0296 38.4705 12.8125 37.474 12.8125C34.918 12.8125 33.1203 14.1713 33.1058 16.116ZM44.2609 12.995C43.765 12.995 43.3472 13.2843 43.1607 13.7281L39.2815 22.9904H41.9952L42.5352 21.498H45.8512L46.1644 22.9904H48.5562L46.469 12.995H44.2609ZM44.6405 15.6951L45.4237 19.4485H43.2789L44.6405 15.6951ZM29.8157 12.9951L27.6767 22.9903H30.2625L32.4005 12.9949H29.8157M25.9903 12.9949L23.2988 19.7983L22.21 14.0136C22.0823 13.3679 21.5778 12.995 21.0175 12.995H16.6178L16.5562 13.2853C17.4594 13.4813 18.4857 13.7974 19.1074 14.1356C19.4879 14.3423 19.5964 14.5229 19.7214 15.0139L21.7835 22.9904H24.5162L28.7057 12.995H25.9903" fill="url(#paint0_linear_357_13846)"/>
</g>
<path d="M64.1097 13.636V22H63.0177V18.208H58.7577V22H57.6657V13.636H58.7577V17.308H63.0177V13.636H64.1097ZM68.5783 13.636C69.4903 13.636 70.2783 13.808 70.9423 14.152C71.6143 14.488 72.1263 14.972 72.4783 15.604C72.8383 16.236 73.0183 16.98 73.0183 17.836C73.0183 18.692 72.8383 19.436 72.4783 20.068C72.1263 20.692 71.6143 21.172 70.9423 21.508C70.2783 21.836 69.4903 22 68.5783 22H65.9743V13.636H68.5783ZM68.5783 21.1C69.6583 21.1 70.4823 20.816 71.0503 20.248C71.6183 19.672 71.9023 18.868 71.9023 17.836C71.9023 16.796 71.6143 15.984 71.0383 15.4C70.4703 14.816 69.6503 14.524 68.5783 14.524H67.0663V21.1H68.5783ZM79.1867 13.636V14.524H75.5507V17.344H78.5027V18.232H75.5507V22H74.4587V13.636H79.1867ZM80.0975 17.812C80.0975 16.996 80.2815 16.264 80.6495 15.616C81.0175 14.96 81.5175 14.448 82.1495 14.08C82.7895 13.712 83.4975 13.528 84.2735 13.528C85.1855 13.528 85.9815 13.748 86.6615 14.188C87.3415 14.628 87.8375 15.252 88.1495 16.06H86.8415C86.6095 15.556 86.2735 15.168 85.8335 14.896C85.4015 14.624 84.8815 14.488 84.2735 14.488C83.6895 14.488 83.1655 14.624 82.7015 14.896C82.2375 15.168 81.8735 15.556 81.6095 16.06C81.3455 16.556 81.2135 17.14 81.2135 17.812C81.2135 18.476 81.3455 19.06 81.6095 19.564C81.8735 20.06 82.2375 20.444 82.7015 20.716C83.1655 20.988 83.6895 21.124 84.2735 21.124C84.8815 21.124 85.4015 20.992 85.8335 20.728C86.2735 20.456 86.6095 20.068 86.8415 19.564H88.1495C87.8375 20.364 87.3415 20.984 86.6615 21.424C85.9815 21.856 85.1855 22.072 84.2735 22.072C83.4975 22.072 82.7895 21.892 82.1495 21.532C81.5175 21.164 81.0175 20.656 80.6495 20.008C80.2815 19.36 80.0975 18.628 80.0975 17.812ZM97.1623 17.692C97.4663 17.74 97.7423 17.864 97.9903 18.064C98.2463 18.264 98.4463 18.512 98.5903 18.808C98.7423 19.104 98.8183 19.42 98.8183 19.756C98.8183 20.18 98.7103 20.564 98.4943 20.908C98.2783 21.244 97.9623 21.512 97.5463 21.712C97.1383 21.904 96.6543 22 96.0943 22H92.9743V13.636H95.9743C96.5423 13.636 97.0263 13.732 97.4263 13.924C97.8263 14.108 98.1263 14.36 98.3263 14.68C98.5263 15 98.6263 15.36 98.6263 15.76C98.6263 16.256 98.4903 16.668 98.2183 16.996C97.9543 17.316 97.6023 17.548 97.1623 17.692ZM94.0663 17.248H95.9023C96.4143 17.248 96.8103 17.128 97.0903 16.888C97.3703 16.648 97.5103 16.316 97.5103 15.892C97.5103 15.468 97.3703 15.136 97.0903 14.896C96.8103 14.656 96.4063 14.536 95.8783 14.536H94.0663V17.248ZM95.9983 21.1C96.5423 21.1 96.9663 20.972 97.2703 20.716C97.5743 20.46 97.7263 20.104 97.7263 19.648C97.7263 19.184 97.5663 18.82 97.2463 18.556C96.9263 18.284 96.4983 18.148 95.9623 18.148H94.0663V21.1H95.9983ZM99.9257 18.688C99.9257 18.016 100.062 17.428 100.334 16.924C100.606 16.412 100.978 16.016 101.45 15.736C101.93 15.456 102.462 15.316 103.046 15.316C103.622 15.316 104.122 15.44 104.546 15.688C104.97 15.936 105.286 16.248 105.494 16.624V15.424H106.598V22H105.494V20.776C105.278 21.16 104.954 21.48 104.522 21.736C104.098 21.984 103.602 22.108 103.034 22.108C102.45 22.108 101.922 21.964 101.45 21.676C100.978 21.388 100.606 20.984 100.334 20.464C100.062 19.944 99.9257 19.352 99.9257 18.688ZM105.494 18.7C105.494 18.204 105.394 17.772 105.194 17.404C104.994 17.036 104.722 16.756 104.378 16.564C104.042 16.364 103.67 16.264 103.262 16.264C102.854 16.264 102.482 16.36 102.146 16.552C101.81 16.744 101.542 17.024 101.342 17.392C101.142 17.76 101.042 18.192 101.042 18.688C101.042 19.192 101.142 19.632 101.342 20.008C101.542 20.376 101.81 20.66 102.146 20.86C102.482 21.052 102.854 21.148 103.262 21.148C103.67 21.148 104.042 21.052 104.378 20.86C104.722 20.66 104.994 20.376 105.194 20.008C105.394 19.632 105.494 19.196 105.494 18.7ZM111.647 15.304C112.447 15.304 113.095 15.548 113.591 16.036C114.087 16.516 114.335 17.212 114.335 18.124V22H113.255V18.28C113.255 17.624 113.091 17.124 112.763 16.78C112.435 16.428 111.987 16.252 111.419 16.252C110.843 16.252 110.383 16.432 110.039 16.792C109.703 17.152 109.535 17.676 109.535 18.364V22H108.443V15.424H109.535V16.36C109.751 16.024 110.043 15.764 110.411 15.58C110.787 15.396 111.199 15.304 111.647 15.304ZM119.791 22L117.211 19.096V22H116.119V13.12H117.211V18.34L119.743 15.424H121.267L118.171 18.7L121.279 22H119.791Z" fill="#151414"/>
<path d="M134.544 13.96L134.976 14.74L133.308 15.436L134.988 16.12L134.532 16.924L133.08 15.868L133.272 17.68H132.372L132.552 15.868L131.1 16.936L130.632 16.12L132.3 15.424L130.632 14.752L131.076 13.948L132.564 15.016L132.372 13.192H133.284L133.08 15.016L134.544 13.96ZM140.38 13.96L140.812 14.74L139.144 15.436L140.824 16.12L140.368 16.924L138.916 15.868L139.108 17.68H138.208L138.388 15.868L136.936 16.936L136.468 16.12L138.136 15.424L136.468 14.752L136.912 13.948L138.4 15.016L138.208 13.192H139.12L138.916 15.016L140.38 13.96ZM146.216 13.96L146.648 14.74L144.98 15.436L146.66 16.12L146.204 16.924L144.752 15.868L144.944 17.68H144.044L144.224 15.868L142.772 16.936L142.304 16.12L143.972 15.424L142.304 14.752L142.748 13.948L144.236 15.016L144.044 13.192H144.956L144.752 15.016L146.216 13.96ZM152.052 13.96L152.484 14.74L150.816 15.436L152.496 16.12L152.04 16.924L150.588 15.868L150.78 17.68H149.88L150.06 15.868L148.608 16.936L148.14 16.12L149.808 15.424L148.14 14.752L148.584 13.948L150.072 15.016L149.88 13.192H150.792L150.588 15.016L152.052 13.96ZM161.087 13.96L161.519 14.74L159.851 15.436L161.531 16.12L161.075 16.924L159.623 15.868L159.815 17.68H158.915L159.095 15.868L157.643 16.936L157.175 16.12L158.843 15.424L157.175 14.752L157.619 13.948L159.107 15.016L158.915 13.192H159.827L159.623 15.016L161.087 13.96ZM166.923 13.96L167.355 14.74L165.687 15.436L167.367 16.12L166.911 16.924L165.459 15.868L165.651 17.68H164.751L164.931 15.868L163.479 16.936L163.011 16.12L164.679 15.424L163.011 14.752L163.455 13.948L164.943 15.016L164.751 13.192H165.663L165.459 15.016L166.923 13.96ZM172.759 13.96L173.191 14.74L171.523 15.436L173.203 16.12L172.747 16.924L171.295 15.868L171.487 17.68H170.587L170.767 15.868L169.315 16.936L168.847 16.12L170.515 15.424L168.847 14.752L169.291 13.948L170.779 15.016L170.587 13.192H171.499L171.295 15.016L172.759 13.96ZM178.595 13.96L179.027 14.74L177.359 15.436L179.039 16.12L178.583 16.924L177.131 15.868L177.323 17.68H176.423L176.603 15.868L175.151 16.936L174.683 16.12L176.351 15.424L174.683 14.752L175.127 13.948L176.615 15.016L176.423 13.192H177.335L177.131 15.016L178.595 13.96ZM187.63 13.96L188.062 14.74L186.394 15.436L188.074 16.12L187.618 16.924L186.166 15.868L186.358 17.68H185.458L185.638 15.868L184.186 16.936L183.718 16.12L185.386 15.424L183.718 14.752L184.162 13.948L185.65 15.016L185.458 13.192H186.37L186.166 15.016L187.63 13.96ZM193.466 13.96L193.898 14.74L192.23 15.436L193.91 16.12L193.454 16.924L192.002 15.868L192.194 17.68H191.294L191.474 15.868L190.022 16.936L189.554 16.12L191.222 15.424L189.554 14.752L189.998 13.948L191.486 15.016L191.294 13.192H192.206L192.002 15.016L193.466 13.96ZM199.302 13.96L199.734 14.74L198.066 15.436L199.746 16.12L199.29 16.924L197.838 15.868L198.03 17.68H197.13L197.31 15.868L195.858 16.936L195.39 16.12L197.058 15.424L195.39 14.752L195.834 13.948L197.322 15.016L197.13 13.192H198.042L197.838 15.016L199.302 13.96ZM205.138 13.96L205.57 14.74L203.902 15.436L205.582 16.12L205.126 16.924L203.674 15.868L203.866 17.68H202.966L203.146 15.868L201.694 16.936L201.226 16.12L202.894 15.424L201.226 14.752L201.67 13.948L203.158 15.016L202.966 13.192H203.878L203.674 15.016L205.138 13.96ZM215.109 15.388C214.933 14.5 214.385 14.056 213.465 14.056C212.753 14.056 212.221 14.332 211.869 14.884C211.517 15.428 211.345 16.328 211.353 17.584C211.537 17.168 211.841 16.844 212.265 16.612C212.697 16.372 213.177 16.252 213.705 16.252C214.529 16.252 215.185 16.508 215.673 17.02C216.169 17.532 216.417 18.24 216.417 19.144C216.417 19.688 216.309 20.176 216.093 20.608C215.885 21.04 215.565 21.384 215.133 21.64C214.709 21.896 214.193 22.024 213.585 22.024C212.761 22.024 212.117 21.84 211.653 21.472C211.189 21.104 210.865 20.596 210.681 19.948C210.497 19.3 210.405 18.5 210.405 17.548C210.405 14.612 211.429 13.144 213.477 13.144C214.261 13.144 214.877 13.356 215.325 13.78C215.773 14.204 216.037 14.74 216.117 15.388H215.109ZM213.477 17.176C213.133 17.176 212.809 17.248 212.505 17.392C212.201 17.528 211.953 17.74 211.761 18.028C211.577 18.308 211.485 18.652 211.485 19.06C211.485 19.668 211.661 20.164 212.013 20.548C212.365 20.924 212.869 21.112 213.525 21.112C214.085 21.112 214.529 20.94 214.857 20.596C215.193 20.244 215.361 19.772 215.361 19.18C215.361 18.556 215.201 18.068 214.881 17.716C214.561 17.356 214.093 17.176 213.477 17.176ZM217.758 21.124C218.774 20.308 219.57 19.64 220.146 19.12C220.722 18.592 221.206 18.044 221.598 17.476C221.998 16.9 222.198 16.336 222.198 15.784C222.198 15.264 222.07 14.856 221.814 14.56C221.566 14.256 221.162 14.104 220.602 14.104C220.058 14.104 219.634 14.276 219.33 14.62C219.034 14.956 218.874 15.408 218.85 15.976H217.794C217.826 15.08 218.098 14.388 218.61 13.9C219.122 13.412 219.782 13.168 220.59 13.168C221.414 13.168 222.066 13.396 222.546 13.852C223.034 14.308 223.278 14.936 223.278 15.736C223.278 16.4 223.078 17.048 222.678 17.68C222.286 18.304 221.838 18.856 221.334 19.336C220.83 19.808 220.186 20.36 219.402 20.992H223.53V21.904H217.758V21.124ZM224.528 20.068V19.24L228.74 13.408H230.048V19.12H231.248V20.068H230.048V22H228.968V20.068H224.528ZM229.016 14.548L225.788 19.12H229.016V14.548ZM237.175 15.388C236.999 14.5 236.451 14.056 235.531 14.056C234.819 14.056 234.287 14.332 233.935 14.884C233.583 15.428 233.411 16.328 233.419 17.584C233.603 17.168 233.907 16.844 234.331 16.612C234.763 16.372 235.243 16.252 235.771 16.252C236.595 16.252 237.251 16.508 237.739 17.02C238.235 17.532 238.483 18.24 238.483 19.144C238.483 19.688 238.375 20.176 238.159 20.608C237.951 21.04 237.631 21.384 237.199 21.64C236.775 21.896 236.259 22.024 235.651 22.024C234.827 22.024 234.183 21.84 233.719 21.472C233.255 21.104 232.931 20.596 232.747 19.948C232.563 19.3 232.471 18.5 232.471 17.548C232.471 14.612 233.495 13.144 235.543 13.144C236.327 13.144 236.943 13.356 237.391 13.78C237.839 14.204 238.103 14.74 238.183 15.388H237.175ZM235.543 17.176C235.199 17.176 234.875 17.248 234.571 17.392C234.267 17.528 234.019 17.74 233.827 18.028C233.643 18.308 233.551 18.652 233.551 19.06C233.551 19.668 233.727 20.164 234.079 20.548C234.431 20.924 234.935 21.112 235.591 21.112C236.151 21.112 236.595 20.94 236.923 20.596C237.259 20.244 237.427 19.772 237.427 19.18C237.427 18.556 237.267 18.068 236.947 17.716C236.627 17.356 236.159 17.176 235.543 17.176Z" fill="#151414"/>
<path d="M269.556 9.25C267.826 9.25 266.134 9.76318 264.695 10.7246C263.256 11.6861 262.134 13.0527 261.472 14.6515C260.81 16.2504 260.637 18.0097 260.974 19.707C261.312 21.4044 262.145 22.9635 263.369 24.1872C264.593 25.4109 266.152 26.2442 267.849 26.5819C269.546 26.9195 271.306 26.7462 272.905 26.0839C274.503 25.4217 275.87 24.3002 276.832 22.8612C277.793 21.4223 278.306 19.7306 278.306 18C278.306 15.6794 277.384 13.4538 275.743 11.8128C274.102 10.1719 271.877 9.25 269.556 9.25ZM269.556 25.5C268.073 25.5 266.623 25.0601 265.389 24.236C264.156 23.4119 263.195 22.2406 262.627 20.8701C262.059 19.4997 261.911 17.9917 262.2 16.5368C262.49 15.082 263.204 13.7456 264.253 12.6967C265.302 11.6478 266.638 10.9335 268.093 10.6441C269.548 10.3547 271.056 10.5032 272.426 11.0709C273.797 11.6386 274.968 12.5999 275.792 13.8332C276.616 15.0666 277.056 16.5166 277.056 18C277.056 19.9891 276.266 21.8968 274.859 23.3033C273.453 24.7098 271.545 25.5 269.556 25.5Z" fill="#027FEE"/>
<rect x="1.05615" y="0.5" width="294" height="35" rx="7.5" stroke="#F5F5F5"/>
<defs>
<linearGradient id="paint0_linear_357_13846" x1="31.2678" y1="23.3533" x2="31.5669" y2="12.7407" gradientUnits="userSpaceOnUse">
<stop stop-color="#151414"/>
<stop offset="1" stop-color="#939393"/>
</linearGradient>
<clipPath id="clip0_357_13846">
<rect width="32" height="10.375" fill="white" transform="translate(16.5562 12.8125)"/>
</clipPath>
</defs>
</svg>
