<svg width="33" height="12" viewBox="0 0 33 12" fill="none" xmlns="http://www.w3.org/2000/svg">
<g clip-path="url(#clip0_357_13849)">
<path d="M17.106 4.116C17.0878 5.5555 18.3889 6.35875 19.369 6.83637C20.376 7.32637 20.7143 7.64062 20.7103 8.07887C20.7028 8.7495 19.907 9.0455 19.1624 9.057C17.8633 9.07712 17.1079 8.70625 16.5074 8.42575L16.0394 10.6156C16.6419 10.8932 17.7575 11.1354 18.9144 11.146C21.63 11.146 23.4066 9.8055 23.4163 7.72712C23.4269 5.08937 19.7678 4.94337 19.7928 3.76437C19.8014 3.40687 20.1425 3.02537 20.89 2.92837C21.26 2.87937 22.2814 2.84187 23.4394 3.37512L23.8939 1.25637C23.2711 1.02962 22.4708 0.812496 21.4743 0.812496C18.9183 0.812496 17.1205 2.17125 17.106 4.116ZM28.2611 0.994996C27.7653 0.994996 27.3474 1.28425 27.1609 1.72812L23.2818 10.9904H25.9954L26.5354 9.498H29.8514L30.1646 10.9904H32.5564L30.4693 0.994996H28.2611ZM28.6408 3.69512L29.4239 7.4485H27.2791L28.6408 3.69512ZM13.8159 0.995121L11.6769 10.9902H14.2628L16.4008 0.994871H13.8159M9.99052 0.994871L7.29902 7.79825L6.21027 2.01362C6.08252 1.36787 5.57802 0.994996 5.01777 0.994996H0.618021L0.556396 1.28525C1.45965 1.48125 2.4859 1.79737 3.10765 2.13562C3.48815 2.34225 3.59665 2.52287 3.72165 3.01387L5.78377 10.9904H8.5164L12.7059 0.994996H9.99052" fill="url(#paint0_linear_357_13849)"/>
</g>
<defs>
<linearGradient id="paint0_linear_357_13849" x1="15.2681" y1="11.3533" x2="15.5672" y2="0.74063" gradientUnits="userSpaceOnUse">
<stop stop-color="#151414"/>
<stop offset="1" stop-color="#939393"/>
</linearGradient>
<clipPath id="clip0_357_13849">
<rect width="32" height="10.375" fill="white" transform="translate(0.556396 0.8125)"/>
</clipPath>
</defs>
</svg>
