<svg width="33" height="12" viewBox="0 0 33 12" fill="none" xmlns="http://www.w3.org/2000/svg">
<path d="M17.1058 4.11602C17.0875 5.55552 18.3887 6.35877 19.3688 6.8364C20.3758 7.3264 20.714 7.64065 20.71 8.0789C20.7025 8.74952 19.9068 9.04552 19.1622 9.05702C17.863 9.07715 17.1077 8.70627 16.5072 8.42577L16.0392 10.6156C16.6417 10.8933 17.7573 11.1354 18.9142 11.146C21.6298 11.146 23.4064 9.80552 23.416 7.72715C23.4267 5.0894 19.7675 4.9434 19.7925 3.7644C19.8012 3.4069 20.1423 3.0254 20.8898 2.9284C21.2598 2.8794 22.2812 2.8419 23.4392 3.37515L23.8937 1.2564C23.2709 1.02965 22.4705 0.812523 21.474 0.812523C18.918 0.812523 17.1203 2.17127 17.1058 4.11602M28.2609 0.995023C27.765 0.995023 27.3472 1.28427 27.1607 1.72815L23.2815 10.9904H25.9952L26.5352 9.49802H29.8512L30.1644 10.9904H32.5562L30.469 0.995023H28.2609M28.6405 3.69515L29.4237 7.44852H27.2789L28.6405 3.69515M13.8157 0.995148L11.6767 10.9903H14.2625L16.4005 0.994898H13.8157M9.99028 0.994898L7.29878 7.79827L6.21003 2.01365C6.08228 1.3679 5.57778 0.995023 5.01753 0.995023H0.617777L0.556152 1.28527C1.4594 1.48127 2.48565 1.7974 3.1074 2.13565C3.4879 2.34227 3.5964 2.5229 3.7214 3.0139L5.78353 10.9904H8.51615L12.7057 0.995023H9.99028" fill="url(#paint0_linear_357_13850)"/>
<defs>
<linearGradient id="paint0_linear_357_13850" x1="15.2678" y1="11.3533" x2="15.5669" y2="0.740657" gradientUnits="userSpaceOnUse">
<stop stop-color="#151414"/>
<stop offset="1" stop-color="#939393"/>
</linearGradient>
</defs>
</svg>
