<svg width="32" height="32" viewBox="0 0 32 32" fill="none" xmlns="http://www.w3.org/2000/svg">
<ellipse cx="16" cy="15.9324" rx="12" ry="10.9324" fill="white"/>
<path d="M16 24C16.4533 24 16.8336 23.8464 17.1408 23.5392C17.4469 23.2331 17.6 22.8533 17.6 22.4V17.6H22.44C22.8933 17.6 23.2667 17.4464 23.56 17.1392C23.8533 16.8331 24 16.4533 24 16C24 15.5467 23.8464 15.1664 23.5392 14.8592C23.2331 14.5531 22.8533 14.4 22.4 14.4H17.6V9.56C17.6 9.10667 17.4469 8.73333 17.1408 8.44C16.8336 8.14667 16.4533 8 16 8C15.5467 8 15.1669 8.15307 14.8608 8.4592C14.5536 8.7664 14.4 9.14667 14.4 9.6V14.4H9.56C9.10667 14.4 8.73333 14.5531 8.44 14.8592C8.14667 15.1664 8 15.5467 8 16C8 16.4533 8.15307 16.8331 8.4592 17.1392C8.7664 17.4464 9.14667 17.6 9.6 17.6H14.4V22.44C14.4 22.8933 14.5536 23.2667 14.8608 23.56C15.1669 23.8533 15.5467 24 16 24ZM16 32C13.7867 32 11.7067 31.5797 9.76 30.7392C7.81333 29.8997 6.12 28.76 4.68 27.32C3.24 25.88 2.10027 24.1867 1.2608 22.24C0.420267 20.2933 0 18.2133 0 16C0 13.7867 0.420267 11.7067 1.2608 9.76C2.10027 7.81333 3.24 6.12 4.68 4.68C6.12 3.24 7.81333 2.09973 9.76 1.2592C11.7067 0.419733 13.7867 0 16 0C18.2133 0 20.2933 0.419733 22.24 1.2592C24.1867 2.09973 25.88 3.24 27.32 4.68C28.76 6.12 29.8997 7.81333 30.7392 9.76C31.5797 11.7067 32 13.7867 32 16C32 18.2133 31.5797 20.2933 30.7392 22.24C29.8997 24.1867 28.76 25.88 27.32 27.32C25.88 28.76 24.1867 29.8997 22.24 30.7392C20.2933 31.5797 18.2133 32 16 32Z" fill="#D66655"/>
</svg>
