<svg width="285" height="271" viewBox="0 0 285 271" fill="none" xmlns="http://www.w3.org/2000/svg">
<g opacity="0.5">
<path d="M172.561 127.889L172.559 127.401L172.126 127.18L147.678 114.704L147.28 114.5L146.898 114.737L122.581 129.846L122.2 130.083L122.202 130.533L122.332 158.118L122.334 158.606L122.767 158.827L147.215 171.303L147.614 171.507L147.995 171.27L172.312 156.161L172.694 155.924L172.691 155.474L172.561 127.889Z" stroke="#55B09F" stroke-width="1.59785"/>
<path d="M148.713 88.4853L148.711 87.9974L148.278 87.7768L123.83 75.3003L123.431 75.0968L123.05 75.3336L98.7326 90.4426L98.3514 90.6795L98.3535 91.1294L98.484 118.715L98.4863 119.203L98.9187 119.423L123.367 131.9L123.765 132.103L124.147 131.867L148.464 116.758L148.845 116.521L148.843 116.071L148.713 88.4853Z" stroke="#55B09F" stroke-width="1.59785"/>
<path d="M196.129 85.9259L196.127 85.4381L195.695 85.2174L171.247 72.7409L170.848 72.5374L170.467 72.7742L146.149 87.8832L145.768 88.1201L145.77 88.57L145.9 116.156L145.903 116.643L146.335 116.864L170.783 129.341L171.182 129.544L171.563 129.307L195.881 114.198L196.262 113.961L196.26 113.511L196.129 85.9259Z" stroke="#55B09F" stroke-width="1.59785"/>
<path d="M172.034 46.1232L172.032 45.6353L171.599 45.4147L147.151 32.9382L146.752 32.7346L146.371 32.9715L122.054 48.0805L121.672 48.3173L121.675 48.7673L121.805 76.3528L121.807 76.8407L122.24 77.0613L146.688 89.5378L147.086 89.7413L147.468 89.5045L171.785 74.3955L172.166 74.1587L172.164 73.7087L172.034 46.1232Z" stroke="#55B09F" stroke-width="1.59785"/>
<path d="M220.118 43.6993L220.116 43.2114L219.683 42.9908L195.235 30.5143L194.836 30.3108L194.455 30.5476L170.138 45.6566L169.756 45.8935L169.759 46.3434L169.889 73.9289L169.891 74.4168L170.324 74.6374L194.772 87.114L195.17 87.3175L195.552 87.0806L219.869 71.9716L220.25 71.7348L220.248 71.2848L220.118 43.6993Z" fill="#55B09F" stroke="#55B09F" stroke-width="1.59785"/>
<path d="M246.525 124.404L246.725 166.684L209.453 189.842L171.982 170.719L171.782 128.439L209.053 105.281L246.525 124.404Z" fill="#55B09F"/>
<path d="M123.935 130.379L123.933 129.891L123.5 129.671L99.0523 117.194L98.6535 116.991L98.2723 117.227L73.9548 132.336L73.5736 132.573L73.5757 133.023L73.7061 160.609L73.7085 161.097L74.1409 161.317L98.5889 173.794L98.9876 173.997L99.3688 173.76L123.686 158.651L124.068 158.415L124.065 157.965L123.935 130.379Z" fill="#55B09F" stroke="#55B09F" stroke-width="1.59785"/>
<path d="M76.2207 133.399L76.2184 132.911L75.786 132.69L51.338 120.214L50.9392 120.01L50.558 120.247L26.2404 135.356L25.8592 135.593L25.8613 136.043L25.9918 163.628L25.9941 164.116L26.4265 164.337L50.8745 176.813L51.2733 177.017L51.6545 176.78L75.972 161.671L76.3532 161.434L76.3511 160.984L76.2207 133.399Z" stroke="#55B09F" stroke-width="1.59785"/>
<path d="M99.9614 90.7732L99.9591 90.2854L99.5267 90.0647L75.0787 77.5882L74.6799 77.3847L74.2987 77.6215L49.9812 92.7305L49.5999 92.9674L49.6021 93.4173L49.7325 121.003L49.7348 121.491L50.1672 121.711L74.6152 134.188L75.014 134.391L75.3952 134.155L99.7127 119.046L100.094 118.809L100.092 118.359L99.9614 90.7732Z" stroke="#55B09F" stroke-width="1.59785"/>
</g>
</svg>
