<svg width="390" height="209" viewBox="0 0 390 209" fill="none" xmlns="http://www.w3.org/2000/svg">
<g filter="url(#filter0_d_503_17376)">
<rect x="16.084" y="51.5039" width="357" height="119" rx="30" fill="#99C7FC"/>
</g>
<path d="M211.557 51.4979C182.557 148.276 116.922 131.504 16.0831 141.504L16.0745 77.9976C16.0745 77.9976 18.0008 53.7073 44.5569 51.4979C48.8098 51.1441 68.0569 51.4979 68.0569 51.4979L211.557 51.4979Z" fill="#5C9DDA"/>
<path d="M21.584 155.004C65.084 150.004 214.067 166.211 224.084 52.5039" stroke="#60B5E8" stroke-width="3"/>
<path d="M63.132 72.7519L58.452 89.5039H54.492L51.348 77.5759L48.06 89.5039L44.124 89.5279L39.612 72.7519H43.212L46.164 85.7599L49.572 72.7519H53.316L56.532 85.6879L59.508 72.7519H63.132ZM68.6859 78.2719C69.1179 77.5679 69.6779 77.0159 70.3659 76.6159C71.0699 76.2159 71.8699 76.0159 72.7659 76.0159V79.5439H71.8779C70.8219 79.5439 70.0219 79.7919 69.4779 80.2879C68.9499 80.7839 68.6859 81.6479 68.6859 82.8799V89.5039H65.3259V76.2079H68.6859V78.2719ZM74.165 82.8079C74.165 81.4639 74.429 80.2719 74.957 79.2319C75.501 78.1919 76.229 77.3919 77.141 76.8319C78.069 76.2719 79.101 75.9919 80.237 75.9919C81.229 75.9919 82.093 76.1919 82.829 76.5919C83.581 76.9919 84.181 77.4959 84.629 78.1039V76.2079H88.013V89.5039H84.629V87.5599C84.197 88.1839 83.597 88.7039 82.829 89.1199C82.077 89.5199 81.205 89.7199 80.213 89.7199C79.093 89.7199 78.069 89.4319 77.141 88.8559C76.229 88.2799 75.501 87.4719 74.957 86.4319C74.429 85.3759 74.165 84.1679 74.165 82.8079ZM84.629 82.8559C84.629 82.0399 84.469 81.3439 84.149 80.7679C83.829 80.1759 83.397 79.7279 82.853 79.4239C82.309 79.1039 81.725 78.9439 81.101 78.9439C80.477 78.9439 79.901 79.0959 79.373 79.3999C78.845 79.7039 78.413 80.1519 78.077 80.7439C77.757 81.3199 77.597 82.0079 77.597 82.8079C77.597 83.6079 77.757 84.3119 78.077 84.9199C78.413 85.5119 78.845 85.9679 79.373 86.2879C79.917 86.6079 80.493 86.7679 81.101 86.7679C81.725 86.7679 82.309 86.6159 82.853 86.3119C83.397 85.9919 83.829 85.5439 84.149 84.9679C84.469 84.3759 84.629 83.6719 84.629 82.8559ZM94.6547 78.1279C95.0867 77.5199 95.6787 77.0159 96.4307 76.6159C97.1987 76.1999 98.0707 75.9919 99.0467 75.9919C100.183 75.9919 101.207 76.2719 102.119 76.8319C103.047 77.3919 103.775 78.1919 104.303 79.2319C104.847 80.2559 105.119 81.4479 105.119 82.8079C105.119 84.1679 104.847 85.3759 104.303 86.4319C103.775 87.4719 103.047 88.2799 102.119 88.8559C101.207 89.4319 100.183 89.7199 99.0467 89.7199C98.0707 89.7199 97.2067 89.5199 96.4547 89.1199C95.7187 88.7199 95.1187 88.2159 94.6547 87.6079V95.8399H91.2947V76.2079H94.6547V78.1279ZM101.687 82.8079C101.687 82.0079 101.519 81.3199 101.183 80.7439C100.863 80.1519 100.431 79.7039 99.8867 79.3999C99.3587 79.0959 98.7827 78.9439 98.1587 78.9439C97.5507 78.9439 96.9747 79.1039 96.4307 79.4239C95.9027 79.7279 95.4707 80.1759 95.1347 80.7679C94.8147 81.3599 94.6547 82.0559 94.6547 82.8559C94.6547 83.6559 94.8147 84.3519 95.1347 84.9439C95.4707 85.5359 95.9027 85.9919 96.4307 86.3119C96.9747 86.6159 97.5507 86.7679 98.1587 86.7679C98.7827 86.7679 99.3587 86.6079 99.8867 86.2879C100.431 85.9679 100.863 85.5119 101.183 84.9199C101.519 84.3279 101.687 83.6239 101.687 82.8079ZM112.648 89.7199C111.56 89.7199 110.584 89.5279 109.72 89.1439C108.856 88.7439 108.168 88.2079 107.656 87.5359C107.16 86.8639 106.888 86.1199 106.84 85.3039H110.224C110.288 85.8159 110.536 86.2399 110.968 86.5759C111.416 86.9119 111.968 87.0799 112.624 87.0799C113.264 87.0799 113.76 86.9519 114.112 86.6959C114.48 86.4399 114.664 86.1119 114.664 85.7119C114.664 85.2799 114.44 84.9599 113.992 84.7519C113.56 84.5279 112.864 84.2879 111.904 84.0319C110.912 83.7919 110.096 83.5439 109.456 83.2879C108.832 83.0319 108.288 82.6399 107.824 82.1119C107.376 81.5839 107.152 80.8719 107.152 79.9759C107.152 79.2399 107.36 78.5679 107.776 77.9599C108.208 77.3519 108.816 76.8719 109.6 76.5199C110.4 76.1679 111.336 75.9919 112.408 75.9919C113.992 75.9919 115.256 76.3919 116.2 77.1919C117.144 77.9759 117.664 79.0399 117.76 80.3839H114.544C114.496 79.8559 114.272 79.4399 113.872 79.1359C113.488 78.8159 112.968 78.6559 112.312 78.6559C111.704 78.6559 111.232 78.7679 110.896 78.9919C110.576 79.2159 110.416 79.5279 110.416 79.9279C110.416 80.3759 110.64 80.7199 111.088 80.9599C111.536 81.1839 112.232 81.4159 113.176 81.6559C114.136 81.8959 114.928 82.1439 115.552 82.3999C116.176 82.6559 116.712 83.0559 117.16 83.5999C117.624 84.1279 117.864 84.8319 117.88 85.7119C117.88 86.4799 117.664 87.1679 117.232 87.7759C116.816 88.3839 116.208 88.8639 115.408 89.2159C114.624 89.5519 113.704 89.7199 112.648 89.7199Z" fill="white"/>
<defs>
<filter id="filter0_d_503_17376" x="0.0839844" y="43.5039" width="389" height="151" filterUnits="userSpaceOnUse" color-interpolation-filters="sRGB">
<feFlood flood-opacity="0" result="BackgroundImageFix"/>
<feColorMatrix in="SourceAlpha" type="matrix" values="0 0 0 0 0 0 0 0 0 0 0 0 0 0 0 0 0 0 127 0" result="hardAlpha"/>
<feOffset dy="8"/>
<feGaussianBlur stdDeviation="8"/>
<feComposite in2="hardAlpha" operator="out"/>
<feColorMatrix type="matrix" values="0 0 0 0 0 0 0 0 0 0 0 0 0 0 0 0 0 0 0.08 0"/>
<feBlend mode="normal" in2="BackgroundImageFix" result="effect1_dropShadow_503_17376"/>
<feBlend mode="normal" in="SourceGraphic" in2="effect1_dropShadow_503_17376" result="shape"/>
</filter>
</defs>
</svg>
