<svg width="350" height="195" viewBox="0 0 350 195" fill="none" xmlns="http://www.w3.org/2000/svg">
<mask id="mask0_648_19142" style="mask-type:alpha" maskUnits="userSpaceOnUse" x="0" y="0" width="350" height="195">
<rect width="350" height="195" rx="24" fill="#C4C4C4"/>
</mask>
<g mask="url(#mask0_648_19142)">
<path d="M33.0994 38.9524L33.0946 39.4402L33.5237 39.6672L57.7857 52.5017L58.1814 52.711L58.5661 52.4798L83.103 37.7298L83.4877 37.4986L83.4922 37.0487L83.7671 9.46422L83.772 8.97636L83.3429 8.74936L59.0809 -4.0851L58.6852 -4.29444L58.3005 -4.06321L33.7635 10.6868L33.3789 10.918L33.3744 11.3679L33.0994 38.9524Z" stroke="#8CD4CA" stroke-width="1.59785"/>
<path d="M56.3657 78.7018L56.3608 79.1897L56.7899 79.4167L81.0519 92.2511L81.4476 92.4605L81.8323 92.2293L106.369 77.4793L106.754 77.2481L106.758 76.7981L107.033 49.2137L107.038 48.7258L106.609 48.4988L82.3471 35.6644L81.9514 35.455L81.5667 35.6863L57.0298 50.4362L56.6451 50.6675L56.6406 51.1174L56.3657 78.7018Z" stroke="#8CD4CA" stroke-width="1.59785"/>
<path d="M8.91669 80.5641L8.91183 81.052L9.34093 81.279L33.6029 94.1134L33.9987 94.3228L34.3833 94.0915L58.9203 79.3416L59.3049 79.1103L59.3094 78.6604L59.5844 51.076L59.5893 50.5881L59.1602 50.3611L34.8981 37.5267L34.5024 37.3173L34.1178 37.5486L9.58079 52.2985L9.19614 52.5298L9.19165 52.9797L8.91669 80.5641Z" stroke="#8CD4CA" stroke-width="1.59785"/>
<path d="M32.4247 120.717L32.4199 121.205L32.849 121.432L57.111 134.266L57.5067 134.475L57.8914 134.244L82.4283 119.494L82.813 119.263L82.8175 118.813L83.0925 91.2285L83.0973 90.7407L82.6682 90.5137L58.4062 77.6792L58.0105 77.4699L57.6258 77.7011L33.0889 92.4511L32.7042 92.6823L32.6997 93.1322L32.4247 120.717Z" stroke="#8CD4CA" stroke-width="1.59785"/>
<path d="M-15.6898 122.434L-15.6946 122.922L-15.2655 123.149L8.99649 135.983L9.39222 136.192L9.77688 135.961L34.3138 121.211L34.6985 120.98L34.703 120.53L34.9779 92.9455L34.9828 92.4577L34.5537 92.2307L10.2917 79.3962L9.89597 79.1869L9.51131 79.4181L-15.0257 94.1681L-15.4103 94.3993L-15.4148 94.8492L-15.6898 122.434Z" fill="#8CD4CA" stroke="#8CD4CA" stroke-width="1.59785"/>
<path d="M-40.9077 41.3496L-40.4863 -0.928945L-2.87857 -23.5362L34.3077 -3.86485L33.8863 38.4137L-3.72144 61.0209L-40.9077 41.3496Z" fill="#8CD4CA"/>
<path d="M81.7565 37.1767L81.7517 37.6646L82.1808 37.8916L106.443 50.7261L106.839 50.9354L107.223 50.7042L131.76 35.9542L132.145 35.723L132.149 35.273L132.424 7.68862L132.429 7.20075L132 6.97376L107.738 -5.8607L107.342 -6.07004L106.958 -5.83881L82.4206 8.91116L82.036 9.14239L82.0315 9.59231L81.7565 37.1767Z" fill="#8CD4CA" stroke="#8CD4CA" stroke-width="1.59785"/>
<path d="M129.51 34.8587L129.505 35.3466L129.934 35.5736L154.196 48.408L154.592 48.6173L154.977 48.3861L179.514 33.6361L179.898 33.4049L179.903 32.955L180.178 5.37057L180.183 4.8827L179.754 4.6557L155.492 -8.17875L155.096 -8.3881L154.711 -8.15687L130.174 6.59311L129.79 6.82434L129.785 7.27426L129.51 34.8587Z" stroke="#8CD4CA" stroke-width="1.59785"/>
<path d="M105.146 77.1307L105.141 77.6185L105.57 77.8455L129.832 90.68L130.228 90.8893L130.612 90.6581L155.149 75.9081L155.534 75.6769L155.538 75.227L155.813 47.6425L155.818 47.1547L155.389 46.9277L131.127 34.0932L130.731 33.8839L130.347 34.1151L105.81 48.8651L105.425 49.0963L105.421 49.5462L105.146 77.1307Z" stroke="#8CD4CA" stroke-width="1.59785"/>
</g>
</svg>
