<svg width="33" height="12" viewBox="0 0 33 12" fill="none" xmlns="http://www.w3.org/2000/svg">
<path d="M17.106 4.11603C17.0877 5.55553 18.3888 6.35878 19.369 6.8364C20.376 7.3264 20.7142 7.64065 20.7102 8.0789C20.7027 8.74953 19.907 9.04553 19.1623 9.05703C17.8632 9.07715 17.1078 8.70628 16.5073 8.42578L16.0393 10.6157C16.6418 10.8933 17.7575 11.1354 18.9143 11.146C21.63 11.146 23.4066 9.80553 23.4162 7.72715C23.4268 5.0894 19.7677 4.9434 19.7927 3.7644C19.8013 3.4069 20.1425 3.0254 20.89 2.9284C21.26 2.8794 22.2813 2.8419 23.4393 3.37515L23.8938 1.2564C23.2711 1.02965 22.4707 0.812527 21.4742 0.812527C18.9182 0.812527 17.1205 2.17128 17.106 4.11603M28.2611 0.995027C27.7652 0.995027 27.3473 1.28428 27.1608 1.72815L23.2817 10.9904H25.9953L26.5353 9.49803H29.8513L30.1646 10.9904H32.5563L30.4692 0.995027H28.2611M28.6407 3.69515L29.4238 7.44853H27.2791L28.6407 3.69515M13.8158 0.995152L11.6768 10.9903H14.2627L16.4007 0.994902H13.8158M9.99046 0.994902L7.29896 7.79828L6.21021 2.01365C6.08246 1.3679 5.57796 0.995027 5.01771 0.995027H0.61796L0.556335 1.28528C1.45959 1.48128 2.48584 1.7974 3.10759 2.13565C3.48809 2.34228 3.59659 2.5229 3.72159 3.0139L5.78371 10.9904H8.51634L12.7058 0.995027H9.99046" fill="#1C008E"/>
</svg>
