<svg width="350" height="195" viewBox="0 0 350 195" fill="none" xmlns="http://www.w3.org/2000/svg">
<mask id="mask0_1035_31808" style="mask-type:alpha" maskUnits="userSpaceOnUse" x="0" y="0" width="350" height="195">
<path opacity="0.76" d="M0 48C0 25.3726 0 14.0589 7.02944 7.02944C14.0589 0 25.3726 0 48 0H302C324.627 0 335.941 0 342.971 7.02944C350 14.0589 350 25.3726 350 48V147C350 169.627 350 180.941 342.971 187.971C335.941 195 324.627 195 302 195H48C25.3726 195 14.0589 195 7.02944 187.971C0 180.941 0 169.627 0 147V48Z" fill="black"/>
</mask>
<g mask="url(#mask0_1035_31808)">
<g opacity="0.2">
<path d="M40.0991 42.9525L40.0942 43.4404L40.5233 43.6674L64.7853 56.5018L65.181 56.7112L65.5657 56.4799L90.1027 41.73L90.4873 41.4987L90.4918 41.0488L90.7668 13.4644L90.7716 12.9765L90.3425 12.7495L66.0805 -0.0849286L65.6848 -0.29427L65.3001 -0.0630395L40.7632 14.6869L40.3785 14.9182L40.374 15.3681L40.0991 42.9525Z" stroke="#816FF0" stroke-width="1.59785"/>
<path d="M63.3654 82.702L63.3606 83.1899L63.7897 83.4169L88.0517 96.2513L88.4474 96.4607L88.8321 96.2294L113.369 81.4795L113.754 81.2482L113.758 80.7983L114.033 53.2139L114.038 52.726L113.609 52.499L89.3469 39.6646L88.9511 39.4552L88.5665 39.6864L64.0295 54.4364L63.6449 54.6676L63.6404 55.1176L63.3654 82.702Z" stroke="#816FF0" stroke-width="1.59785"/>
<path d="M15.9164 84.5643L15.9116 85.0521L16.3407 85.2791L40.6027 98.1136L40.9984 98.3229L41.3831 98.0917L65.92 83.3417L66.3047 83.1105L66.3092 82.6606L66.5841 55.0761L66.589 54.5883L66.1599 54.3613L41.8979 41.5268L41.5022 41.3175L41.1175 41.5487L16.5806 56.2987L16.1959 56.5299L16.1914 56.9798L15.9164 84.5643Z" stroke="#816FF0" stroke-width="1.59785"/>
<path d="M39.4245 124.717L39.4196 125.205L39.8487 125.432L64.1107 138.266L64.5065 138.475L64.8911 138.244L89.4281 123.494L89.8128 123.263L89.8172 122.813L90.0922 95.2287L90.0971 94.7408L89.668 94.5138L65.406 81.6794L65.0102 81.47L64.6256 81.7013L40.0886 96.4512L39.704 96.6825L39.6995 97.1324L39.4245 124.717Z" stroke="#816FF0" stroke-width="1.59785"/>
<path d="M-8.69 126.434L-8.69486 126.922L-8.26576 127.149L15.9962 139.983L16.392 140.192L16.7766 139.961L41.3136 125.211L41.6983 124.98L41.7027 124.53L41.9777 96.9457L41.9826 96.4578L41.5535 96.2309L17.2915 83.3964L16.8957 83.1871L16.5111 83.4183L-8.02589 98.1683L-8.41055 98.3995L-8.41504 98.8494L-8.69 126.434Z" fill="#816FF0" stroke="#816FF0" stroke-width="1.59785"/>
<path d="M-33.9081 45.3498L-33.4866 3.07122L4.12107 -19.536L41.3073 0.135323L40.8859 42.4139L3.2782 65.0211L-33.9081 45.3498Z" fill="#816FF0"/>
<path d="M88.7563 41.1769L88.7514 41.6648L89.1805 41.8918L113.443 54.7262L113.838 54.9356L114.223 54.7043L138.76 39.9544L139.145 39.7231L139.149 39.2732L139.424 11.6888L139.429 11.2009L139 10.9739L114.738 -1.86053L114.342 -2.06987L113.957 -1.83864L89.4204 12.9113L89.0357 13.1426L89.0313 13.5925L88.7563 41.1769Z" fill="#816FF0" stroke="#816FF0" stroke-width="1.59785"/>
<path d="M136.51 38.8589L136.505 39.3467L136.934 39.5737L161.196 52.4082L161.592 52.6175L161.977 52.3863L186.514 37.6363L186.898 37.4051L186.903 36.9552L187.178 9.37073L187.183 8.88287L186.753 8.65587L162.491 -4.17859L162.096 -4.38793L161.711 -4.1567L137.174 10.5933L136.789 10.8245L136.785 11.2744L136.51 38.8589Z" stroke="#816FF0" stroke-width="1.59785"/>
<path d="M112.145 81.1308L112.14 81.6187L112.569 81.8457L136.831 94.6801L137.227 94.8895L137.612 94.6583L162.149 79.9083L162.533 79.6771L162.538 79.2271L162.813 51.6427L162.818 51.1548L162.389 50.9278L138.127 38.0934L137.731 37.884L137.346 38.1153L112.809 52.8652L112.425 53.0965L112.42 53.5464L112.145 81.1308Z" stroke="#816FF0" stroke-width="1.59785"/>
</g>
</g>
</svg>
