<svg width="36" height="37" viewBox="0 0 36 37" fill="none" xmlns="http://www.w3.org/2000/svg">
<path d="M24.2484 24.7117C24.6001 24.36 24.7762 23.946 24.7767 23.4699C24.7772 22.9953 24.602 22.5826 24.251 22.2316L20.5348 18.5155L24.2898 14.7605C24.6415 14.4088 24.8122 14.0003 24.802 13.5348C24.7925 13.0703 24.6123 12.6625 24.2614 12.3115C23.9104 11.9605 23.4968 11.7853 23.0207 11.7858C22.5461 11.7863 22.133 11.9624 21.7813 12.3141L18.0574 16.038L14.3103 12.2909C13.9593 11.9399 13.5515 11.7696 13.0869 11.7801C12.6215 11.7913 12.2129 11.9728 11.8612 12.3245C11.5095 12.6762 11.3334 13.0893 11.3329 13.5638C11.3324 14.0399 11.5077 14.4535 11.8586 14.8045L15.5748 18.5206L11.8198 22.2756C11.4681 22.6273 11.297 23.0355 11.3064 23.5C11.3167 23.9654 11.4973 24.3736 11.8483 24.7246C12.1992 25.0756 12.612 25.2508 13.0865 25.2503C13.5627 25.2498 13.9766 25.0737 14.3283 24.722L18.0522 20.9981L21.7994 24.7452C22.1503 25.0962 22.5585 25.2661 23.024 25.2548C23.4886 25.2444 23.8967 25.0634 24.2484 24.7117ZM30.442 30.9053C28.7249 32.6224 26.7858 33.9107 24.6248 34.7703C22.4646 35.6306 20.2685 36.0619 18.0365 36.0643C15.8045 36.0666 13.6093 35.6398 11.4509 34.784C9.29167 33.929 7.35529 32.6447 5.64172 30.9312C3.92816 29.2176 2.64387 27.2812 1.78886 25.122C0.933028 22.9636 0.506275 20.7684 0.508604 18.5364C0.510934 16.3043 0.941857 14.1078 1.80138 11.9468C2.66172 9.78666 3.95046 7.848 5.66761 6.13085C7.38475 4.41371 9.32341 3.12497 11.4836 2.26462C13.6446 1.4051 15.8411 0.974181 18.0731 0.971851C20.3052 0.969522 22.5004 1.39628 24.6587 2.25211C26.818 3.10712 28.7543 4.39141 30.4679 6.10497C32.1815 7.81853 33.4658 9.75492 34.3208 11.9141C35.1766 14.0725 35.6034 16.2677 35.601 18.4997C35.5987 20.7318 35.1674 22.9279 34.307 25.0881C33.4475 27.2491 32.1592 29.1881 30.442 30.9053Z" fill="#E07755"/>
</svg>
