<svg width="61" height="20" viewBox="0 0 61 20" fill="none" xmlns="http://www.w3.org/2000/svg">
<path d="M6.61939 5.242V6.278H2.37739V9.568H5.82139V10.604H2.37739V15H1.10339V5.242H6.61939ZM8.81608 6.082C8.57341 6.082 8.36808 5.998 8.20008 5.83C8.03208 5.662 7.94808 5.45667 7.94808 5.214C7.94808 4.97133 8.03208 4.766 8.20008 4.598C8.36808 4.43 8.57341 4.346 8.81608 4.346C9.04941 4.346 9.24541 4.43 9.40408 4.598C9.57208 4.766 9.65608 4.97133 9.65608 5.214C9.65608 5.45667 9.57208 5.662 9.40408 5.83C9.24541 5.998 9.04941 6.082 8.81608 6.082ZM9.43208 7.328V15H8.15808V7.328H9.43208ZM12.8774 4.64V15H11.6034V4.64H12.8774ZM16.6027 8.378V12.9C16.6027 13.2733 16.682 13.5393 16.8407 13.698C16.9994 13.8473 17.2747 13.922 17.6667 13.922H18.6047V15H17.4567C16.7474 15 16.2154 14.8367 15.8607 14.51C15.506 14.1833 15.3287 13.6467 15.3287 12.9V8.378H14.3347V7.328H15.3287V5.396H16.6027V7.328H18.6047V8.378H16.6027ZM27.1483 10.87C27.1483 11.1127 27.1343 11.3693 27.1063 11.64H20.9743C21.021 12.396 21.2776 12.9887 21.7443 13.418C22.2203 13.838 22.7943 14.048 23.4663 14.048C24.017 14.048 24.4743 13.922 24.8383 13.67C25.2116 13.4087 25.473 13.0633 25.6223 12.634H26.9943C26.789 13.3713 26.3783 13.9733 25.7623 14.44C25.1463 14.8973 24.381 15.126 23.4663 15.126C22.7383 15.126 22.085 14.9627 21.5063 14.636C20.937 14.3093 20.489 13.8473 20.1623 13.25C19.8356 12.6433 19.6723 11.9433 19.6723 11.15C19.6723 10.3567 19.831 9.66133 20.1483 9.064C20.4656 8.46667 20.909 8.00933 21.4783 7.692C22.057 7.36533 22.7196 7.202 23.4663 7.202C24.1943 7.202 24.8383 7.36067 25.3983 7.678C25.9583 7.99533 26.3876 8.434 26.6863 8.994C26.9943 9.54467 27.1483 10.17 27.1483 10.87ZM25.8323 10.604C25.8323 10.1187 25.725 9.70333 25.5103 9.358C25.2956 9.00333 25.0016 8.73733 24.6283 8.56C24.2643 8.37333 23.8583 8.28 23.4103 8.28C22.7663 8.28 22.2156 8.48533 21.7583 8.896C21.3103 9.30667 21.0536 9.876 20.9883 10.604H25.8323ZM30.104 8.574C30.328 8.13533 30.6453 7.79467 31.056 7.552C31.476 7.30933 31.9846 7.188 32.582 7.188V8.504H32.246C30.818 8.504 30.104 9.27867 30.104 10.828V15H28.83V7.328H30.104V8.574Z" fill="#828282"/>
<g clip-path="url(#clip0_737_20723)">
<path d="M59.9481 13.1887H53.31C52.9462 13.1887 52.6514 12.8939 52.6514 12.5301C52.6514 12.1664 52.9462 11.8716 53.31 11.8716H59.9479C60.3117 11.8716 60.6065 12.1664 60.6065 12.5301C60.6065 12.8939 60.3119 13.1887 59.9481 13.1887Z" fill="#828282"/>
<path d="M51.713 14.7853C50.4696 14.7853 49.458 13.7737 49.458 12.5303C49.458 11.2867 50.4696 10.2751 51.713 10.2751C52.9567 10.2751 53.9683 11.2867 53.9683 12.5303C53.9683 13.7735 52.9567 14.7853 51.713 14.7853ZM51.713 11.592C51.1958 11.592 50.7752 12.0129 50.7752 12.5301C50.7752 13.0471 51.196 13.4679 51.713 13.4679C52.2302 13.4679 52.6511 13.0471 52.6511 12.5301C52.6511 12.0129 52.2302 11.592 51.713 11.592Z" fill="#828282"/>
<path d="M50.1172 13.1887H42.0294C41.6657 13.1887 41.3708 12.8939 41.3708 12.5301C41.3708 12.1664 41.6657 11.8716 42.0294 11.8716H50.1174C50.4812 11.8716 50.776 12.1664 50.776 12.5301C50.776 12.8939 50.481 13.1887 50.1172 13.1887Z" fill="#828282"/>
<path d="M59.9488 8.10591H47.2621C46.8983 8.10591 46.6035 7.81108 46.6035 7.44732C46.6035 7.08356 46.8983 6.78873 47.2621 6.78873H59.9488C60.3126 6.78873 60.6074 7.08356 60.6074 7.44732C60.6074 7.81108 60.3126 8.10591 59.9488 8.10591Z" fill="#828282"/>
<path d="M45.6654 9.70254C44.4218 9.70254 43.4102 8.69094 43.4102 7.44729C43.4102 6.20365 44.4218 5.19205 45.6654 5.19205C46.909 5.19205 47.9206 6.20365 47.9206 7.44729C47.9206 8.69094 46.9088 9.70254 45.6654 9.70254ZM45.6654 6.50923C45.1482 6.50923 44.7273 6.93008 44.7273 7.44729C44.7273 7.96451 45.1482 8.38535 45.6654 8.38535C46.1826 8.38535 46.6035 7.96451 46.6035 7.44729C46.6035 6.93008 46.1824 6.50923 45.6654 6.50923Z" fill="#828282"/>
<path d="M44.0687 8.10591H42.0294C41.6657 8.10591 41.3708 7.81108 41.3708 7.44732C41.3708 7.08356 41.6657 6.78873 42.0294 6.78873H44.0687C44.4324 6.78873 44.7273 7.08356 44.7273 7.44732C44.7273 7.81108 44.4322 8.10591 44.0687 8.10591Z" fill="#828282"/>
<path d="M53.7632 3.02373H42.0294C41.6657 3.02373 41.3708 2.7289 41.3708 2.36514C41.3708 2.00137 41.6657 1.70654 42.0294 1.70654H53.7632C54.1269 1.70654 54.4218 2.00137 54.4218 2.36514C54.4218 2.7289 54.1269 3.02373 53.7632 3.02373Z" fill="#828282"/>
<path d="M55.3596 4.62035C54.1162 4.62035 53.1046 3.60875 53.1046 2.36511C53.1046 1.12146 54.1162 0.109863 55.3596 0.109863C56.6033 0.109863 57.6149 1.12146 57.6149 2.36511C57.6149 3.60875 56.6033 4.62035 55.3596 4.62035ZM55.3596 1.42705C54.8426 1.42705 54.4218 1.84789 54.4218 2.36511C54.4218 2.88232 54.8426 3.30316 55.3596 3.30316C55.8769 3.30316 56.2977 2.88232 56.2977 2.36511C56.2977 1.84789 55.8771 1.42705 55.3596 1.42705Z" fill="#828282"/>
<path d="M59.9488 3.02373H56.9566C56.5928 3.02373 56.298 2.7289 56.298 2.36514C56.298 2.00137 56.5928 1.70654 56.9566 1.70654H59.9488C60.3125 1.70654 60.6074 2.00137 60.6074 2.36514C60.6074 2.7289 60.3125 3.02373 59.9488 3.02373Z" fill="#828282"/>
<path d="M59.9488 18.2713H47.2621C46.8983 18.2713 46.6035 17.9765 46.6035 17.6127C46.6035 17.249 46.8983 16.9541 47.2621 16.9541H59.9488C60.3126 16.9541 60.6074 17.249 60.6074 17.6127C60.6074 17.9765 60.3126 18.2713 59.9488 18.2713Z" fill="#828282"/>
<path d="M45.6654 19.8677C44.4218 19.8677 43.4102 18.8561 43.4102 17.6127C43.4102 16.3691 44.4218 15.3575 45.6654 15.3575C46.909 15.3575 47.9206 16.3691 47.9206 17.6127C47.9204 18.8561 46.9088 19.8677 45.6654 19.8677ZM45.6654 16.6744C45.1482 16.6744 44.7273 17.0953 44.7273 17.6125C44.7273 18.1295 45.1482 18.5503 45.6654 18.5503C46.1826 18.5503 46.6035 18.1295 46.6035 17.6125C46.6032 17.0953 46.1824 16.6744 45.6654 16.6744Z" fill="#828282"/>
<path d="M44.0687 18.2713H42.0294C41.6657 18.2713 41.3708 17.9765 41.3708 17.6127C41.3708 17.249 41.6657 16.9541 42.0294 16.9541H44.0687C44.4324 16.9541 44.7273 17.249 44.7273 17.6127C44.7273 17.9765 44.4322 18.2713 44.0687 18.2713Z" fill="#828282"/>
</g>
<defs>
<clipPath id="clip0_737_20723">
<rect width="20" height="20" fill="white" transform="translate(41)"/>
</clipPath>
</defs>
</svg>
