<svg width="337" height="195" viewBox="0 0 337 195" fill="none" xmlns="http://www.w3.org/2000/svg">
<mask id="mask0_357_13251" style="mask-type:alpha" maskUnits="userSpaceOnUse" x="0" y="0" width="337" height="195">
<rect width="337" height="195" rx="24" fill="#C4C4C4"/>
</mask>
<g mask="url(#mask0_357_13251)">
<g opacity="0.4">
<path d="M33.0994 38.9524L33.0946 39.4402L33.5237 39.6672L57.7857 52.5017L58.1814 52.711L58.5661 52.4798L83.103 37.7298L83.4877 37.4986L83.4922 37.0487L83.7671 9.46425L83.772 8.97639L83.3429 8.74939L59.0809 -4.08507L58.6852 -4.29441L58.3005 -4.06318L33.7635 10.6868L33.3789 10.918L33.3744 11.3679L33.0994 38.9524Z" stroke="#55B09F" stroke-width="1.59785"/>
<path d="M56.3657 78.7019L56.3608 79.1897L56.7899 79.4167L81.0519 92.2512L81.4476 92.4605L81.8323 92.2293L106.369 77.4793L106.754 77.2481L106.758 76.7982L107.033 49.2137L107.038 48.7259L106.609 48.4989L82.3471 35.6644L81.9514 35.4551L81.5667 35.6863L57.0298 50.4363L56.6451 50.6675L56.6406 51.1174L56.3657 78.7019Z" stroke="#55B09F" stroke-width="1.59785"/>
<path d="M8.91669 80.5642L8.91183 81.052L9.34093 81.279L33.6029 94.1135L33.9987 94.3228L34.3833 94.0916L58.9203 79.3416L59.3049 79.1104L59.3094 78.6605L59.5844 51.076L59.5893 50.5882L59.1602 50.3612L34.8981 37.5267L34.5024 37.3174L34.1178 37.5486L9.58079 52.2986L9.19614 52.5298L9.19165 52.9797L8.91669 80.5642Z" stroke="#55B09F" stroke-width="1.59785"/>
<path d="M32.4247 120.717L32.4199 121.205L32.849 121.432L57.111 134.266L57.5067 134.475L57.8914 134.244L82.4283 119.494L82.813 119.263L82.8175 118.813L83.0925 91.2286L83.0973 90.7407L82.6682 90.5137L58.4062 77.6792L58.0105 77.4699L57.6258 77.7011L33.0889 92.4511L32.7042 92.6823L32.6997 93.1323L32.4247 120.717Z" stroke="#55B09F" stroke-width="1.59785"/>
<path d="M-15.6898 122.434L-15.6946 122.922L-15.2655 123.149L8.99649 135.983L9.39222 136.192L9.77688 135.961L34.3138 121.211L34.6985 120.98L34.703 120.53L34.9779 92.9456L34.9828 92.4577L34.5537 92.2307L10.2917 79.3963L9.89597 79.1869L9.51131 79.4181L-15.0257 94.1681L-15.4103 94.3993L-15.4148 94.8493L-15.6898 122.434Z" fill="#55B09F" stroke="#55B09F" stroke-width="1.59785"/>
<path d="M-40.9077 41.3496L-40.4863 -0.928915L-2.87857 -23.5361L34.3077 -3.86481L33.8863 38.4137L-3.72144 61.0209L-40.9077 41.3496Z" fill="#55B09F"/>
<path d="M81.7565 37.1768L81.7517 37.6646L82.1808 37.8916L106.443 50.7261L106.839 50.9354L107.223 50.7042L131.76 35.9542L132.145 35.723L132.149 35.2731L132.424 7.68865L132.429 7.20078L132 6.97379L107.738 -5.86067L107.342 -6.07001L106.958 -5.83878L82.4206 8.91119L82.036 9.14242L82.0315 9.59235L81.7565 37.1768Z" fill="#55B09F" stroke="#55B09F" stroke-width="1.59785"/>
<path d="M129.51 34.8587L129.505 35.3466L129.934 35.5736L154.196 48.408L154.592 48.6174L154.977 48.3862L179.514 33.6362L179.898 33.4049L179.903 32.955L180.178 5.3706L180.183 4.88273L179.754 4.65573L155.492 -8.17872L155.096 -8.38807L154.711 -8.15684L130.174 6.59314L129.79 6.82437L129.785 7.27429L129.51 34.8587Z" stroke="#55B09F" stroke-width="1.59785"/>
<path d="M105.146 77.1307L105.141 77.6186L105.57 77.8456L129.832 90.68L130.228 90.8894L130.612 90.6581L155.149 75.9082L155.534 75.6769L155.538 75.227L155.813 47.6426L155.818 47.1547L155.389 46.9277L131.127 34.0932L130.731 33.8839L130.347 34.1151L105.81 48.8651L105.425 49.0963L105.421 49.5463L105.146 77.1307Z" stroke="#55B09F" stroke-width="1.59785"/>
</g>
<g opacity="0.5">
<path d="M288.561 158.888L288.559 158.401L288.126 158.18L263.678 145.703L263.28 145.5L262.898 145.737L238.581 160.846L238.2 161.083L238.202 161.533L238.332 189.118L238.335 189.606L238.767 189.827L263.215 202.303L263.614 202.507L263.995 202.27L288.312 187.161L288.694 186.924L288.692 186.474L288.561 158.888Z" stroke="#55B09F" stroke-width="1.59785"/>
<path d="M264.713 119.485L264.711 118.997L264.279 118.777L239.831 106.3L239.432 106.097L239.051 106.334L214.733 121.442L214.352 121.679L214.354 122.129L214.484 149.715L214.487 150.203L214.919 150.423L239.367 162.9L239.766 163.103L240.147 162.866L264.465 147.758L264.846 147.521L264.844 147.071L264.713 119.485Z" stroke="#55B09F" stroke-width="1.59785"/>
<path d="M312.13 116.926L312.127 116.438L311.695 116.217L287.247 103.741L286.848 103.537L286.467 103.774L262.149 118.883L261.768 119.12L261.77 119.57L261.901 147.155L261.903 147.643L262.335 147.864L286.783 160.34L287.182 160.544L287.563 160.307L311.881 145.198L312.262 144.961L312.26 144.511L312.13 116.926Z" stroke="#55B09F" stroke-width="1.59785"/>
<path d="M288.034 77.1231L288.032 76.6352L287.599 76.4145L263.151 63.938L262.753 63.7345L262.371 63.9714L238.054 79.0803L237.673 79.3172L237.675 79.7671L237.805 107.353L237.807 107.841L238.24 108.061L262.688 120.538L263.087 120.741L263.468 120.504L287.785 105.395L288.167 105.159L288.164 104.709L288.034 77.1231Z" stroke="#55B09F" stroke-width="1.59785"/>
<path d="M336.118 74.6992L336.116 74.2113L335.683 73.9906L311.235 61.5141L310.837 61.3106L310.455 61.5474L286.138 76.6564L285.757 76.8933L285.759 77.3432L285.889 104.929L285.892 105.417L286.324 105.637L310.772 118.114L311.171 118.317L311.552 118.08L335.869 102.971L336.251 102.735L336.249 102.285L336.118 74.6992Z" fill="#55B09F" stroke="#55B09F" stroke-width="1.59785"/>
<path d="M362.525 155.404L362.725 197.684L325.454 220.842L287.982 201.719L287.782 159.439L325.054 136.281L362.525 155.404Z" fill="#55B09F"/>
<path d="M239.935 161.379L239.933 160.891L239.501 160.67L215.053 148.194L214.654 147.99L214.273 148.227L189.955 163.336L189.574 163.573L189.576 164.023L189.706 191.609L189.709 192.096L190.141 192.317L214.589 204.794L214.988 204.997L215.369 204.76L239.687 189.651L240.068 189.414L240.066 188.964L239.935 161.379Z" fill="#55B09F" stroke="#55B09F" stroke-width="1.59785"/>
<path d="M192.221 164.399L192.219 163.911L191.786 163.69L167.338 151.213L166.94 151.01L166.558 151.247L142.241 166.356L141.86 166.593L141.862 167.043L141.992 194.628L141.994 195.116L142.427 195.337L166.875 207.813L167.274 208.017L167.655 207.78L191.972 192.671L192.354 192.434L192.351 191.984L192.221 164.399Z" stroke="#55B09F" stroke-width="1.59785"/>
<path d="M215.962 121.773L215.959 121.285L215.527 121.065L191.079 108.588L190.68 108.385L190.299 108.621L165.982 123.73L165.6 123.967L165.602 124.417L165.733 152.003L165.735 152.491L166.168 152.711L190.616 165.188L191.014 165.391L191.396 165.154L215.713 150.045L216.094 149.809L216.092 149.359L215.962 121.773Z" stroke="#55B09F" stroke-width="1.59785"/>
</g>
</g>
</svg>
